M48
; DRILL file {KiCad 9.0.6+dfsg-1} date 2025-12-05T21:57:11+0100
; FORMAT={-:-/ absolute / metric / decimal}
; #@! TF.CreationDate,2025-12-05T21:57:11+01:00
; #@! TF.GenerationSoftware,Kicad,Pcbnew,9.0.6+dfsg-1
; #@! TF.FileFunction,Plated,1,2,PTH
FMAT,2
METRIC
; #@! TA.AperFunction,Plated,PTH,ViaDrill
T1C0.300
; #@! TA.AperFunction,Plated,PTH,ComponentDrill
T2C0.800
; #@! TA.AperFunction,Plated,PTH,ComponentDrill
T3C1.000
%
G90
G05
T1
X54.95Y-67.45
X54.95Y-113.4
X55.7Y-119.7
X55.75Y-86.35
X56.3Y-86.95
X56.3Y-114.7
X56.883Y-73.4
X56.973Y-95.05
X57.5Y-76.0
X57.6Y-79.8
X57.75Y-97.25
X58.85Y-68.5
X58.85Y-70.6
X58.85Y-83.45
X58.85Y-96.2
X60.05Y-76.827
X60.1Y-87.6
X60.15Y-111.9
X60.75Y-105.5
X60.8Y-80.9
X61.85Y-75.55
X61.902Y-82.146
X62.6Y-67.492
X63.1Y-117.05
X63.3Y-81.55
X64.42Y-88.196
X64.45Y-73.4
X64.5Y-80.973
X65.2Y-66.865
X65.65Y-82.227
X66.95Y-67.492
X66.95Y-76.827
X66.95Y-80.6
X66.95Y-92.5
X67.056Y-79.807
X67.142Y-116.8
X67.75Y-66.238
X68.15Y-96.2
X68.15Y-109.1
X68.15Y-122.55
X68.15Y-135.1
X68.3Y-80.0
X69.4Y-74.845
X69.5Y-81.6
X69.5Y-89.65
X69.55Y-76.75
X70.0Y-125.05
X70.2Y-67.492
X70.35Y-101.95
X70.6Y-74.845
X70.785Y-128.75
X71.95Y-76.123
X72.0Y-66.85
X72.02Y-100.9
X72.05Y-72.35
X72.1Y-80.023
X72.35Y-120.6
X72.55Y-124.25
X72.8Y-66.865
X73.1Y-102.577
X73.45Y-74.218
X73.45Y-121.1
X73.668Y-132.0
X74.15Y-97.8
X74.5Y-93.127
X74.55Y-76.099
X74.605Y-79.52
X74.85Y-112.8
X74.9Y-115.35
X75.05Y-139.95
X75.15Y-127.55
X75.75Y-107.75
X75.85Y-73.2
X76.0Y-98.477
X76.0Y-110.9
X76.5Y-133.5
X76.7Y-101.95
X77.1Y-74.218
X77.1Y-81.277
X77.15Y-89.0
X77.15Y-94.05
X77.4Y-113.5
X77.55Y-125.65
X77.65Y-138.05
X77.9Y-101.65
X79.05Y-118.85
X79.35Y-91.05
X79.64Y-98.55
X79.64Y-100.9
X79.813Y-93.754
X79.95Y-111.65
X80.0Y-119.75
X80.2Y-132.873
X80.45Y-81.277
X80.85Y-101.65
X81.3Y-118.25
X82.3Y-76.1
X82.35Y-93.754
X82.5Y-112.173
X82.5Y-114.723
X82.7Y-126.923
X82.75Y-136.7
X82.75Y-139.323
X82.85Y-105.5
X83.607Y-67.492
X83.607Y-69.6
X83.607Y-94.3
X84.3Y-97.85
X84.927Y-66.849
X85.05Y-114.095
X85.25Y-126.296
X85.25Y-138.695
X85.5Y-72.336
X85.55Y-95.1
X86.3Y-81.277
X86.373Y-70.55
X86.673Y-101.95
X87.0Y-66.865
X87.0Y-72.1
X87.3Y-107.75
X87.7Y-69.6
X87.7Y-73.591
X88.15Y-83.45
X88.4Y-96.45
X88.4Y-109.1
X88.4Y-122.65
X88.4Y-135.1
X89.8Y-102.15
X89.8Y-132.873
X89.85Y-92.45
X89.878Y-80.023
X90.0Y-68.5
X90.45Y-125.0
X90.496Y-116.75
X90.573Y-94.25
X91.1Y-106.25
X91.123Y-124.25
X91.2Y-103.85
X91.75Y-120.45
X91.75Y-131.7
X91.85Y-93.1
X91.88Y-118.877
X92.45Y-69.508
X92.45Y-81.977
X92.6Y-67.45
X93.7Y-66.25
X93.7Y-76.099
X93.7Y-128.75
X94.95Y-72.15
X94.95Y-73.591
X94.95Y-101.523
X95.0Y-84.9
X95.05Y-66.85
X96.1Y-81.977
X96.2Y-98.55
X96.2Y-121.1
X96.3Y-106.2
X96.4Y-80.705
X97.368Y-131.7
X97.4Y-79.45
X97.5Y-89.0
X97.55Y-106.2
X97.55Y-112.8
X98.007Y-132.406
X98.75Y-100.895
X98.8Y-107.05
X98.8Y-112.84
X98.8Y-132.3
X98.8Y-144.55
X98.85Y-110.85
X99.95Y-76.1
X100.05Y-73.0
X100.05Y-89.6
X100.1Y-85.688
X101.15Y-67.477
X101.2Y-128.25
X101.25Y-140.6
X101.35Y-94.35
X101.35Y-110.85
X101.4Y-118.877
X102.35Y-68.5
X102.4Y-100.895
X102.4Y-111.546
X102.6Y-85.688
X102.602Y-84.888
X102.732Y-133.55
X103.9Y-92.5
X103.95Y-118.25
X104.45Y-81.977
X104.5Y-100.8
X105.05Y-112.173
X105.1Y-76.1
X105.15Y-86.315
X105.15Y-119.75
X105.2Y-81.277
X105.232Y-102.15
X106.3Y-86.942
X106.35Y-101.7
X106.35Y-143.85
X106.4Y-93.7
X106.4Y-112.173
X106.45Y-107.8
X107.25Y-82.0
X107.25Y-94.377
X107.45Y-67.492
X107.75Y-136.65
X108.773Y-69.508
X108.95Y-141.25
X108.955Y-100.84
X109.0Y-111.546
X109.05Y-128.85
X109.4Y-66.865
X109.4Y-93.75
X110.2Y-94.9
X110.25Y-88.75
X110.3Y-67.492
X111.05Y-91.05
X111.893Y-73.0
X111.893Y-107.0
X112.5Y-107.85
X113.8Y-78.25
X115.05Y-121.15
X117.6Y-133.55
X118.227Y-76.1
X118.25Y-81.55
X120.15Y-68.5
X120.29Y-83.4
X120.29Y-96.3
X121.7Y-89.45
X122.7Y-133.55
X122.75Y-121.1
X122.8Y-76.75
X122.8Y-132.377
X122.85Y-107.95
X122.85Y-115.35
X122.85Y-144.577
X125.073Y-88.7
X125.1Y-103.75
X125.15Y-81.5
X125.3Y-114.85
X125.35Y-75.5
X125.4Y-131.75
X125.4Y-143.95
X125.7Y-88.196
X125.7Y-102.2
X127.825Y-114.225
X127.85Y-75.05
X127.85Y-141.25
X127.9Y-128.85
X130.45Y-82.2
X130.45Y-113.5
X130.45Y-128.25
X130.45Y-140.6
X130.5Y-74.45
X130.55Y-107.0
X132.9Y-127.65
X133.0Y-79.45
X133.0Y-82.2
X133.0Y-92.5
X133.0Y-94.9
X133.0Y-102.157
X133.0Y-112.9
X133.0Y-139.95
X135.373Y-126.923
X135.45Y-87.569
X135.5Y-112.35
X135.5Y-139.5
X135.55Y-79.9
X138.05Y-80.55
X138.05Y-88.823
X138.05Y-126.3
X138.05Y-138.7
X138.1Y-111.7
X138.15Y-106.2
X140.525Y-138.175
X140.6Y-88.199
X140.6Y-89.4
X140.6Y-102.15
X140.65Y-111.15
X140.65Y-125.65
X140.7Y-81.573
X143.15Y-82.2
X145.1Y-88.8
X145.1Y-102.15
T2
X61.87Y-70.6
X61.87Y-78.22
X61.88Y-83.446
X61.88Y-91.066
X64.41Y-70.6
X64.41Y-78.22
X64.42Y-83.446
X64.42Y-91.066
X66.95Y-70.6
X66.95Y-78.22
X66.96Y-83.446
X66.96Y-91.066
X69.49Y-70.6
X69.49Y-78.22
X69.5Y-83.446
X69.5Y-91.066
X69.77Y-109.138
X69.77Y-116.758
X70.0Y-122.59
X70.0Y-130.21
X70.0Y-135.085
X70.0Y-142.705
X70.28Y-96.292
X70.28Y-103.912
X72.03Y-70.6
X72.03Y-78.22
X72.04Y-83.446
X72.04Y-91.066
X72.31Y-109.138
X72.31Y-116.758
X72.54Y-122.59
X72.54Y-130.21
X72.54Y-135.085
X72.54Y-142.705
X72.82Y-96.292
X72.82Y-103.912
X74.57Y-70.6
X74.57Y-78.22
X74.58Y-83.446
X74.58Y-91.066
X74.85Y-109.138
X74.85Y-116.758
X75.08Y-122.59
X75.08Y-130.21
X75.08Y-135.085
X75.08Y-142.705
X75.36Y-96.292
X75.36Y-103.912
X77.11Y-70.6
X77.11Y-78.22
X77.12Y-83.446
X77.12Y-91.066
X77.39Y-109.138
X77.39Y-116.758
X77.62Y-122.59
X77.62Y-130.21
X77.62Y-135.085
X77.62Y-142.705
X77.9Y-96.292
X77.9Y-103.912
X79.65Y-70.6
X79.65Y-78.22
X79.93Y-109.138
X79.93Y-116.758
X80.16Y-122.59
X80.16Y-130.21
X80.16Y-135.085
X80.16Y-142.705
X80.44Y-96.292
X80.44Y-103.912
X82.47Y-109.138
X82.47Y-116.758
X82.7Y-122.59
X82.7Y-130.21
X82.7Y-135.085
X82.7Y-142.705
X82.98Y-96.292
X82.98Y-103.912
X85.01Y-109.138
X85.01Y-116.758
X85.24Y-122.59
X85.24Y-130.21
X85.24Y-135.085
X85.24Y-142.705
X85.52Y-96.292
X85.52Y-103.912
X89.88Y-70.6
X89.88Y-78.22
X89.89Y-83.446
X89.89Y-91.066
X92.42Y-70.6
X92.42Y-78.22
X92.43Y-83.446
X92.43Y-91.066
X93.66Y-96.292
X93.66Y-103.912
X93.7Y-122.59
X93.7Y-130.21
X93.7Y-135.085
X93.7Y-142.705
X93.75Y-109.138
X93.75Y-116.758
X94.96Y-70.6
X94.96Y-78.22
X94.97Y-83.446
X94.97Y-91.066
X96.2Y-96.292
X96.2Y-103.912
X96.24Y-122.59
X96.24Y-130.21
X96.24Y-135.085
X96.24Y-142.705
X96.29Y-109.138
X96.29Y-116.758
X97.5Y-70.6
X97.5Y-78.22
X97.51Y-83.446
X97.51Y-91.066
X98.74Y-96.292
X98.74Y-103.912
X98.78Y-122.59
X98.78Y-130.21
X98.78Y-135.085
X98.78Y-142.705
X98.83Y-109.138
X98.83Y-116.758
X100.04Y-70.6
X100.04Y-78.22
X100.05Y-83.446
X100.05Y-91.066
X101.28Y-96.292
X101.28Y-103.912
X101.32Y-122.59
X101.32Y-130.21
X101.32Y-135.085
X101.32Y-142.705
X101.37Y-109.138
X101.37Y-116.758
X102.58Y-70.6
X102.58Y-78.22
X102.59Y-83.446
X102.59Y-91.066
X103.82Y-96.292
X103.82Y-103.912
X103.86Y-122.59
X103.86Y-130.21
X103.86Y-135.085
X103.86Y-142.705
X103.91Y-109.138
X103.91Y-116.758
X105.12Y-70.6
X105.12Y-78.22
X105.13Y-83.446
X105.13Y-91.066
X106.36Y-96.292
X106.36Y-103.912
X106.4Y-122.59
X106.4Y-130.21
X106.4Y-135.085
X106.4Y-142.705
X106.45Y-109.138
X106.45Y-116.758
X107.66Y-70.6
X107.66Y-78.22
X108.9Y-96.292
X108.9Y-103.912
X108.94Y-122.59
X108.94Y-130.21
X108.94Y-135.085
X108.94Y-142.705
X108.99Y-109.138
X108.99Y-116.758
X120.29Y-70.6
X120.29Y-78.22
X120.29Y-109.138
X120.29Y-116.758
X120.29Y-122.59
X120.29Y-130.21
X120.29Y-135.085
X120.29Y-142.705
X122.83Y-70.6
X122.83Y-78.22
X122.83Y-109.138
X122.83Y-116.758
X122.83Y-122.59
X122.83Y-130.21
X122.83Y-135.085
X122.83Y-142.705
X125.37Y-70.6
X125.37Y-78.22
X125.37Y-109.138
X125.37Y-116.758
X125.37Y-122.59
X125.37Y-130.21
X125.37Y-135.085
X125.37Y-142.705
X127.9Y-83.446
X127.9Y-91.066
X127.9Y-96.292
X127.9Y-103.912
X127.91Y-70.6
X127.91Y-78.22
X127.91Y-109.138
X127.91Y-116.758
X127.91Y-122.59
X127.91Y-130.21
X127.91Y-135.085
X127.91Y-142.705
X130.44Y-83.446
X130.44Y-91.066
X130.44Y-96.292
X130.44Y-103.912
X130.45Y-70.6
X130.45Y-78.22
X130.45Y-109.138
X130.45Y-116.758
X130.45Y-122.59
X130.45Y-130.21
X130.45Y-135.085
X130.45Y-142.705
X132.98Y-83.446
X132.98Y-91.066
X132.98Y-96.292
X132.98Y-103.912
X132.99Y-70.6
X132.99Y-78.22
X132.99Y-109.138
X132.99Y-116.758
X132.99Y-122.59
X132.99Y-130.21
X132.99Y-135.085
X132.99Y-142.705
X135.52Y-83.446
X135.52Y-91.066
X135.52Y-96.292
X135.52Y-103.912
X135.53Y-70.6
X135.53Y-78.22
X135.53Y-109.138
X135.53Y-116.758
X135.53Y-122.59
X135.53Y-130.21
X135.53Y-135.085
X135.53Y-142.705
X138.06Y-83.446
X138.06Y-91.066
X138.06Y-96.292
X138.06Y-103.912
X138.07Y-70.6
X138.07Y-78.22
X138.07Y-109.138
X138.07Y-116.758
X138.07Y-122.59
X138.07Y-130.21
X138.07Y-135.085
X138.07Y-142.705
X140.6Y-83.446
X140.6Y-91.066
X140.6Y-96.292
X140.6Y-103.912
X140.61Y-70.6
X140.61Y-78.22
X140.61Y-109.138
X140.61Y-116.758
X140.61Y-122.59
X140.61Y-130.21
X140.61Y-135.085
X140.61Y-142.705
X143.14Y-83.446
X143.14Y-91.066
X143.14Y-96.292
X143.14Y-103.912
X143.15Y-70.6
X143.15Y-78.22
X143.15Y-109.138
X143.15Y-116.758
X143.15Y-122.59
X143.15Y-130.21
X143.15Y-135.085
X143.15Y-142.705
T3
X57.51Y-57.785
X57.8Y-101.85
X57.8Y-104.39
X57.8Y-106.93
X57.8Y-109.47
X57.8Y-112.01
X57.8Y-114.55
X57.8Y-117.09
X57.8Y-119.63
X60.05Y-57.785
X62.59Y-57.785
X65.13Y-57.785
X67.67Y-57.785
X70.21Y-57.785
X72.75Y-57.785
X75.29Y-57.785
X79.91Y-57.785
X82.45Y-57.785
X84.99Y-57.785
X87.53Y-57.785
X90.07Y-57.785
X92.61Y-57.785
X95.15Y-57.785
X97.69Y-57.785
X102.36Y-57.785
X104.9Y-57.785
X107.44Y-57.785
X109.98Y-57.785
X112.52Y-57.785
X115.06Y-57.785
X117.6Y-57.785
X120.14Y-57.785
X124.8Y-57.8
X127.34Y-57.8
X129.88Y-57.8
X132.42Y-57.8
X134.96Y-57.8
X137.5Y-57.8
X140.04Y-57.8
X142.58Y-57.8
M30
