%TF.GenerationSoftware,KiCad,Pcbnew,9.0.6+dfsg-1*%
%TF.CreationDate,2025-12-05T21:57:08+01:00*%
%TF.ProjectId,ALU Modules,414c5520-4d6f-4647-956c-65732e6b6963,1.0*%
%TF.SameCoordinates,Original*%
%TF.FileFunction,Legend,Top*%
%TF.FilePolarity,Positive*%
%FSLAX46Y46*%
G04 Gerber Fmt 4.6, Leading zero omitted, Abs format (unit mm)*
G04 Created by KiCad (PCBNEW 9.0.6+dfsg-1) date 2025-12-05 21:57:08*
%MOMM*%
%LPD*%
G01*
G04 APERTURE LIST*
%ADD10C,0.187500*%
%ADD11C,0.300000*%
%ADD12C,0.150000*%
%ADD13C,0.125000*%
%ADD14C,0.100000*%
%ADD15C,0.120000*%
G04 APERTURE END LIST*
D10*
X84266212Y-119056678D02*
X84551926Y-119056678D01*
X84551926Y-119056678D02*
X84694783Y-119128107D01*
X84694783Y-119128107D02*
X84837640Y-119270964D01*
X84837640Y-119270964D02*
X84909069Y-119556678D01*
X84909069Y-119556678D02*
X84909069Y-120056678D01*
X84909069Y-120056678D02*
X84837640Y-120342392D01*
X84837640Y-120342392D02*
X84694783Y-120485250D01*
X84694783Y-120485250D02*
X84551926Y-120556678D01*
X84551926Y-120556678D02*
X84266212Y-120556678D01*
X84266212Y-120556678D02*
X84123355Y-120485250D01*
X84123355Y-120485250D02*
X83980497Y-120342392D01*
X83980497Y-120342392D02*
X83909069Y-120056678D01*
X83909069Y-120056678D02*
X83909069Y-119556678D01*
X83909069Y-119556678D02*
X83980497Y-119270964D01*
X83980497Y-119270964D02*
X84123355Y-119128107D01*
X84123355Y-119128107D02*
X84266212Y-119056678D01*
X85551926Y-120556678D02*
X85551926Y-119556678D01*
X85551926Y-119842392D02*
X85623355Y-119699535D01*
X85623355Y-119699535D02*
X85694784Y-119628107D01*
X85694784Y-119628107D02*
X85837641Y-119556678D01*
X85837641Y-119556678D02*
X85980498Y-119556678D01*
X87623354Y-120556678D02*
X87623354Y-119056678D01*
X87623354Y-119056678D02*
X88123354Y-120128107D01*
X88123354Y-120128107D02*
X88623354Y-119056678D01*
X88623354Y-119056678D02*
X88623354Y-120556678D01*
X89551926Y-120556678D02*
X89409069Y-120485250D01*
X89409069Y-120485250D02*
X89337640Y-120413821D01*
X89337640Y-120413821D02*
X89266212Y-120270964D01*
X89266212Y-120270964D02*
X89266212Y-119842392D01*
X89266212Y-119842392D02*
X89337640Y-119699535D01*
X89337640Y-119699535D02*
X89409069Y-119628107D01*
X89409069Y-119628107D02*
X89551926Y-119556678D01*
X89551926Y-119556678D02*
X89766212Y-119556678D01*
X89766212Y-119556678D02*
X89909069Y-119628107D01*
X89909069Y-119628107D02*
X89980498Y-119699535D01*
X89980498Y-119699535D02*
X90051926Y-119842392D01*
X90051926Y-119842392D02*
X90051926Y-120270964D01*
X90051926Y-120270964D02*
X89980498Y-120413821D01*
X89980498Y-120413821D02*
X89909069Y-120485250D01*
X89909069Y-120485250D02*
X89766212Y-120556678D01*
X89766212Y-120556678D02*
X89551926Y-120556678D01*
X91337641Y-120556678D02*
X91337641Y-119056678D01*
X91337641Y-120485250D02*
X91194783Y-120556678D01*
X91194783Y-120556678D02*
X90909069Y-120556678D01*
X90909069Y-120556678D02*
X90766212Y-120485250D01*
X90766212Y-120485250D02*
X90694783Y-120413821D01*
X90694783Y-120413821D02*
X90623355Y-120270964D01*
X90623355Y-120270964D02*
X90623355Y-119842392D01*
X90623355Y-119842392D02*
X90694783Y-119699535D01*
X90694783Y-119699535D02*
X90766212Y-119628107D01*
X90766212Y-119628107D02*
X90909069Y-119556678D01*
X90909069Y-119556678D02*
X91194783Y-119556678D01*
X91194783Y-119556678D02*
X91337641Y-119628107D01*
X92694784Y-119556678D02*
X92694784Y-120556678D01*
X92051926Y-119556678D02*
X92051926Y-120342392D01*
X92051926Y-120342392D02*
X92123355Y-120485250D01*
X92123355Y-120485250D02*
X92266212Y-120556678D01*
X92266212Y-120556678D02*
X92480498Y-120556678D01*
X92480498Y-120556678D02*
X92623355Y-120485250D01*
X92623355Y-120485250D02*
X92694784Y-120413821D01*
X93623355Y-120556678D02*
X93480498Y-120485250D01*
X93480498Y-120485250D02*
X93409069Y-120342392D01*
X93409069Y-120342392D02*
X93409069Y-119056678D01*
X94766212Y-120485250D02*
X94623355Y-120556678D01*
X94623355Y-120556678D02*
X94337641Y-120556678D01*
X94337641Y-120556678D02*
X94194783Y-120485250D01*
X94194783Y-120485250D02*
X94123355Y-120342392D01*
X94123355Y-120342392D02*
X94123355Y-119770964D01*
X94123355Y-119770964D02*
X94194783Y-119628107D01*
X94194783Y-119628107D02*
X94337641Y-119556678D01*
X94337641Y-119556678D02*
X94623355Y-119556678D01*
X94623355Y-119556678D02*
X94766212Y-119628107D01*
X94766212Y-119628107D02*
X94837641Y-119770964D01*
X94837641Y-119770964D02*
X94837641Y-119913821D01*
X94837641Y-119913821D02*
X94123355Y-120056678D01*
X75809069Y-67278107D02*
X76523355Y-67278107D01*
X75666212Y-67706678D02*
X76166212Y-66206678D01*
X76166212Y-66206678D02*
X76666212Y-67706678D01*
X77809069Y-67706678D02*
X77809069Y-66206678D01*
X77809069Y-67635250D02*
X77666211Y-67706678D01*
X77666211Y-67706678D02*
X77380497Y-67706678D01*
X77380497Y-67706678D02*
X77237640Y-67635250D01*
X77237640Y-67635250D02*
X77166211Y-67563821D01*
X77166211Y-67563821D02*
X77094783Y-67420964D01*
X77094783Y-67420964D02*
X77094783Y-66992392D01*
X77094783Y-66992392D02*
X77166211Y-66849535D01*
X77166211Y-66849535D02*
X77237640Y-66778107D01*
X77237640Y-66778107D02*
X77380497Y-66706678D01*
X77380497Y-66706678D02*
X77666211Y-66706678D01*
X77666211Y-66706678D02*
X77809069Y-66778107D01*
X79166212Y-67706678D02*
X79166212Y-66206678D01*
X79166212Y-67635250D02*
X79023354Y-67706678D01*
X79023354Y-67706678D02*
X78737640Y-67706678D01*
X78737640Y-67706678D02*
X78594783Y-67635250D01*
X78594783Y-67635250D02*
X78523354Y-67563821D01*
X78523354Y-67563821D02*
X78451926Y-67420964D01*
X78451926Y-67420964D02*
X78451926Y-66992392D01*
X78451926Y-66992392D02*
X78523354Y-66849535D01*
X78523354Y-66849535D02*
X78594783Y-66778107D01*
X78594783Y-66778107D02*
X78737640Y-66706678D01*
X78737640Y-66706678D02*
X79023354Y-66706678D01*
X79023354Y-66706678D02*
X79166212Y-66778107D01*
X79880497Y-67135250D02*
X81023355Y-67135250D01*
X81666212Y-67635250D02*
X81880498Y-67706678D01*
X81880498Y-67706678D02*
X82237640Y-67706678D01*
X82237640Y-67706678D02*
X82380498Y-67635250D01*
X82380498Y-67635250D02*
X82451926Y-67563821D01*
X82451926Y-67563821D02*
X82523355Y-67420964D01*
X82523355Y-67420964D02*
X82523355Y-67278107D01*
X82523355Y-67278107D02*
X82451926Y-67135250D01*
X82451926Y-67135250D02*
X82380498Y-67063821D01*
X82380498Y-67063821D02*
X82237640Y-66992392D01*
X82237640Y-66992392D02*
X81951926Y-66920964D01*
X81951926Y-66920964D02*
X81809069Y-66849535D01*
X81809069Y-66849535D02*
X81737640Y-66778107D01*
X81737640Y-66778107D02*
X81666212Y-66635250D01*
X81666212Y-66635250D02*
X81666212Y-66492392D01*
X81666212Y-66492392D02*
X81737640Y-66349535D01*
X81737640Y-66349535D02*
X81809069Y-66278107D01*
X81809069Y-66278107D02*
X81951926Y-66206678D01*
X81951926Y-66206678D02*
X82309069Y-66206678D01*
X82309069Y-66206678D02*
X82523355Y-66278107D01*
X83809069Y-66706678D02*
X83809069Y-67706678D01*
X83166211Y-66706678D02*
X83166211Y-67492392D01*
X83166211Y-67492392D02*
X83237640Y-67635250D01*
X83237640Y-67635250D02*
X83380497Y-67706678D01*
X83380497Y-67706678D02*
X83594783Y-67706678D01*
X83594783Y-67706678D02*
X83737640Y-67635250D01*
X83737640Y-67635250D02*
X83809069Y-67563821D01*
X84523354Y-67706678D02*
X84523354Y-66206678D01*
X84523354Y-66778107D02*
X84666212Y-66706678D01*
X84666212Y-66706678D02*
X84951926Y-66706678D01*
X84951926Y-66706678D02*
X85094783Y-66778107D01*
X85094783Y-66778107D02*
X85166212Y-66849535D01*
X85166212Y-66849535D02*
X85237640Y-66992392D01*
X85237640Y-66992392D02*
X85237640Y-67420964D01*
X85237640Y-67420964D02*
X85166212Y-67563821D01*
X85166212Y-67563821D02*
X85094783Y-67635250D01*
X85094783Y-67635250D02*
X84951926Y-67706678D01*
X84951926Y-67706678D02*
X84666212Y-67706678D01*
X84666212Y-67706678D02*
X84523354Y-67635250D01*
X87023354Y-67706678D02*
X87023354Y-66206678D01*
X87023354Y-66206678D02*
X87523354Y-67278107D01*
X87523354Y-67278107D02*
X88023354Y-66206678D01*
X88023354Y-66206678D02*
X88023354Y-67706678D01*
X88951926Y-67706678D02*
X88809069Y-67635250D01*
X88809069Y-67635250D02*
X88737640Y-67563821D01*
X88737640Y-67563821D02*
X88666212Y-67420964D01*
X88666212Y-67420964D02*
X88666212Y-66992392D01*
X88666212Y-66992392D02*
X88737640Y-66849535D01*
X88737640Y-66849535D02*
X88809069Y-66778107D01*
X88809069Y-66778107D02*
X88951926Y-66706678D01*
X88951926Y-66706678D02*
X89166212Y-66706678D01*
X89166212Y-66706678D02*
X89309069Y-66778107D01*
X89309069Y-66778107D02*
X89380498Y-66849535D01*
X89380498Y-66849535D02*
X89451926Y-66992392D01*
X89451926Y-66992392D02*
X89451926Y-67420964D01*
X89451926Y-67420964D02*
X89380498Y-67563821D01*
X89380498Y-67563821D02*
X89309069Y-67635250D01*
X89309069Y-67635250D02*
X89166212Y-67706678D01*
X89166212Y-67706678D02*
X88951926Y-67706678D01*
X90737641Y-67706678D02*
X90737641Y-66206678D01*
X90737641Y-67635250D02*
X90594783Y-67706678D01*
X90594783Y-67706678D02*
X90309069Y-67706678D01*
X90309069Y-67706678D02*
X90166212Y-67635250D01*
X90166212Y-67635250D02*
X90094783Y-67563821D01*
X90094783Y-67563821D02*
X90023355Y-67420964D01*
X90023355Y-67420964D02*
X90023355Y-66992392D01*
X90023355Y-66992392D02*
X90094783Y-66849535D01*
X90094783Y-66849535D02*
X90166212Y-66778107D01*
X90166212Y-66778107D02*
X90309069Y-66706678D01*
X90309069Y-66706678D02*
X90594783Y-66706678D01*
X90594783Y-66706678D02*
X90737641Y-66778107D01*
X92094784Y-66706678D02*
X92094784Y-67706678D01*
X91451926Y-66706678D02*
X91451926Y-67492392D01*
X91451926Y-67492392D02*
X91523355Y-67635250D01*
X91523355Y-67635250D02*
X91666212Y-67706678D01*
X91666212Y-67706678D02*
X91880498Y-67706678D01*
X91880498Y-67706678D02*
X92023355Y-67635250D01*
X92023355Y-67635250D02*
X92094784Y-67563821D01*
X93023355Y-67706678D02*
X92880498Y-67635250D01*
X92880498Y-67635250D02*
X92809069Y-67492392D01*
X92809069Y-67492392D02*
X92809069Y-66206678D01*
X94166212Y-67635250D02*
X94023355Y-67706678D01*
X94023355Y-67706678D02*
X93737641Y-67706678D01*
X93737641Y-67706678D02*
X93594783Y-67635250D01*
X93594783Y-67635250D02*
X93523355Y-67492392D01*
X93523355Y-67492392D02*
X93523355Y-66920964D01*
X93523355Y-66920964D02*
X93594783Y-66778107D01*
X93594783Y-66778107D02*
X93737641Y-66706678D01*
X93737641Y-66706678D02*
X94023355Y-66706678D01*
X94023355Y-66706678D02*
X94166212Y-66778107D01*
X94166212Y-66778107D02*
X94237641Y-66920964D01*
X94237641Y-66920964D02*
X94237641Y-67063821D01*
X94237641Y-67063821D02*
X93523355Y-67206678D01*
X83437640Y-131856678D02*
X84437640Y-133356678D01*
X84437640Y-131856678D02*
X83437640Y-133356678D01*
X85223354Y-133356678D02*
X85080497Y-133285250D01*
X85080497Y-133285250D02*
X85009068Y-133213821D01*
X85009068Y-133213821D02*
X84937640Y-133070964D01*
X84937640Y-133070964D02*
X84937640Y-132642392D01*
X84937640Y-132642392D02*
X85009068Y-132499535D01*
X85009068Y-132499535D02*
X85080497Y-132428107D01*
X85080497Y-132428107D02*
X85223354Y-132356678D01*
X85223354Y-132356678D02*
X85437640Y-132356678D01*
X85437640Y-132356678D02*
X85580497Y-132428107D01*
X85580497Y-132428107D02*
X85651926Y-132499535D01*
X85651926Y-132499535D02*
X85723354Y-132642392D01*
X85723354Y-132642392D02*
X85723354Y-133070964D01*
X85723354Y-133070964D02*
X85651926Y-133213821D01*
X85651926Y-133213821D02*
X85580497Y-133285250D01*
X85580497Y-133285250D02*
X85437640Y-133356678D01*
X85437640Y-133356678D02*
X85223354Y-133356678D01*
X86366211Y-133356678D02*
X86366211Y-132356678D01*
X86366211Y-132642392D02*
X86437640Y-132499535D01*
X86437640Y-132499535D02*
X86509069Y-132428107D01*
X86509069Y-132428107D02*
X86651926Y-132356678D01*
X86651926Y-132356678D02*
X86794783Y-132356678D01*
X88437639Y-133356678D02*
X88437639Y-131856678D01*
X88437639Y-131856678D02*
X88937639Y-132928107D01*
X88937639Y-132928107D02*
X89437639Y-131856678D01*
X89437639Y-131856678D02*
X89437639Y-133356678D01*
X90366211Y-133356678D02*
X90223354Y-133285250D01*
X90223354Y-133285250D02*
X90151925Y-133213821D01*
X90151925Y-133213821D02*
X90080497Y-133070964D01*
X90080497Y-133070964D02*
X90080497Y-132642392D01*
X90080497Y-132642392D02*
X90151925Y-132499535D01*
X90151925Y-132499535D02*
X90223354Y-132428107D01*
X90223354Y-132428107D02*
X90366211Y-132356678D01*
X90366211Y-132356678D02*
X90580497Y-132356678D01*
X90580497Y-132356678D02*
X90723354Y-132428107D01*
X90723354Y-132428107D02*
X90794783Y-132499535D01*
X90794783Y-132499535D02*
X90866211Y-132642392D01*
X90866211Y-132642392D02*
X90866211Y-133070964D01*
X90866211Y-133070964D02*
X90794783Y-133213821D01*
X90794783Y-133213821D02*
X90723354Y-133285250D01*
X90723354Y-133285250D02*
X90580497Y-133356678D01*
X90580497Y-133356678D02*
X90366211Y-133356678D01*
X92151926Y-133356678D02*
X92151926Y-131856678D01*
X92151926Y-133285250D02*
X92009068Y-133356678D01*
X92009068Y-133356678D02*
X91723354Y-133356678D01*
X91723354Y-133356678D02*
X91580497Y-133285250D01*
X91580497Y-133285250D02*
X91509068Y-133213821D01*
X91509068Y-133213821D02*
X91437640Y-133070964D01*
X91437640Y-133070964D02*
X91437640Y-132642392D01*
X91437640Y-132642392D02*
X91509068Y-132499535D01*
X91509068Y-132499535D02*
X91580497Y-132428107D01*
X91580497Y-132428107D02*
X91723354Y-132356678D01*
X91723354Y-132356678D02*
X92009068Y-132356678D01*
X92009068Y-132356678D02*
X92151926Y-132428107D01*
X93509069Y-132356678D02*
X93509069Y-133356678D01*
X92866211Y-132356678D02*
X92866211Y-133142392D01*
X92866211Y-133142392D02*
X92937640Y-133285250D01*
X92937640Y-133285250D02*
X93080497Y-133356678D01*
X93080497Y-133356678D02*
X93294783Y-133356678D01*
X93294783Y-133356678D02*
X93437640Y-133285250D01*
X93437640Y-133285250D02*
X93509069Y-133213821D01*
X94437640Y-133356678D02*
X94294783Y-133285250D01*
X94294783Y-133285250D02*
X94223354Y-133142392D01*
X94223354Y-133142392D02*
X94223354Y-131856678D01*
X95580497Y-133285250D02*
X95437640Y-133356678D01*
X95437640Y-133356678D02*
X95151926Y-133356678D01*
X95151926Y-133356678D02*
X95009068Y-133285250D01*
X95009068Y-133285250D02*
X94937640Y-133142392D01*
X94937640Y-133142392D02*
X94937640Y-132570964D01*
X94937640Y-132570964D02*
X95009068Y-132428107D01*
X95009068Y-132428107D02*
X95151926Y-132356678D01*
X95151926Y-132356678D02*
X95437640Y-132356678D01*
X95437640Y-132356678D02*
X95580497Y-132428107D01*
X95580497Y-132428107D02*
X95651926Y-132570964D01*
X95651926Y-132570964D02*
X95651926Y-132713821D01*
X95651926Y-132713821D02*
X94937640Y-132856678D01*
X128566212Y-92706678D02*
X128851926Y-92706678D01*
X128851926Y-92706678D02*
X128994783Y-92778107D01*
X128994783Y-92778107D02*
X129137640Y-92920964D01*
X129137640Y-92920964D02*
X129209069Y-93206678D01*
X129209069Y-93206678D02*
X129209069Y-93706678D01*
X129209069Y-93706678D02*
X129137640Y-93992392D01*
X129137640Y-93992392D02*
X128994783Y-94135250D01*
X128994783Y-94135250D02*
X128851926Y-94206678D01*
X128851926Y-94206678D02*
X128566212Y-94206678D01*
X128566212Y-94206678D02*
X128423355Y-94135250D01*
X128423355Y-94135250D02*
X128280497Y-93992392D01*
X128280497Y-93992392D02*
X128209069Y-93706678D01*
X128209069Y-93706678D02*
X128209069Y-93206678D01*
X128209069Y-93206678D02*
X128280497Y-92920964D01*
X128280497Y-92920964D02*
X128423355Y-92778107D01*
X128423355Y-92778107D02*
X128566212Y-92706678D01*
X129709069Y-93206678D02*
X130066212Y-94206678D01*
X130066212Y-94206678D02*
X130423355Y-93206678D01*
X131566212Y-94135250D02*
X131423355Y-94206678D01*
X131423355Y-94206678D02*
X131137641Y-94206678D01*
X131137641Y-94206678D02*
X130994783Y-94135250D01*
X130994783Y-94135250D02*
X130923355Y-93992392D01*
X130923355Y-93992392D02*
X130923355Y-93420964D01*
X130923355Y-93420964D02*
X130994783Y-93278107D01*
X130994783Y-93278107D02*
X131137641Y-93206678D01*
X131137641Y-93206678D02*
X131423355Y-93206678D01*
X131423355Y-93206678D02*
X131566212Y-93278107D01*
X131566212Y-93278107D02*
X131637641Y-93420964D01*
X131637641Y-93420964D02*
X131637641Y-93563821D01*
X131637641Y-93563821D02*
X130923355Y-93706678D01*
X132280497Y-94206678D02*
X132280497Y-93206678D01*
X132280497Y-93492392D02*
X132351926Y-93349535D01*
X132351926Y-93349535D02*
X132423355Y-93278107D01*
X132423355Y-93278107D02*
X132566212Y-93206678D01*
X132566212Y-93206678D02*
X132709069Y-93206678D01*
X132994783Y-93206678D02*
X133566211Y-93206678D01*
X133209068Y-94206678D02*
X133209068Y-92920964D01*
X133209068Y-92920964D02*
X133280497Y-92778107D01*
X133280497Y-92778107D02*
X133423354Y-92706678D01*
X133423354Y-92706678D02*
X133566211Y-92706678D01*
X134280497Y-94206678D02*
X134137640Y-94135250D01*
X134137640Y-94135250D02*
X134066211Y-93992392D01*
X134066211Y-93992392D02*
X134066211Y-92706678D01*
X135066211Y-94206678D02*
X134923354Y-94135250D01*
X134923354Y-94135250D02*
X134851925Y-94063821D01*
X134851925Y-94063821D02*
X134780497Y-93920964D01*
X134780497Y-93920964D02*
X134780497Y-93492392D01*
X134780497Y-93492392D02*
X134851925Y-93349535D01*
X134851925Y-93349535D02*
X134923354Y-93278107D01*
X134923354Y-93278107D02*
X135066211Y-93206678D01*
X135066211Y-93206678D02*
X135280497Y-93206678D01*
X135280497Y-93206678D02*
X135423354Y-93278107D01*
X135423354Y-93278107D02*
X135494783Y-93349535D01*
X135494783Y-93349535D02*
X135566211Y-93492392D01*
X135566211Y-93492392D02*
X135566211Y-93920964D01*
X135566211Y-93920964D02*
X135494783Y-94063821D01*
X135494783Y-94063821D02*
X135423354Y-94135250D01*
X135423354Y-94135250D02*
X135280497Y-94206678D01*
X135280497Y-94206678D02*
X135066211Y-94206678D01*
X136066211Y-93206678D02*
X136351926Y-94206678D01*
X136351926Y-94206678D02*
X136637640Y-93492392D01*
X136637640Y-93492392D02*
X136923354Y-94206678D01*
X136923354Y-94206678D02*
X137209068Y-93206678D01*
X139423354Y-93420964D02*
X138923354Y-93420964D01*
X138923354Y-94206678D02*
X138923354Y-92706678D01*
X138923354Y-92706678D02*
X139637640Y-92706678D01*
X140423354Y-94206678D02*
X140280497Y-94135250D01*
X140280497Y-94135250D02*
X140209068Y-93992392D01*
X140209068Y-93992392D02*
X140209068Y-92706678D01*
X141637640Y-94206678D02*
X141637640Y-93420964D01*
X141637640Y-93420964D02*
X141566211Y-93278107D01*
X141566211Y-93278107D02*
X141423354Y-93206678D01*
X141423354Y-93206678D02*
X141137640Y-93206678D01*
X141137640Y-93206678D02*
X140994782Y-93278107D01*
X141637640Y-94135250D02*
X141494782Y-94206678D01*
X141494782Y-94206678D02*
X141137640Y-94206678D01*
X141137640Y-94206678D02*
X140994782Y-94135250D01*
X140994782Y-94135250D02*
X140923354Y-93992392D01*
X140923354Y-93992392D02*
X140923354Y-93849535D01*
X140923354Y-93849535D02*
X140994782Y-93706678D01*
X140994782Y-93706678D02*
X141137640Y-93635250D01*
X141137640Y-93635250D02*
X141494782Y-93635250D01*
X141494782Y-93635250D02*
X141637640Y-93563821D01*
X142994783Y-93206678D02*
X142994783Y-94420964D01*
X142994783Y-94420964D02*
X142923354Y-94563821D01*
X142923354Y-94563821D02*
X142851925Y-94635250D01*
X142851925Y-94635250D02*
X142709068Y-94706678D01*
X142709068Y-94706678D02*
X142494783Y-94706678D01*
X142494783Y-94706678D02*
X142351925Y-94635250D01*
X142994783Y-94135250D02*
X142851925Y-94206678D01*
X142851925Y-94206678D02*
X142566211Y-94206678D01*
X142566211Y-94206678D02*
X142423354Y-94135250D01*
X142423354Y-94135250D02*
X142351925Y-94063821D01*
X142351925Y-94063821D02*
X142280497Y-93920964D01*
X142280497Y-93920964D02*
X142280497Y-93492392D01*
X142280497Y-93492392D02*
X142351925Y-93349535D01*
X142351925Y-93349535D02*
X142423354Y-93278107D01*
X142423354Y-93278107D02*
X142566211Y-93206678D01*
X142566211Y-93206678D02*
X142851925Y-93206678D01*
X142851925Y-93206678D02*
X142994783Y-93278107D01*
D11*
X53572257Y-95116917D02*
X53572257Y-94402632D01*
X54000828Y-95259774D02*
X52500828Y-94759774D01*
X52500828Y-94759774D02*
X54000828Y-94259774D01*
X54000828Y-93545489D02*
X53929400Y-93688346D01*
X53929400Y-93688346D02*
X53786542Y-93759775D01*
X53786542Y-93759775D02*
X52500828Y-93759775D01*
X53000828Y-92331204D02*
X54000828Y-92331204D01*
X53000828Y-92974061D02*
X53786542Y-92974061D01*
X53786542Y-92974061D02*
X53929400Y-92902632D01*
X53929400Y-92902632D02*
X54000828Y-92759775D01*
X54000828Y-92759775D02*
X54000828Y-92545489D01*
X54000828Y-92545489D02*
X53929400Y-92402632D01*
X53929400Y-92402632D02*
X53857971Y-92331204D01*
X54000828Y-90474061D02*
X52500828Y-90474061D01*
X52500828Y-90474061D02*
X53572257Y-89974061D01*
X53572257Y-89974061D02*
X52500828Y-89474061D01*
X52500828Y-89474061D02*
X54000828Y-89474061D01*
X54000828Y-88545489D02*
X53929400Y-88688346D01*
X53929400Y-88688346D02*
X53857971Y-88759775D01*
X53857971Y-88759775D02*
X53715114Y-88831203D01*
X53715114Y-88831203D02*
X53286542Y-88831203D01*
X53286542Y-88831203D02*
X53143685Y-88759775D01*
X53143685Y-88759775D02*
X53072257Y-88688346D01*
X53072257Y-88688346D02*
X53000828Y-88545489D01*
X53000828Y-88545489D02*
X53000828Y-88331203D01*
X53000828Y-88331203D02*
X53072257Y-88188346D01*
X53072257Y-88188346D02*
X53143685Y-88116918D01*
X53143685Y-88116918D02*
X53286542Y-88045489D01*
X53286542Y-88045489D02*
X53715114Y-88045489D01*
X53715114Y-88045489D02*
X53857971Y-88116918D01*
X53857971Y-88116918D02*
X53929400Y-88188346D01*
X53929400Y-88188346D02*
X54000828Y-88331203D01*
X54000828Y-88331203D02*
X54000828Y-88545489D01*
X54000828Y-86759775D02*
X52500828Y-86759775D01*
X53929400Y-86759775D02*
X54000828Y-86902632D01*
X54000828Y-86902632D02*
X54000828Y-87188346D01*
X54000828Y-87188346D02*
X53929400Y-87331203D01*
X53929400Y-87331203D02*
X53857971Y-87402632D01*
X53857971Y-87402632D02*
X53715114Y-87474060D01*
X53715114Y-87474060D02*
X53286542Y-87474060D01*
X53286542Y-87474060D02*
X53143685Y-87402632D01*
X53143685Y-87402632D02*
X53072257Y-87331203D01*
X53072257Y-87331203D02*
X53000828Y-87188346D01*
X53000828Y-87188346D02*
X53000828Y-86902632D01*
X53000828Y-86902632D02*
X53072257Y-86759775D01*
X53000828Y-85402632D02*
X54000828Y-85402632D01*
X53000828Y-86045489D02*
X53786542Y-86045489D01*
X53786542Y-86045489D02*
X53929400Y-85974060D01*
X53929400Y-85974060D02*
X54000828Y-85831203D01*
X54000828Y-85831203D02*
X54000828Y-85616917D01*
X54000828Y-85616917D02*
X53929400Y-85474060D01*
X53929400Y-85474060D02*
X53857971Y-85402632D01*
X54000828Y-84474060D02*
X53929400Y-84616917D01*
X53929400Y-84616917D02*
X53786542Y-84688346D01*
X53786542Y-84688346D02*
X52500828Y-84688346D01*
X53929400Y-83331203D02*
X54000828Y-83474060D01*
X54000828Y-83474060D02*
X54000828Y-83759775D01*
X54000828Y-83759775D02*
X53929400Y-83902632D01*
X53929400Y-83902632D02*
X53786542Y-83974060D01*
X53786542Y-83974060D02*
X53215114Y-83974060D01*
X53215114Y-83974060D02*
X53072257Y-83902632D01*
X53072257Y-83902632D02*
X53000828Y-83759775D01*
X53000828Y-83759775D02*
X53000828Y-83474060D01*
X53000828Y-83474060D02*
X53072257Y-83331203D01*
X53072257Y-83331203D02*
X53215114Y-83259775D01*
X53215114Y-83259775D02*
X53357971Y-83259775D01*
X53357971Y-83259775D02*
X53500828Y-83974060D01*
X53929400Y-82688346D02*
X54000828Y-82545489D01*
X54000828Y-82545489D02*
X54000828Y-82259775D01*
X54000828Y-82259775D02*
X53929400Y-82116918D01*
X53929400Y-82116918D02*
X53786542Y-82045489D01*
X53786542Y-82045489D02*
X53715114Y-82045489D01*
X53715114Y-82045489D02*
X53572257Y-82116918D01*
X53572257Y-82116918D02*
X53500828Y-82259775D01*
X53500828Y-82259775D02*
X53500828Y-82474061D01*
X53500828Y-82474061D02*
X53429400Y-82616918D01*
X53429400Y-82616918D02*
X53286542Y-82688346D01*
X53286542Y-82688346D02*
X53215114Y-82688346D01*
X53215114Y-82688346D02*
X53072257Y-82616918D01*
X53072257Y-82616918D02*
X53000828Y-82474061D01*
X53000828Y-82474061D02*
X53000828Y-82259775D01*
X53000828Y-82259775D02*
X53072257Y-82116918D01*
X53000828Y-80402632D02*
X54000828Y-80045489D01*
X54000828Y-80045489D02*
X53000828Y-79688346D01*
X54000828Y-78331203D02*
X54000828Y-79188346D01*
X54000828Y-78759775D02*
X52500828Y-78759775D01*
X52500828Y-78759775D02*
X52715114Y-78902632D01*
X52715114Y-78902632D02*
X52857971Y-79045489D01*
X52857971Y-79045489D02*
X52929400Y-79188346D01*
X53857971Y-77688347D02*
X53929400Y-77616918D01*
X53929400Y-77616918D02*
X54000828Y-77688347D01*
X54000828Y-77688347D02*
X53929400Y-77759775D01*
X53929400Y-77759775D02*
X53857971Y-77688347D01*
X53857971Y-77688347D02*
X54000828Y-77688347D01*
X52500828Y-76688346D02*
X52500828Y-76545489D01*
X52500828Y-76545489D02*
X52572257Y-76402632D01*
X52572257Y-76402632D02*
X52643685Y-76331204D01*
X52643685Y-76331204D02*
X52786542Y-76259775D01*
X52786542Y-76259775D02*
X53072257Y-76188346D01*
X53072257Y-76188346D02*
X53429400Y-76188346D01*
X53429400Y-76188346D02*
X53715114Y-76259775D01*
X53715114Y-76259775D02*
X53857971Y-76331204D01*
X53857971Y-76331204D02*
X53929400Y-76402632D01*
X53929400Y-76402632D02*
X54000828Y-76545489D01*
X54000828Y-76545489D02*
X54000828Y-76688346D01*
X54000828Y-76688346D02*
X53929400Y-76831204D01*
X53929400Y-76831204D02*
X53857971Y-76902632D01*
X53857971Y-76902632D02*
X53715114Y-76974061D01*
X53715114Y-76974061D02*
X53429400Y-77045489D01*
X53429400Y-77045489D02*
X53072257Y-77045489D01*
X53072257Y-77045489D02*
X52786542Y-76974061D01*
X52786542Y-76974061D02*
X52643685Y-76902632D01*
X52643685Y-76902632D02*
X52572257Y-76831204D01*
X52572257Y-76831204D02*
X52500828Y-76688346D01*
D10*
X79937640Y-80106678D02*
X80937640Y-80106678D01*
X80937640Y-80106678D02*
X79937640Y-81606678D01*
X79937640Y-81606678D02*
X80937640Y-81606678D01*
X82080497Y-81535250D02*
X81937640Y-81606678D01*
X81937640Y-81606678D02*
X81651926Y-81606678D01*
X81651926Y-81606678D02*
X81509068Y-81535250D01*
X81509068Y-81535250D02*
X81437640Y-81392392D01*
X81437640Y-81392392D02*
X81437640Y-80820964D01*
X81437640Y-80820964D02*
X81509068Y-80678107D01*
X81509068Y-80678107D02*
X81651926Y-80606678D01*
X81651926Y-80606678D02*
X81937640Y-80606678D01*
X81937640Y-80606678D02*
X82080497Y-80678107D01*
X82080497Y-80678107D02*
X82151926Y-80820964D01*
X82151926Y-80820964D02*
X82151926Y-80963821D01*
X82151926Y-80963821D02*
X81437640Y-81106678D01*
X82794782Y-81606678D02*
X82794782Y-80606678D01*
X82794782Y-80892392D02*
X82866211Y-80749535D01*
X82866211Y-80749535D02*
X82937640Y-80678107D01*
X82937640Y-80678107D02*
X83080497Y-80606678D01*
X83080497Y-80606678D02*
X83223354Y-80606678D01*
X83937639Y-81606678D02*
X83794782Y-81535250D01*
X83794782Y-81535250D02*
X83723353Y-81463821D01*
X83723353Y-81463821D02*
X83651925Y-81320964D01*
X83651925Y-81320964D02*
X83651925Y-80892392D01*
X83651925Y-80892392D02*
X83723353Y-80749535D01*
X83723353Y-80749535D02*
X83794782Y-80678107D01*
X83794782Y-80678107D02*
X83937639Y-80606678D01*
X83937639Y-80606678D02*
X84151925Y-80606678D01*
X84151925Y-80606678D02*
X84294782Y-80678107D01*
X84294782Y-80678107D02*
X84366211Y-80749535D01*
X84366211Y-80749535D02*
X84437639Y-80892392D01*
X84437639Y-80892392D02*
X84437639Y-81320964D01*
X84437639Y-81320964D02*
X84366211Y-81463821D01*
X84366211Y-81463821D02*
X84294782Y-81535250D01*
X84294782Y-81535250D02*
X84151925Y-81606678D01*
X84151925Y-81606678D02*
X83937639Y-81606678D01*
X86723353Y-80820964D02*
X86223353Y-80820964D01*
X86223353Y-81606678D02*
X86223353Y-80106678D01*
X86223353Y-80106678D02*
X86937639Y-80106678D01*
X87723353Y-81606678D02*
X87580496Y-81535250D01*
X87580496Y-81535250D02*
X87509067Y-81392392D01*
X87509067Y-81392392D02*
X87509067Y-80106678D01*
X88937639Y-81606678D02*
X88937639Y-80820964D01*
X88937639Y-80820964D02*
X88866210Y-80678107D01*
X88866210Y-80678107D02*
X88723353Y-80606678D01*
X88723353Y-80606678D02*
X88437639Y-80606678D01*
X88437639Y-80606678D02*
X88294781Y-80678107D01*
X88937639Y-81535250D02*
X88794781Y-81606678D01*
X88794781Y-81606678D02*
X88437639Y-81606678D01*
X88437639Y-81606678D02*
X88294781Y-81535250D01*
X88294781Y-81535250D02*
X88223353Y-81392392D01*
X88223353Y-81392392D02*
X88223353Y-81249535D01*
X88223353Y-81249535D02*
X88294781Y-81106678D01*
X88294781Y-81106678D02*
X88437639Y-81035250D01*
X88437639Y-81035250D02*
X88794781Y-81035250D01*
X88794781Y-81035250D02*
X88937639Y-80963821D01*
X90294782Y-80606678D02*
X90294782Y-81820964D01*
X90294782Y-81820964D02*
X90223353Y-81963821D01*
X90223353Y-81963821D02*
X90151924Y-82035250D01*
X90151924Y-82035250D02*
X90009067Y-82106678D01*
X90009067Y-82106678D02*
X89794782Y-82106678D01*
X89794782Y-82106678D02*
X89651924Y-82035250D01*
X90294782Y-81535250D02*
X90151924Y-81606678D01*
X90151924Y-81606678D02*
X89866210Y-81606678D01*
X89866210Y-81606678D02*
X89723353Y-81535250D01*
X89723353Y-81535250D02*
X89651924Y-81463821D01*
X89651924Y-81463821D02*
X89580496Y-81320964D01*
X89580496Y-81320964D02*
X89580496Y-80892392D01*
X89580496Y-80892392D02*
X89651924Y-80749535D01*
X89651924Y-80749535D02*
X89723353Y-80678107D01*
X89723353Y-80678107D02*
X89866210Y-80606678D01*
X89866210Y-80606678D02*
X90151924Y-80606678D01*
X90151924Y-80606678D02*
X90294782Y-80678107D01*
X83209069Y-106928107D02*
X83923355Y-106928107D01*
X83066212Y-107356678D02*
X83566212Y-105856678D01*
X83566212Y-105856678D02*
X84066212Y-107356678D01*
X84566211Y-106356678D02*
X84566211Y-107356678D01*
X84566211Y-106499535D02*
X84637640Y-106428107D01*
X84637640Y-106428107D02*
X84780497Y-106356678D01*
X84780497Y-106356678D02*
X84994783Y-106356678D01*
X84994783Y-106356678D02*
X85137640Y-106428107D01*
X85137640Y-106428107D02*
X85209069Y-106570964D01*
X85209069Y-106570964D02*
X85209069Y-107356678D01*
X86566212Y-107356678D02*
X86566212Y-105856678D01*
X86566212Y-107285250D02*
X86423354Y-107356678D01*
X86423354Y-107356678D02*
X86137640Y-107356678D01*
X86137640Y-107356678D02*
X85994783Y-107285250D01*
X85994783Y-107285250D02*
X85923354Y-107213821D01*
X85923354Y-107213821D02*
X85851926Y-107070964D01*
X85851926Y-107070964D02*
X85851926Y-106642392D01*
X85851926Y-106642392D02*
X85923354Y-106499535D01*
X85923354Y-106499535D02*
X85994783Y-106428107D01*
X85994783Y-106428107D02*
X86137640Y-106356678D01*
X86137640Y-106356678D02*
X86423354Y-106356678D01*
X86423354Y-106356678D02*
X86566212Y-106428107D01*
X88423354Y-107356678D02*
X88423354Y-105856678D01*
X88423354Y-105856678D02*
X88923354Y-106928107D01*
X88923354Y-106928107D02*
X89423354Y-105856678D01*
X89423354Y-105856678D02*
X89423354Y-107356678D01*
X90351926Y-107356678D02*
X90209069Y-107285250D01*
X90209069Y-107285250D02*
X90137640Y-107213821D01*
X90137640Y-107213821D02*
X90066212Y-107070964D01*
X90066212Y-107070964D02*
X90066212Y-106642392D01*
X90066212Y-106642392D02*
X90137640Y-106499535D01*
X90137640Y-106499535D02*
X90209069Y-106428107D01*
X90209069Y-106428107D02*
X90351926Y-106356678D01*
X90351926Y-106356678D02*
X90566212Y-106356678D01*
X90566212Y-106356678D02*
X90709069Y-106428107D01*
X90709069Y-106428107D02*
X90780498Y-106499535D01*
X90780498Y-106499535D02*
X90851926Y-106642392D01*
X90851926Y-106642392D02*
X90851926Y-107070964D01*
X90851926Y-107070964D02*
X90780498Y-107213821D01*
X90780498Y-107213821D02*
X90709069Y-107285250D01*
X90709069Y-107285250D02*
X90566212Y-107356678D01*
X90566212Y-107356678D02*
X90351926Y-107356678D01*
X92137641Y-107356678D02*
X92137641Y-105856678D01*
X92137641Y-107285250D02*
X91994783Y-107356678D01*
X91994783Y-107356678D02*
X91709069Y-107356678D01*
X91709069Y-107356678D02*
X91566212Y-107285250D01*
X91566212Y-107285250D02*
X91494783Y-107213821D01*
X91494783Y-107213821D02*
X91423355Y-107070964D01*
X91423355Y-107070964D02*
X91423355Y-106642392D01*
X91423355Y-106642392D02*
X91494783Y-106499535D01*
X91494783Y-106499535D02*
X91566212Y-106428107D01*
X91566212Y-106428107D02*
X91709069Y-106356678D01*
X91709069Y-106356678D02*
X91994783Y-106356678D01*
X91994783Y-106356678D02*
X92137641Y-106428107D01*
X93494784Y-106356678D02*
X93494784Y-107356678D01*
X92851926Y-106356678D02*
X92851926Y-107142392D01*
X92851926Y-107142392D02*
X92923355Y-107285250D01*
X92923355Y-107285250D02*
X93066212Y-107356678D01*
X93066212Y-107356678D02*
X93280498Y-107356678D01*
X93280498Y-107356678D02*
X93423355Y-107285250D01*
X93423355Y-107285250D02*
X93494784Y-107213821D01*
X94423355Y-107356678D02*
X94280498Y-107285250D01*
X94280498Y-107285250D02*
X94209069Y-107142392D01*
X94209069Y-107142392D02*
X94209069Y-105856678D01*
X95566212Y-107285250D02*
X95423355Y-107356678D01*
X95423355Y-107356678D02*
X95137641Y-107356678D01*
X95137641Y-107356678D02*
X94994783Y-107285250D01*
X94994783Y-107285250D02*
X94923355Y-107142392D01*
X94923355Y-107142392D02*
X94923355Y-106570964D01*
X94923355Y-106570964D02*
X94994783Y-106428107D01*
X94994783Y-106428107D02*
X95137641Y-106356678D01*
X95137641Y-106356678D02*
X95423355Y-106356678D01*
X95423355Y-106356678D02*
X95566212Y-106428107D01*
X95566212Y-106428107D02*
X95637641Y-106570964D01*
X95637641Y-106570964D02*
X95637641Y-106713821D01*
X95637641Y-106713821D02*
X94923355Y-106856678D01*
D12*
X67124819Y-140133094D02*
X67934342Y-140133094D01*
X67934342Y-140133094D02*
X68029580Y-140085475D01*
X68029580Y-140085475D02*
X68077200Y-140037856D01*
X68077200Y-140037856D02*
X68124819Y-139942618D01*
X68124819Y-139942618D02*
X68124819Y-139752142D01*
X68124819Y-139752142D02*
X68077200Y-139656904D01*
X68077200Y-139656904D02*
X68029580Y-139609285D01*
X68029580Y-139609285D02*
X67934342Y-139561666D01*
X67934342Y-139561666D02*
X67124819Y-139561666D01*
X68124819Y-138561666D02*
X68124819Y-139133094D01*
X68124819Y-138847380D02*
X67124819Y-138847380D01*
X67124819Y-138847380D02*
X67267676Y-138942618D01*
X67267676Y-138942618D02*
X67362914Y-139037856D01*
X67362914Y-139037856D02*
X67410533Y-139133094D01*
X67124819Y-138228332D02*
X67124819Y-137561666D01*
X67124819Y-137561666D02*
X68124819Y-137990237D01*
X87024819Y-141537856D02*
X87024819Y-140871190D01*
X87024819Y-140871190D02*
X88024819Y-141299761D01*
X87358152Y-140061666D02*
X88024819Y-140061666D01*
X86977200Y-140299761D02*
X87691485Y-140537856D01*
X87691485Y-140537856D02*
X87691485Y-139918809D01*
X88024819Y-139061666D02*
X88024819Y-139537856D01*
X88024819Y-139537856D02*
X87024819Y-139537856D01*
X87977200Y-138775951D02*
X88024819Y-138633094D01*
X88024819Y-138633094D02*
X88024819Y-138394999D01*
X88024819Y-138394999D02*
X87977200Y-138299761D01*
X87977200Y-138299761D02*
X87929580Y-138252142D01*
X87929580Y-138252142D02*
X87834342Y-138204523D01*
X87834342Y-138204523D02*
X87739104Y-138204523D01*
X87739104Y-138204523D02*
X87643866Y-138252142D01*
X87643866Y-138252142D02*
X87596247Y-138299761D01*
X87596247Y-138299761D02*
X87548628Y-138394999D01*
X87548628Y-138394999D02*
X87501009Y-138585475D01*
X87501009Y-138585475D02*
X87453390Y-138680713D01*
X87453390Y-138680713D02*
X87405771Y-138728332D01*
X87405771Y-138728332D02*
X87310533Y-138775951D01*
X87310533Y-138775951D02*
X87215295Y-138775951D01*
X87215295Y-138775951D02*
X87120057Y-138728332D01*
X87120057Y-138728332D02*
X87072438Y-138680713D01*
X87072438Y-138680713D02*
X87024819Y-138585475D01*
X87024819Y-138585475D02*
X87024819Y-138347380D01*
X87024819Y-138347380D02*
X87072438Y-138204523D01*
X87453390Y-137633094D02*
X87405771Y-137728332D01*
X87405771Y-137728332D02*
X87358152Y-137775951D01*
X87358152Y-137775951D02*
X87262914Y-137823570D01*
X87262914Y-137823570D02*
X87215295Y-137823570D01*
X87215295Y-137823570D02*
X87120057Y-137775951D01*
X87120057Y-137775951D02*
X87072438Y-137728332D01*
X87072438Y-137728332D02*
X87024819Y-137633094D01*
X87024819Y-137633094D02*
X87024819Y-137442618D01*
X87024819Y-137442618D02*
X87072438Y-137347380D01*
X87072438Y-137347380D02*
X87120057Y-137299761D01*
X87120057Y-137299761D02*
X87215295Y-137252142D01*
X87215295Y-137252142D02*
X87262914Y-137252142D01*
X87262914Y-137252142D02*
X87358152Y-137299761D01*
X87358152Y-137299761D02*
X87405771Y-137347380D01*
X87405771Y-137347380D02*
X87453390Y-137442618D01*
X87453390Y-137442618D02*
X87453390Y-137633094D01*
X87453390Y-137633094D02*
X87501009Y-137728332D01*
X87501009Y-137728332D02*
X87548628Y-137775951D01*
X87548628Y-137775951D02*
X87643866Y-137823570D01*
X87643866Y-137823570D02*
X87834342Y-137823570D01*
X87834342Y-137823570D02*
X87929580Y-137775951D01*
X87929580Y-137775951D02*
X87977200Y-137728332D01*
X87977200Y-137728332D02*
X88024819Y-137633094D01*
X88024819Y-137633094D02*
X88024819Y-137442618D01*
X88024819Y-137442618D02*
X87977200Y-137347380D01*
X87977200Y-137347380D02*
X87929580Y-137299761D01*
X87929580Y-137299761D02*
X87834342Y-137252142D01*
X87834342Y-137252142D02*
X87643866Y-137252142D01*
X87643866Y-137252142D02*
X87548628Y-137299761D01*
X87548628Y-137299761D02*
X87501009Y-137347380D01*
X87501009Y-137347380D02*
X87453390Y-137442618D01*
X87024819Y-136394999D02*
X87024819Y-136585475D01*
X87024819Y-136585475D02*
X87072438Y-136680713D01*
X87072438Y-136680713D02*
X87120057Y-136728332D01*
X87120057Y-136728332D02*
X87262914Y-136823570D01*
X87262914Y-136823570D02*
X87453390Y-136871189D01*
X87453390Y-136871189D02*
X87834342Y-136871189D01*
X87834342Y-136871189D02*
X87929580Y-136823570D01*
X87929580Y-136823570D02*
X87977200Y-136775951D01*
X87977200Y-136775951D02*
X88024819Y-136680713D01*
X88024819Y-136680713D02*
X88024819Y-136490237D01*
X88024819Y-136490237D02*
X87977200Y-136394999D01*
X87977200Y-136394999D02*
X87929580Y-136347380D01*
X87929580Y-136347380D02*
X87834342Y-136299761D01*
X87834342Y-136299761D02*
X87596247Y-136299761D01*
X87596247Y-136299761D02*
X87501009Y-136347380D01*
X87501009Y-136347380D02*
X87453390Y-136394999D01*
X87453390Y-136394999D02*
X87405771Y-136490237D01*
X87405771Y-136490237D02*
X87405771Y-136680713D01*
X87405771Y-136680713D02*
X87453390Y-136775951D01*
X87453390Y-136775951D02*
X87501009Y-136823570D01*
X87501009Y-136823570D02*
X87596247Y-136871189D01*
X87014819Y-88017904D02*
X87824342Y-88017904D01*
X87824342Y-88017904D02*
X87919580Y-87970285D01*
X87919580Y-87970285D02*
X87967200Y-87922666D01*
X87967200Y-87922666D02*
X88014819Y-87827428D01*
X88014819Y-87827428D02*
X88014819Y-87636952D01*
X88014819Y-87636952D02*
X87967200Y-87541714D01*
X87967200Y-87541714D02*
X87919580Y-87494095D01*
X87919580Y-87494095D02*
X87824342Y-87446476D01*
X87824342Y-87446476D02*
X87014819Y-87446476D01*
X87014819Y-87065523D02*
X87014819Y-86446476D01*
X87014819Y-86446476D02*
X87395771Y-86779809D01*
X87395771Y-86779809D02*
X87395771Y-86636952D01*
X87395771Y-86636952D02*
X87443390Y-86541714D01*
X87443390Y-86541714D02*
X87491009Y-86494095D01*
X87491009Y-86494095D02*
X87586247Y-86446476D01*
X87586247Y-86446476D02*
X87824342Y-86446476D01*
X87824342Y-86446476D02*
X87919580Y-86494095D01*
X87919580Y-86494095D02*
X87967200Y-86541714D01*
X87967200Y-86541714D02*
X88014819Y-86636952D01*
X88014819Y-86636952D02*
X88014819Y-86922666D01*
X88014819Y-86922666D02*
X87967200Y-87017904D01*
X87967200Y-87017904D02*
X87919580Y-87065523D01*
X106914819Y-89898856D02*
X106914819Y-89232190D01*
X106914819Y-89232190D02*
X107914819Y-89660761D01*
X107248152Y-88422666D02*
X107914819Y-88422666D01*
X106867200Y-88660761D02*
X107581485Y-88898856D01*
X107581485Y-88898856D02*
X107581485Y-88279809D01*
X107914819Y-87422666D02*
X107914819Y-87898856D01*
X107914819Y-87898856D02*
X106914819Y-87898856D01*
X107867200Y-87136951D02*
X107914819Y-86994094D01*
X107914819Y-86994094D02*
X107914819Y-86755999D01*
X107914819Y-86755999D02*
X107867200Y-86660761D01*
X107867200Y-86660761D02*
X107819580Y-86613142D01*
X107819580Y-86613142D02*
X107724342Y-86565523D01*
X107724342Y-86565523D02*
X107629104Y-86565523D01*
X107629104Y-86565523D02*
X107533866Y-86613142D01*
X107533866Y-86613142D02*
X107486247Y-86660761D01*
X107486247Y-86660761D02*
X107438628Y-86755999D01*
X107438628Y-86755999D02*
X107391009Y-86946475D01*
X107391009Y-86946475D02*
X107343390Y-87041713D01*
X107343390Y-87041713D02*
X107295771Y-87089332D01*
X107295771Y-87089332D02*
X107200533Y-87136951D01*
X107200533Y-87136951D02*
X107105295Y-87136951D01*
X107105295Y-87136951D02*
X107010057Y-87089332D01*
X107010057Y-87089332D02*
X106962438Y-87041713D01*
X106962438Y-87041713D02*
X106914819Y-86946475D01*
X106914819Y-86946475D02*
X106914819Y-86708380D01*
X106914819Y-86708380D02*
X106962438Y-86565523D01*
X106914819Y-86232189D02*
X106914819Y-85613142D01*
X106914819Y-85613142D02*
X107295771Y-85946475D01*
X107295771Y-85946475D02*
X107295771Y-85803618D01*
X107295771Y-85803618D02*
X107343390Y-85708380D01*
X107343390Y-85708380D02*
X107391009Y-85660761D01*
X107391009Y-85660761D02*
X107486247Y-85613142D01*
X107486247Y-85613142D02*
X107724342Y-85613142D01*
X107724342Y-85613142D02*
X107819580Y-85660761D01*
X107819580Y-85660761D02*
X107867200Y-85708380D01*
X107867200Y-85708380D02*
X107914819Y-85803618D01*
X107914819Y-85803618D02*
X107914819Y-86089332D01*
X107914819Y-86089332D02*
X107867200Y-86184570D01*
X107867200Y-86184570D02*
X107819580Y-86232189D01*
X107010057Y-85232189D02*
X106962438Y-85184570D01*
X106962438Y-85184570D02*
X106914819Y-85089332D01*
X106914819Y-85089332D02*
X106914819Y-84851237D01*
X106914819Y-84851237D02*
X106962438Y-84755999D01*
X106962438Y-84755999D02*
X107010057Y-84708380D01*
X107010057Y-84708380D02*
X107105295Y-84660761D01*
X107105295Y-84660761D02*
X107200533Y-84660761D01*
X107200533Y-84660761D02*
X107343390Y-84708380D01*
X107343390Y-84708380D02*
X107914819Y-85279808D01*
X107914819Y-85279808D02*
X107914819Y-84660761D01*
X90824819Y-140133094D02*
X91634342Y-140133094D01*
X91634342Y-140133094D02*
X91729580Y-140085475D01*
X91729580Y-140085475D02*
X91777200Y-140037856D01*
X91777200Y-140037856D02*
X91824819Y-139942618D01*
X91824819Y-139942618D02*
X91824819Y-139752142D01*
X91824819Y-139752142D02*
X91777200Y-139656904D01*
X91777200Y-139656904D02*
X91729580Y-139609285D01*
X91729580Y-139609285D02*
X91634342Y-139561666D01*
X91634342Y-139561666D02*
X90824819Y-139561666D01*
X91824819Y-138561666D02*
X91824819Y-139133094D01*
X91824819Y-138847380D02*
X90824819Y-138847380D01*
X90824819Y-138847380D02*
X90967676Y-138942618D01*
X90967676Y-138942618D02*
X91062914Y-139037856D01*
X91062914Y-139037856D02*
X91110533Y-139133094D01*
X90824819Y-137704523D02*
X90824819Y-137894999D01*
X90824819Y-137894999D02*
X90872438Y-137990237D01*
X90872438Y-137990237D02*
X90920057Y-138037856D01*
X90920057Y-138037856D02*
X91062914Y-138133094D01*
X91062914Y-138133094D02*
X91253390Y-138180713D01*
X91253390Y-138180713D02*
X91634342Y-138180713D01*
X91634342Y-138180713D02*
X91729580Y-138133094D01*
X91729580Y-138133094D02*
X91777200Y-138085475D01*
X91777200Y-138085475D02*
X91824819Y-137990237D01*
X91824819Y-137990237D02*
X91824819Y-137799761D01*
X91824819Y-137799761D02*
X91777200Y-137704523D01*
X91777200Y-137704523D02*
X91729580Y-137656904D01*
X91729580Y-137656904D02*
X91634342Y-137609285D01*
X91634342Y-137609285D02*
X91396247Y-137609285D01*
X91396247Y-137609285D02*
X91301009Y-137656904D01*
X91301009Y-137656904D02*
X91253390Y-137704523D01*
X91253390Y-137704523D02*
X91205771Y-137799761D01*
X91205771Y-137799761D02*
X91205771Y-137990237D01*
X91205771Y-137990237D02*
X91253390Y-138085475D01*
X91253390Y-138085475D02*
X91301009Y-138133094D01*
X91301009Y-138133094D02*
X91396247Y-138180713D01*
X110724819Y-141537856D02*
X110724819Y-140871190D01*
X110724819Y-140871190D02*
X111724819Y-141299761D01*
X111058152Y-140061666D02*
X111724819Y-140061666D01*
X110677200Y-140299761D02*
X111391485Y-140537856D01*
X111391485Y-140537856D02*
X111391485Y-139918809D01*
X111724819Y-139061666D02*
X111724819Y-139537856D01*
X111724819Y-139537856D02*
X110724819Y-139537856D01*
X111677200Y-138775951D02*
X111724819Y-138633094D01*
X111724819Y-138633094D02*
X111724819Y-138394999D01*
X111724819Y-138394999D02*
X111677200Y-138299761D01*
X111677200Y-138299761D02*
X111629580Y-138252142D01*
X111629580Y-138252142D02*
X111534342Y-138204523D01*
X111534342Y-138204523D02*
X111439104Y-138204523D01*
X111439104Y-138204523D02*
X111343866Y-138252142D01*
X111343866Y-138252142D02*
X111296247Y-138299761D01*
X111296247Y-138299761D02*
X111248628Y-138394999D01*
X111248628Y-138394999D02*
X111201009Y-138585475D01*
X111201009Y-138585475D02*
X111153390Y-138680713D01*
X111153390Y-138680713D02*
X111105771Y-138728332D01*
X111105771Y-138728332D02*
X111010533Y-138775951D01*
X111010533Y-138775951D02*
X110915295Y-138775951D01*
X110915295Y-138775951D02*
X110820057Y-138728332D01*
X110820057Y-138728332D02*
X110772438Y-138680713D01*
X110772438Y-138680713D02*
X110724819Y-138585475D01*
X110724819Y-138585475D02*
X110724819Y-138347380D01*
X110724819Y-138347380D02*
X110772438Y-138204523D01*
X111153390Y-137633094D02*
X111105771Y-137728332D01*
X111105771Y-137728332D02*
X111058152Y-137775951D01*
X111058152Y-137775951D02*
X110962914Y-137823570D01*
X110962914Y-137823570D02*
X110915295Y-137823570D01*
X110915295Y-137823570D02*
X110820057Y-137775951D01*
X110820057Y-137775951D02*
X110772438Y-137728332D01*
X110772438Y-137728332D02*
X110724819Y-137633094D01*
X110724819Y-137633094D02*
X110724819Y-137442618D01*
X110724819Y-137442618D02*
X110772438Y-137347380D01*
X110772438Y-137347380D02*
X110820057Y-137299761D01*
X110820057Y-137299761D02*
X110915295Y-137252142D01*
X110915295Y-137252142D02*
X110962914Y-137252142D01*
X110962914Y-137252142D02*
X111058152Y-137299761D01*
X111058152Y-137299761D02*
X111105771Y-137347380D01*
X111105771Y-137347380D02*
X111153390Y-137442618D01*
X111153390Y-137442618D02*
X111153390Y-137633094D01*
X111153390Y-137633094D02*
X111201009Y-137728332D01*
X111201009Y-137728332D02*
X111248628Y-137775951D01*
X111248628Y-137775951D02*
X111343866Y-137823570D01*
X111343866Y-137823570D02*
X111534342Y-137823570D01*
X111534342Y-137823570D02*
X111629580Y-137775951D01*
X111629580Y-137775951D02*
X111677200Y-137728332D01*
X111677200Y-137728332D02*
X111724819Y-137633094D01*
X111724819Y-137633094D02*
X111724819Y-137442618D01*
X111724819Y-137442618D02*
X111677200Y-137347380D01*
X111677200Y-137347380D02*
X111629580Y-137299761D01*
X111629580Y-137299761D02*
X111534342Y-137252142D01*
X111534342Y-137252142D02*
X111343866Y-137252142D01*
X111343866Y-137252142D02*
X111248628Y-137299761D01*
X111248628Y-137299761D02*
X111201009Y-137347380D01*
X111201009Y-137347380D02*
X111153390Y-137442618D01*
X110724819Y-136394999D02*
X110724819Y-136585475D01*
X110724819Y-136585475D02*
X110772438Y-136680713D01*
X110772438Y-136680713D02*
X110820057Y-136728332D01*
X110820057Y-136728332D02*
X110962914Y-136823570D01*
X110962914Y-136823570D02*
X111153390Y-136871189D01*
X111153390Y-136871189D02*
X111534342Y-136871189D01*
X111534342Y-136871189D02*
X111629580Y-136823570D01*
X111629580Y-136823570D02*
X111677200Y-136775951D01*
X111677200Y-136775951D02*
X111724819Y-136680713D01*
X111724819Y-136680713D02*
X111724819Y-136490237D01*
X111724819Y-136490237D02*
X111677200Y-136394999D01*
X111677200Y-136394999D02*
X111629580Y-136347380D01*
X111629580Y-136347380D02*
X111534342Y-136299761D01*
X111534342Y-136299761D02*
X111296247Y-136299761D01*
X111296247Y-136299761D02*
X111201009Y-136347380D01*
X111201009Y-136347380D02*
X111153390Y-136394999D01*
X111153390Y-136394999D02*
X111105771Y-136490237D01*
X111105771Y-136490237D02*
X111105771Y-136680713D01*
X111105771Y-136680713D02*
X111153390Y-136775951D01*
X111153390Y-136775951D02*
X111201009Y-136823570D01*
X111201009Y-136823570D02*
X111296247Y-136871189D01*
X67124819Y-127638094D02*
X67934342Y-127638094D01*
X67934342Y-127638094D02*
X68029580Y-127590475D01*
X68029580Y-127590475D02*
X68077200Y-127542856D01*
X68077200Y-127542856D02*
X68124819Y-127447618D01*
X68124819Y-127447618D02*
X68124819Y-127257142D01*
X68124819Y-127257142D02*
X68077200Y-127161904D01*
X68077200Y-127161904D02*
X68029580Y-127114285D01*
X68029580Y-127114285D02*
X67934342Y-127066666D01*
X67934342Y-127066666D02*
X67124819Y-127066666D01*
X68124819Y-126066666D02*
X68124819Y-126638094D01*
X68124819Y-126352380D02*
X67124819Y-126352380D01*
X67124819Y-126352380D02*
X67267676Y-126447618D01*
X67267676Y-126447618D02*
X67362914Y-126542856D01*
X67362914Y-126542856D02*
X67410533Y-126638094D01*
X67458152Y-125209523D02*
X68124819Y-125209523D01*
X67077200Y-125447618D02*
X67791485Y-125685713D01*
X67791485Y-125685713D02*
X67791485Y-125066666D01*
X87024819Y-129042856D02*
X87024819Y-128376190D01*
X87024819Y-128376190D02*
X88024819Y-128804761D01*
X87358152Y-127566666D02*
X88024819Y-127566666D01*
X86977200Y-127804761D02*
X87691485Y-128042856D01*
X87691485Y-128042856D02*
X87691485Y-127423809D01*
X88024819Y-126566666D02*
X88024819Y-127042856D01*
X88024819Y-127042856D02*
X87024819Y-127042856D01*
X87977200Y-126280951D02*
X88024819Y-126138094D01*
X88024819Y-126138094D02*
X88024819Y-125899999D01*
X88024819Y-125899999D02*
X87977200Y-125804761D01*
X87977200Y-125804761D02*
X87929580Y-125757142D01*
X87929580Y-125757142D02*
X87834342Y-125709523D01*
X87834342Y-125709523D02*
X87739104Y-125709523D01*
X87739104Y-125709523D02*
X87643866Y-125757142D01*
X87643866Y-125757142D02*
X87596247Y-125804761D01*
X87596247Y-125804761D02*
X87548628Y-125899999D01*
X87548628Y-125899999D02*
X87501009Y-126090475D01*
X87501009Y-126090475D02*
X87453390Y-126185713D01*
X87453390Y-126185713D02*
X87405771Y-126233332D01*
X87405771Y-126233332D02*
X87310533Y-126280951D01*
X87310533Y-126280951D02*
X87215295Y-126280951D01*
X87215295Y-126280951D02*
X87120057Y-126233332D01*
X87120057Y-126233332D02*
X87072438Y-126185713D01*
X87072438Y-126185713D02*
X87024819Y-126090475D01*
X87024819Y-126090475D02*
X87024819Y-125852380D01*
X87024819Y-125852380D02*
X87072438Y-125709523D01*
X87024819Y-125376189D02*
X87024819Y-124757142D01*
X87024819Y-124757142D02*
X87405771Y-125090475D01*
X87405771Y-125090475D02*
X87405771Y-124947618D01*
X87405771Y-124947618D02*
X87453390Y-124852380D01*
X87453390Y-124852380D02*
X87501009Y-124804761D01*
X87501009Y-124804761D02*
X87596247Y-124757142D01*
X87596247Y-124757142D02*
X87834342Y-124757142D01*
X87834342Y-124757142D02*
X87929580Y-124804761D01*
X87929580Y-124804761D02*
X87977200Y-124852380D01*
X87977200Y-124852380D02*
X88024819Y-124947618D01*
X88024819Y-124947618D02*
X88024819Y-125233332D01*
X88024819Y-125233332D02*
X87977200Y-125328570D01*
X87977200Y-125328570D02*
X87929580Y-125376189D01*
X87120057Y-124376189D02*
X87072438Y-124328570D01*
X87072438Y-124328570D02*
X87024819Y-124233332D01*
X87024819Y-124233332D02*
X87024819Y-123995237D01*
X87024819Y-123995237D02*
X87072438Y-123899999D01*
X87072438Y-123899999D02*
X87120057Y-123852380D01*
X87120057Y-123852380D02*
X87215295Y-123804761D01*
X87215295Y-123804761D02*
X87310533Y-123804761D01*
X87310533Y-123804761D02*
X87453390Y-123852380D01*
X87453390Y-123852380D02*
X88024819Y-124423808D01*
X88024819Y-124423808D02*
X88024819Y-123804761D01*
X90784819Y-100863904D02*
X91594342Y-100863904D01*
X91594342Y-100863904D02*
X91689580Y-100816285D01*
X91689580Y-100816285D02*
X91737200Y-100768666D01*
X91737200Y-100768666D02*
X91784819Y-100673428D01*
X91784819Y-100673428D02*
X91784819Y-100482952D01*
X91784819Y-100482952D02*
X91737200Y-100387714D01*
X91737200Y-100387714D02*
X91689580Y-100340095D01*
X91689580Y-100340095D02*
X91594342Y-100292476D01*
X91594342Y-100292476D02*
X90784819Y-100292476D01*
X90784819Y-99911523D02*
X90784819Y-99244857D01*
X90784819Y-99244857D02*
X91784819Y-99673428D01*
X110684819Y-102744856D02*
X110684819Y-102078190D01*
X110684819Y-102078190D02*
X111684819Y-102506761D01*
X111018152Y-101268666D02*
X111684819Y-101268666D01*
X110637200Y-101506761D02*
X111351485Y-101744856D01*
X111351485Y-101744856D02*
X111351485Y-101125809D01*
X111684819Y-100268666D02*
X111684819Y-100744856D01*
X111684819Y-100744856D02*
X110684819Y-100744856D01*
X111637200Y-99982951D02*
X111684819Y-99840094D01*
X111684819Y-99840094D02*
X111684819Y-99601999D01*
X111684819Y-99601999D02*
X111637200Y-99506761D01*
X111637200Y-99506761D02*
X111589580Y-99459142D01*
X111589580Y-99459142D02*
X111494342Y-99411523D01*
X111494342Y-99411523D02*
X111399104Y-99411523D01*
X111399104Y-99411523D02*
X111303866Y-99459142D01*
X111303866Y-99459142D02*
X111256247Y-99506761D01*
X111256247Y-99506761D02*
X111208628Y-99601999D01*
X111208628Y-99601999D02*
X111161009Y-99792475D01*
X111161009Y-99792475D02*
X111113390Y-99887713D01*
X111113390Y-99887713D02*
X111065771Y-99935332D01*
X111065771Y-99935332D02*
X110970533Y-99982951D01*
X110970533Y-99982951D02*
X110875295Y-99982951D01*
X110875295Y-99982951D02*
X110780057Y-99935332D01*
X110780057Y-99935332D02*
X110732438Y-99887713D01*
X110732438Y-99887713D02*
X110684819Y-99792475D01*
X110684819Y-99792475D02*
X110684819Y-99554380D01*
X110684819Y-99554380D02*
X110732438Y-99411523D01*
X111113390Y-98840094D02*
X111065771Y-98935332D01*
X111065771Y-98935332D02*
X111018152Y-98982951D01*
X111018152Y-98982951D02*
X110922914Y-99030570D01*
X110922914Y-99030570D02*
X110875295Y-99030570D01*
X110875295Y-99030570D02*
X110780057Y-98982951D01*
X110780057Y-98982951D02*
X110732438Y-98935332D01*
X110732438Y-98935332D02*
X110684819Y-98840094D01*
X110684819Y-98840094D02*
X110684819Y-98649618D01*
X110684819Y-98649618D02*
X110732438Y-98554380D01*
X110732438Y-98554380D02*
X110780057Y-98506761D01*
X110780057Y-98506761D02*
X110875295Y-98459142D01*
X110875295Y-98459142D02*
X110922914Y-98459142D01*
X110922914Y-98459142D02*
X111018152Y-98506761D01*
X111018152Y-98506761D02*
X111065771Y-98554380D01*
X111065771Y-98554380D02*
X111113390Y-98649618D01*
X111113390Y-98649618D02*
X111113390Y-98840094D01*
X111113390Y-98840094D02*
X111161009Y-98935332D01*
X111161009Y-98935332D02*
X111208628Y-98982951D01*
X111208628Y-98982951D02*
X111303866Y-99030570D01*
X111303866Y-99030570D02*
X111494342Y-99030570D01*
X111494342Y-99030570D02*
X111589580Y-98982951D01*
X111589580Y-98982951D02*
X111637200Y-98935332D01*
X111637200Y-98935332D02*
X111684819Y-98840094D01*
X111684819Y-98840094D02*
X111684819Y-98649618D01*
X111684819Y-98649618D02*
X111637200Y-98554380D01*
X111637200Y-98554380D02*
X111589580Y-98506761D01*
X111589580Y-98506761D02*
X111494342Y-98459142D01*
X111494342Y-98459142D02*
X111303866Y-98459142D01*
X111303866Y-98459142D02*
X111208628Y-98506761D01*
X111208628Y-98506761D02*
X111161009Y-98554380D01*
X111161009Y-98554380D02*
X111113390Y-98649618D01*
X110684819Y-97601999D02*
X110684819Y-97792475D01*
X110684819Y-97792475D02*
X110732438Y-97887713D01*
X110732438Y-97887713D02*
X110780057Y-97935332D01*
X110780057Y-97935332D02*
X110922914Y-98030570D01*
X110922914Y-98030570D02*
X111113390Y-98078189D01*
X111113390Y-98078189D02*
X111494342Y-98078189D01*
X111494342Y-98078189D02*
X111589580Y-98030570D01*
X111589580Y-98030570D02*
X111637200Y-97982951D01*
X111637200Y-97982951D02*
X111684819Y-97887713D01*
X111684819Y-97887713D02*
X111684819Y-97697237D01*
X111684819Y-97697237D02*
X111637200Y-97601999D01*
X111637200Y-97601999D02*
X111589580Y-97554380D01*
X111589580Y-97554380D02*
X111494342Y-97506761D01*
X111494342Y-97506761D02*
X111256247Y-97506761D01*
X111256247Y-97506761D02*
X111161009Y-97554380D01*
X111161009Y-97554380D02*
X111113390Y-97601999D01*
X111113390Y-97601999D02*
X111065771Y-97697237D01*
X111065771Y-97697237D02*
X111065771Y-97887713D01*
X111065771Y-97887713D02*
X111113390Y-97982951D01*
X111113390Y-97982951D02*
X111161009Y-98030570D01*
X111161009Y-98030570D02*
X111256247Y-98078189D01*
X90874819Y-114186094D02*
X91684342Y-114186094D01*
X91684342Y-114186094D02*
X91779580Y-114138475D01*
X91779580Y-114138475D02*
X91827200Y-114090856D01*
X91827200Y-114090856D02*
X91874819Y-113995618D01*
X91874819Y-113995618D02*
X91874819Y-113805142D01*
X91874819Y-113805142D02*
X91827200Y-113709904D01*
X91827200Y-113709904D02*
X91779580Y-113662285D01*
X91779580Y-113662285D02*
X91684342Y-113614666D01*
X91684342Y-113614666D02*
X90874819Y-113614666D01*
X91874819Y-112614666D02*
X91874819Y-113186094D01*
X91874819Y-112900380D02*
X90874819Y-112900380D01*
X90874819Y-112900380D02*
X91017676Y-112995618D01*
X91017676Y-112995618D02*
X91112914Y-113090856D01*
X91112914Y-113090856D02*
X91160533Y-113186094D01*
X91874819Y-111662285D02*
X91874819Y-112233713D01*
X91874819Y-111947999D02*
X90874819Y-111947999D01*
X90874819Y-111947999D02*
X91017676Y-112043237D01*
X91017676Y-112043237D02*
X91112914Y-112138475D01*
X91112914Y-112138475D02*
X91160533Y-112233713D01*
X110774819Y-115590856D02*
X110774819Y-114924190D01*
X110774819Y-114924190D02*
X111774819Y-115352761D01*
X111108152Y-114114666D02*
X111774819Y-114114666D01*
X110727200Y-114352761D02*
X111441485Y-114590856D01*
X111441485Y-114590856D02*
X111441485Y-113971809D01*
X111774819Y-113114666D02*
X111774819Y-113590856D01*
X111774819Y-113590856D02*
X110774819Y-113590856D01*
X111727200Y-112828951D02*
X111774819Y-112686094D01*
X111774819Y-112686094D02*
X111774819Y-112447999D01*
X111774819Y-112447999D02*
X111727200Y-112352761D01*
X111727200Y-112352761D02*
X111679580Y-112305142D01*
X111679580Y-112305142D02*
X111584342Y-112257523D01*
X111584342Y-112257523D02*
X111489104Y-112257523D01*
X111489104Y-112257523D02*
X111393866Y-112305142D01*
X111393866Y-112305142D02*
X111346247Y-112352761D01*
X111346247Y-112352761D02*
X111298628Y-112447999D01*
X111298628Y-112447999D02*
X111251009Y-112638475D01*
X111251009Y-112638475D02*
X111203390Y-112733713D01*
X111203390Y-112733713D02*
X111155771Y-112781332D01*
X111155771Y-112781332D02*
X111060533Y-112828951D01*
X111060533Y-112828951D02*
X110965295Y-112828951D01*
X110965295Y-112828951D02*
X110870057Y-112781332D01*
X110870057Y-112781332D02*
X110822438Y-112733713D01*
X110822438Y-112733713D02*
X110774819Y-112638475D01*
X110774819Y-112638475D02*
X110774819Y-112400380D01*
X110774819Y-112400380D02*
X110822438Y-112257523D01*
X110774819Y-111638475D02*
X110774819Y-111543237D01*
X110774819Y-111543237D02*
X110822438Y-111447999D01*
X110822438Y-111447999D02*
X110870057Y-111400380D01*
X110870057Y-111400380D02*
X110965295Y-111352761D01*
X110965295Y-111352761D02*
X111155771Y-111305142D01*
X111155771Y-111305142D02*
X111393866Y-111305142D01*
X111393866Y-111305142D02*
X111584342Y-111352761D01*
X111584342Y-111352761D02*
X111679580Y-111400380D01*
X111679580Y-111400380D02*
X111727200Y-111447999D01*
X111727200Y-111447999D02*
X111774819Y-111543237D01*
X111774819Y-111543237D02*
X111774819Y-111638475D01*
X111774819Y-111638475D02*
X111727200Y-111733713D01*
X111727200Y-111733713D02*
X111679580Y-111781332D01*
X111679580Y-111781332D02*
X111584342Y-111828951D01*
X111584342Y-111828951D02*
X111393866Y-111876570D01*
X111393866Y-111876570D02*
X111155771Y-111876570D01*
X111155771Y-111876570D02*
X110965295Y-111828951D01*
X110965295Y-111828951D02*
X110870057Y-111781332D01*
X110870057Y-111781332D02*
X110822438Y-111733713D01*
X110822438Y-111733713D02*
X110774819Y-111638475D01*
X111203390Y-110733713D02*
X111155771Y-110828951D01*
X111155771Y-110828951D02*
X111108152Y-110876570D01*
X111108152Y-110876570D02*
X111012914Y-110924189D01*
X111012914Y-110924189D02*
X110965295Y-110924189D01*
X110965295Y-110924189D02*
X110870057Y-110876570D01*
X110870057Y-110876570D02*
X110822438Y-110828951D01*
X110822438Y-110828951D02*
X110774819Y-110733713D01*
X110774819Y-110733713D02*
X110774819Y-110543237D01*
X110774819Y-110543237D02*
X110822438Y-110447999D01*
X110822438Y-110447999D02*
X110870057Y-110400380D01*
X110870057Y-110400380D02*
X110965295Y-110352761D01*
X110965295Y-110352761D02*
X111012914Y-110352761D01*
X111012914Y-110352761D02*
X111108152Y-110400380D01*
X111108152Y-110400380D02*
X111155771Y-110447999D01*
X111155771Y-110447999D02*
X111203390Y-110543237D01*
X111203390Y-110543237D02*
X111203390Y-110733713D01*
X111203390Y-110733713D02*
X111251009Y-110828951D01*
X111251009Y-110828951D02*
X111298628Y-110876570D01*
X111298628Y-110876570D02*
X111393866Y-110924189D01*
X111393866Y-110924189D02*
X111584342Y-110924189D01*
X111584342Y-110924189D02*
X111679580Y-110876570D01*
X111679580Y-110876570D02*
X111727200Y-110828951D01*
X111727200Y-110828951D02*
X111774819Y-110733713D01*
X111774819Y-110733713D02*
X111774819Y-110543237D01*
X111774819Y-110543237D02*
X111727200Y-110447999D01*
X111727200Y-110447999D02*
X111679580Y-110400380D01*
X111679580Y-110400380D02*
X111584342Y-110352761D01*
X111584342Y-110352761D02*
X111393866Y-110352761D01*
X111393866Y-110352761D02*
X111298628Y-110400380D01*
X111298628Y-110400380D02*
X111251009Y-110447999D01*
X111251009Y-110447999D02*
X111203390Y-110543237D01*
X90824819Y-127638094D02*
X91634342Y-127638094D01*
X91634342Y-127638094D02*
X91729580Y-127590475D01*
X91729580Y-127590475D02*
X91777200Y-127542856D01*
X91777200Y-127542856D02*
X91824819Y-127447618D01*
X91824819Y-127447618D02*
X91824819Y-127257142D01*
X91824819Y-127257142D02*
X91777200Y-127161904D01*
X91777200Y-127161904D02*
X91729580Y-127114285D01*
X91729580Y-127114285D02*
X91634342Y-127066666D01*
X91634342Y-127066666D02*
X90824819Y-127066666D01*
X91824819Y-126066666D02*
X91824819Y-126638094D01*
X91824819Y-126352380D02*
X90824819Y-126352380D01*
X90824819Y-126352380D02*
X90967676Y-126447618D01*
X90967676Y-126447618D02*
X91062914Y-126542856D01*
X91062914Y-126542856D02*
X91110533Y-126638094D01*
X90824819Y-125733332D02*
X90824819Y-125114285D01*
X90824819Y-125114285D02*
X91205771Y-125447618D01*
X91205771Y-125447618D02*
X91205771Y-125304761D01*
X91205771Y-125304761D02*
X91253390Y-125209523D01*
X91253390Y-125209523D02*
X91301009Y-125161904D01*
X91301009Y-125161904D02*
X91396247Y-125114285D01*
X91396247Y-125114285D02*
X91634342Y-125114285D01*
X91634342Y-125114285D02*
X91729580Y-125161904D01*
X91729580Y-125161904D02*
X91777200Y-125209523D01*
X91777200Y-125209523D02*
X91824819Y-125304761D01*
X91824819Y-125304761D02*
X91824819Y-125590475D01*
X91824819Y-125590475D02*
X91777200Y-125685713D01*
X91777200Y-125685713D02*
X91729580Y-125733332D01*
X110724819Y-129042856D02*
X110724819Y-128376190D01*
X110724819Y-128376190D02*
X111724819Y-128804761D01*
X111058152Y-127566666D02*
X111724819Y-127566666D01*
X110677200Y-127804761D02*
X111391485Y-128042856D01*
X111391485Y-128042856D02*
X111391485Y-127423809D01*
X111724819Y-126566666D02*
X111724819Y-127042856D01*
X111724819Y-127042856D02*
X110724819Y-127042856D01*
X111677200Y-126280951D02*
X111724819Y-126138094D01*
X111724819Y-126138094D02*
X111724819Y-125899999D01*
X111724819Y-125899999D02*
X111677200Y-125804761D01*
X111677200Y-125804761D02*
X111629580Y-125757142D01*
X111629580Y-125757142D02*
X111534342Y-125709523D01*
X111534342Y-125709523D02*
X111439104Y-125709523D01*
X111439104Y-125709523D02*
X111343866Y-125757142D01*
X111343866Y-125757142D02*
X111296247Y-125804761D01*
X111296247Y-125804761D02*
X111248628Y-125899999D01*
X111248628Y-125899999D02*
X111201009Y-126090475D01*
X111201009Y-126090475D02*
X111153390Y-126185713D01*
X111153390Y-126185713D02*
X111105771Y-126233332D01*
X111105771Y-126233332D02*
X111010533Y-126280951D01*
X111010533Y-126280951D02*
X110915295Y-126280951D01*
X110915295Y-126280951D02*
X110820057Y-126233332D01*
X110820057Y-126233332D02*
X110772438Y-126185713D01*
X110772438Y-126185713D02*
X110724819Y-126090475D01*
X110724819Y-126090475D02*
X110724819Y-125852380D01*
X110724819Y-125852380D02*
X110772438Y-125709523D01*
X110724819Y-125376189D02*
X110724819Y-124757142D01*
X110724819Y-124757142D02*
X111105771Y-125090475D01*
X111105771Y-125090475D02*
X111105771Y-124947618D01*
X111105771Y-124947618D02*
X111153390Y-124852380D01*
X111153390Y-124852380D02*
X111201009Y-124804761D01*
X111201009Y-124804761D02*
X111296247Y-124757142D01*
X111296247Y-124757142D02*
X111534342Y-124757142D01*
X111534342Y-124757142D02*
X111629580Y-124804761D01*
X111629580Y-124804761D02*
X111677200Y-124852380D01*
X111677200Y-124852380D02*
X111724819Y-124947618D01*
X111724819Y-124947618D02*
X111724819Y-125233332D01*
X111724819Y-125233332D02*
X111677200Y-125328570D01*
X111677200Y-125328570D02*
X111629580Y-125376189D01*
X110820057Y-124376189D02*
X110772438Y-124328570D01*
X110772438Y-124328570D02*
X110724819Y-124233332D01*
X110724819Y-124233332D02*
X110724819Y-123995237D01*
X110724819Y-123995237D02*
X110772438Y-123899999D01*
X110772438Y-123899999D02*
X110820057Y-123852380D01*
X110820057Y-123852380D02*
X110915295Y-123804761D01*
X110915295Y-123804761D02*
X111010533Y-123804761D01*
X111010533Y-123804761D02*
X111153390Y-123852380D01*
X111153390Y-123852380D02*
X111724819Y-124423808D01*
X111724819Y-124423808D02*
X111724819Y-123804761D01*
X66894819Y-114186094D02*
X67704342Y-114186094D01*
X67704342Y-114186094D02*
X67799580Y-114138475D01*
X67799580Y-114138475D02*
X67847200Y-114090856D01*
X67847200Y-114090856D02*
X67894819Y-113995618D01*
X67894819Y-113995618D02*
X67894819Y-113805142D01*
X67894819Y-113805142D02*
X67847200Y-113709904D01*
X67847200Y-113709904D02*
X67799580Y-113662285D01*
X67799580Y-113662285D02*
X67704342Y-113614666D01*
X67704342Y-113614666D02*
X66894819Y-113614666D01*
X67894819Y-112614666D02*
X67894819Y-113186094D01*
X67894819Y-112900380D02*
X66894819Y-112900380D01*
X66894819Y-112900380D02*
X67037676Y-112995618D01*
X67037676Y-112995618D02*
X67132914Y-113090856D01*
X67132914Y-113090856D02*
X67180533Y-113186094D01*
X66894819Y-111995618D02*
X66894819Y-111900380D01*
X66894819Y-111900380D02*
X66942438Y-111805142D01*
X66942438Y-111805142D02*
X66990057Y-111757523D01*
X66990057Y-111757523D02*
X67085295Y-111709904D01*
X67085295Y-111709904D02*
X67275771Y-111662285D01*
X67275771Y-111662285D02*
X67513866Y-111662285D01*
X67513866Y-111662285D02*
X67704342Y-111709904D01*
X67704342Y-111709904D02*
X67799580Y-111757523D01*
X67799580Y-111757523D02*
X67847200Y-111805142D01*
X67847200Y-111805142D02*
X67894819Y-111900380D01*
X67894819Y-111900380D02*
X67894819Y-111995618D01*
X67894819Y-111995618D02*
X67847200Y-112090856D01*
X67847200Y-112090856D02*
X67799580Y-112138475D01*
X67799580Y-112138475D02*
X67704342Y-112186094D01*
X67704342Y-112186094D02*
X67513866Y-112233713D01*
X67513866Y-112233713D02*
X67275771Y-112233713D01*
X67275771Y-112233713D02*
X67085295Y-112186094D01*
X67085295Y-112186094D02*
X66990057Y-112138475D01*
X66990057Y-112138475D02*
X66942438Y-112090856D01*
X66942438Y-112090856D02*
X66894819Y-111995618D01*
X86794819Y-115590856D02*
X86794819Y-114924190D01*
X86794819Y-114924190D02*
X87794819Y-115352761D01*
X87128152Y-114114666D02*
X87794819Y-114114666D01*
X86747200Y-114352761D02*
X87461485Y-114590856D01*
X87461485Y-114590856D02*
X87461485Y-113971809D01*
X87794819Y-113114666D02*
X87794819Y-113590856D01*
X87794819Y-113590856D02*
X86794819Y-113590856D01*
X87747200Y-112828951D02*
X87794819Y-112686094D01*
X87794819Y-112686094D02*
X87794819Y-112447999D01*
X87794819Y-112447999D02*
X87747200Y-112352761D01*
X87747200Y-112352761D02*
X87699580Y-112305142D01*
X87699580Y-112305142D02*
X87604342Y-112257523D01*
X87604342Y-112257523D02*
X87509104Y-112257523D01*
X87509104Y-112257523D02*
X87413866Y-112305142D01*
X87413866Y-112305142D02*
X87366247Y-112352761D01*
X87366247Y-112352761D02*
X87318628Y-112447999D01*
X87318628Y-112447999D02*
X87271009Y-112638475D01*
X87271009Y-112638475D02*
X87223390Y-112733713D01*
X87223390Y-112733713D02*
X87175771Y-112781332D01*
X87175771Y-112781332D02*
X87080533Y-112828951D01*
X87080533Y-112828951D02*
X86985295Y-112828951D01*
X86985295Y-112828951D02*
X86890057Y-112781332D01*
X86890057Y-112781332D02*
X86842438Y-112733713D01*
X86842438Y-112733713D02*
X86794819Y-112638475D01*
X86794819Y-112638475D02*
X86794819Y-112400380D01*
X86794819Y-112400380D02*
X86842438Y-112257523D01*
X86794819Y-111638475D02*
X86794819Y-111543237D01*
X86794819Y-111543237D02*
X86842438Y-111447999D01*
X86842438Y-111447999D02*
X86890057Y-111400380D01*
X86890057Y-111400380D02*
X86985295Y-111352761D01*
X86985295Y-111352761D02*
X87175771Y-111305142D01*
X87175771Y-111305142D02*
X87413866Y-111305142D01*
X87413866Y-111305142D02*
X87604342Y-111352761D01*
X87604342Y-111352761D02*
X87699580Y-111400380D01*
X87699580Y-111400380D02*
X87747200Y-111447999D01*
X87747200Y-111447999D02*
X87794819Y-111543237D01*
X87794819Y-111543237D02*
X87794819Y-111638475D01*
X87794819Y-111638475D02*
X87747200Y-111733713D01*
X87747200Y-111733713D02*
X87699580Y-111781332D01*
X87699580Y-111781332D02*
X87604342Y-111828951D01*
X87604342Y-111828951D02*
X87413866Y-111876570D01*
X87413866Y-111876570D02*
X87175771Y-111876570D01*
X87175771Y-111876570D02*
X86985295Y-111828951D01*
X86985295Y-111828951D02*
X86890057Y-111781332D01*
X86890057Y-111781332D02*
X86842438Y-111733713D01*
X86842438Y-111733713D02*
X86794819Y-111638475D01*
X87223390Y-110733713D02*
X87175771Y-110828951D01*
X87175771Y-110828951D02*
X87128152Y-110876570D01*
X87128152Y-110876570D02*
X87032914Y-110924189D01*
X87032914Y-110924189D02*
X86985295Y-110924189D01*
X86985295Y-110924189D02*
X86890057Y-110876570D01*
X86890057Y-110876570D02*
X86842438Y-110828951D01*
X86842438Y-110828951D02*
X86794819Y-110733713D01*
X86794819Y-110733713D02*
X86794819Y-110543237D01*
X86794819Y-110543237D02*
X86842438Y-110447999D01*
X86842438Y-110447999D02*
X86890057Y-110400380D01*
X86890057Y-110400380D02*
X86985295Y-110352761D01*
X86985295Y-110352761D02*
X87032914Y-110352761D01*
X87032914Y-110352761D02*
X87128152Y-110400380D01*
X87128152Y-110400380D02*
X87175771Y-110447999D01*
X87175771Y-110447999D02*
X87223390Y-110543237D01*
X87223390Y-110543237D02*
X87223390Y-110733713D01*
X87223390Y-110733713D02*
X87271009Y-110828951D01*
X87271009Y-110828951D02*
X87318628Y-110876570D01*
X87318628Y-110876570D02*
X87413866Y-110924189D01*
X87413866Y-110924189D02*
X87604342Y-110924189D01*
X87604342Y-110924189D02*
X87699580Y-110876570D01*
X87699580Y-110876570D02*
X87747200Y-110828951D01*
X87747200Y-110828951D02*
X87794819Y-110733713D01*
X87794819Y-110733713D02*
X87794819Y-110543237D01*
X87794819Y-110543237D02*
X87747200Y-110447999D01*
X87747200Y-110447999D02*
X87699580Y-110400380D01*
X87699580Y-110400380D02*
X87604342Y-110352761D01*
X87604342Y-110352761D02*
X87413866Y-110352761D01*
X87413866Y-110352761D02*
X87318628Y-110400380D01*
X87318628Y-110400380D02*
X87271009Y-110447999D01*
X87271009Y-110447999D02*
X87223390Y-110543237D01*
X125024819Y-88017904D02*
X125834342Y-88017904D01*
X125834342Y-88017904D02*
X125929580Y-87970285D01*
X125929580Y-87970285D02*
X125977200Y-87922666D01*
X125977200Y-87922666D02*
X126024819Y-87827428D01*
X126024819Y-87827428D02*
X126024819Y-87636952D01*
X126024819Y-87636952D02*
X125977200Y-87541714D01*
X125977200Y-87541714D02*
X125929580Y-87494095D01*
X125929580Y-87494095D02*
X125834342Y-87446476D01*
X125834342Y-87446476D02*
X125024819Y-87446476D01*
X126024819Y-86446476D02*
X126024819Y-87017904D01*
X126024819Y-86732190D02*
X125024819Y-86732190D01*
X125024819Y-86732190D02*
X125167676Y-86827428D01*
X125167676Y-86827428D02*
X125262914Y-86922666D01*
X125262914Y-86922666D02*
X125310533Y-87017904D01*
X144924819Y-89898856D02*
X144924819Y-89232190D01*
X144924819Y-89232190D02*
X145924819Y-89660761D01*
X145258152Y-88422666D02*
X145924819Y-88422666D01*
X144877200Y-88660761D02*
X145591485Y-88898856D01*
X145591485Y-88898856D02*
X145591485Y-88279809D01*
X145924819Y-87422666D02*
X145924819Y-87898856D01*
X145924819Y-87898856D02*
X144924819Y-87898856D01*
X145877200Y-87136951D02*
X145924819Y-86994094D01*
X145924819Y-86994094D02*
X145924819Y-86755999D01*
X145924819Y-86755999D02*
X145877200Y-86660761D01*
X145877200Y-86660761D02*
X145829580Y-86613142D01*
X145829580Y-86613142D02*
X145734342Y-86565523D01*
X145734342Y-86565523D02*
X145639104Y-86565523D01*
X145639104Y-86565523D02*
X145543866Y-86613142D01*
X145543866Y-86613142D02*
X145496247Y-86660761D01*
X145496247Y-86660761D02*
X145448628Y-86755999D01*
X145448628Y-86755999D02*
X145401009Y-86946475D01*
X145401009Y-86946475D02*
X145353390Y-87041713D01*
X145353390Y-87041713D02*
X145305771Y-87089332D01*
X145305771Y-87089332D02*
X145210533Y-87136951D01*
X145210533Y-87136951D02*
X145115295Y-87136951D01*
X145115295Y-87136951D02*
X145020057Y-87089332D01*
X145020057Y-87089332D02*
X144972438Y-87041713D01*
X144972438Y-87041713D02*
X144924819Y-86946475D01*
X144924819Y-86946475D02*
X144924819Y-86708380D01*
X144924819Y-86708380D02*
X144972438Y-86565523D01*
X144924819Y-85946475D02*
X144924819Y-85851237D01*
X144924819Y-85851237D02*
X144972438Y-85755999D01*
X144972438Y-85755999D02*
X145020057Y-85708380D01*
X145020057Y-85708380D02*
X145115295Y-85660761D01*
X145115295Y-85660761D02*
X145305771Y-85613142D01*
X145305771Y-85613142D02*
X145543866Y-85613142D01*
X145543866Y-85613142D02*
X145734342Y-85660761D01*
X145734342Y-85660761D02*
X145829580Y-85708380D01*
X145829580Y-85708380D02*
X145877200Y-85755999D01*
X145877200Y-85755999D02*
X145924819Y-85851237D01*
X145924819Y-85851237D02*
X145924819Y-85946475D01*
X145924819Y-85946475D02*
X145877200Y-86041713D01*
X145877200Y-86041713D02*
X145829580Y-86089332D01*
X145829580Y-86089332D02*
X145734342Y-86136951D01*
X145734342Y-86136951D02*
X145543866Y-86184570D01*
X145543866Y-86184570D02*
X145305771Y-86184570D01*
X145305771Y-86184570D02*
X145115295Y-86136951D01*
X145115295Y-86136951D02*
X145020057Y-86089332D01*
X145020057Y-86089332D02*
X144972438Y-86041713D01*
X144972438Y-86041713D02*
X144924819Y-85946475D01*
X144924819Y-84994094D02*
X144924819Y-84898856D01*
X144924819Y-84898856D02*
X144972438Y-84803618D01*
X144972438Y-84803618D02*
X145020057Y-84755999D01*
X145020057Y-84755999D02*
X145115295Y-84708380D01*
X145115295Y-84708380D02*
X145305771Y-84660761D01*
X145305771Y-84660761D02*
X145543866Y-84660761D01*
X145543866Y-84660761D02*
X145734342Y-84708380D01*
X145734342Y-84708380D02*
X145829580Y-84755999D01*
X145829580Y-84755999D02*
X145877200Y-84803618D01*
X145877200Y-84803618D02*
X145924819Y-84898856D01*
X145924819Y-84898856D02*
X145924819Y-84994094D01*
X145924819Y-84994094D02*
X145877200Y-85089332D01*
X145877200Y-85089332D02*
X145829580Y-85136951D01*
X145829580Y-85136951D02*
X145734342Y-85184570D01*
X145734342Y-85184570D02*
X145543866Y-85232189D01*
X145543866Y-85232189D02*
X145305771Y-85232189D01*
X145305771Y-85232189D02*
X145115295Y-85184570D01*
X145115295Y-85184570D02*
X145020057Y-85136951D01*
X145020057Y-85136951D02*
X144972438Y-85089332D01*
X144972438Y-85089332D02*
X144924819Y-84994094D01*
X125024819Y-100863904D02*
X125834342Y-100863904D01*
X125834342Y-100863904D02*
X125929580Y-100816285D01*
X125929580Y-100816285D02*
X125977200Y-100768666D01*
X125977200Y-100768666D02*
X126024819Y-100673428D01*
X126024819Y-100673428D02*
X126024819Y-100482952D01*
X126024819Y-100482952D02*
X125977200Y-100387714D01*
X125977200Y-100387714D02*
X125929580Y-100340095D01*
X125929580Y-100340095D02*
X125834342Y-100292476D01*
X125834342Y-100292476D02*
X125024819Y-100292476D01*
X125453390Y-99673428D02*
X125405771Y-99768666D01*
X125405771Y-99768666D02*
X125358152Y-99816285D01*
X125358152Y-99816285D02*
X125262914Y-99863904D01*
X125262914Y-99863904D02*
X125215295Y-99863904D01*
X125215295Y-99863904D02*
X125120057Y-99816285D01*
X125120057Y-99816285D02*
X125072438Y-99768666D01*
X125072438Y-99768666D02*
X125024819Y-99673428D01*
X125024819Y-99673428D02*
X125024819Y-99482952D01*
X125024819Y-99482952D02*
X125072438Y-99387714D01*
X125072438Y-99387714D02*
X125120057Y-99340095D01*
X125120057Y-99340095D02*
X125215295Y-99292476D01*
X125215295Y-99292476D02*
X125262914Y-99292476D01*
X125262914Y-99292476D02*
X125358152Y-99340095D01*
X125358152Y-99340095D02*
X125405771Y-99387714D01*
X125405771Y-99387714D02*
X125453390Y-99482952D01*
X125453390Y-99482952D02*
X125453390Y-99673428D01*
X125453390Y-99673428D02*
X125501009Y-99768666D01*
X125501009Y-99768666D02*
X125548628Y-99816285D01*
X125548628Y-99816285D02*
X125643866Y-99863904D01*
X125643866Y-99863904D02*
X125834342Y-99863904D01*
X125834342Y-99863904D02*
X125929580Y-99816285D01*
X125929580Y-99816285D02*
X125977200Y-99768666D01*
X125977200Y-99768666D02*
X126024819Y-99673428D01*
X126024819Y-99673428D02*
X126024819Y-99482952D01*
X126024819Y-99482952D02*
X125977200Y-99387714D01*
X125977200Y-99387714D02*
X125929580Y-99340095D01*
X125929580Y-99340095D02*
X125834342Y-99292476D01*
X125834342Y-99292476D02*
X125643866Y-99292476D01*
X125643866Y-99292476D02*
X125548628Y-99340095D01*
X125548628Y-99340095D02*
X125501009Y-99387714D01*
X125501009Y-99387714D02*
X125453390Y-99482952D01*
X144924819Y-102744856D02*
X144924819Y-102078190D01*
X144924819Y-102078190D02*
X145924819Y-102506761D01*
X145258152Y-101268666D02*
X145924819Y-101268666D01*
X144877200Y-101506761D02*
X145591485Y-101744856D01*
X145591485Y-101744856D02*
X145591485Y-101125809D01*
X145924819Y-100268666D02*
X145924819Y-100744856D01*
X145924819Y-100744856D02*
X144924819Y-100744856D01*
X145877200Y-99982951D02*
X145924819Y-99840094D01*
X145924819Y-99840094D02*
X145924819Y-99601999D01*
X145924819Y-99601999D02*
X145877200Y-99506761D01*
X145877200Y-99506761D02*
X145829580Y-99459142D01*
X145829580Y-99459142D02*
X145734342Y-99411523D01*
X145734342Y-99411523D02*
X145639104Y-99411523D01*
X145639104Y-99411523D02*
X145543866Y-99459142D01*
X145543866Y-99459142D02*
X145496247Y-99506761D01*
X145496247Y-99506761D02*
X145448628Y-99601999D01*
X145448628Y-99601999D02*
X145401009Y-99792475D01*
X145401009Y-99792475D02*
X145353390Y-99887713D01*
X145353390Y-99887713D02*
X145305771Y-99935332D01*
X145305771Y-99935332D02*
X145210533Y-99982951D01*
X145210533Y-99982951D02*
X145115295Y-99982951D01*
X145115295Y-99982951D02*
X145020057Y-99935332D01*
X145020057Y-99935332D02*
X144972438Y-99887713D01*
X144972438Y-99887713D02*
X144924819Y-99792475D01*
X144924819Y-99792475D02*
X144924819Y-99554380D01*
X144924819Y-99554380D02*
X144972438Y-99411523D01*
X145353390Y-98840094D02*
X145305771Y-98935332D01*
X145305771Y-98935332D02*
X145258152Y-98982951D01*
X145258152Y-98982951D02*
X145162914Y-99030570D01*
X145162914Y-99030570D02*
X145115295Y-99030570D01*
X145115295Y-99030570D02*
X145020057Y-98982951D01*
X145020057Y-98982951D02*
X144972438Y-98935332D01*
X144972438Y-98935332D02*
X144924819Y-98840094D01*
X144924819Y-98840094D02*
X144924819Y-98649618D01*
X144924819Y-98649618D02*
X144972438Y-98554380D01*
X144972438Y-98554380D02*
X145020057Y-98506761D01*
X145020057Y-98506761D02*
X145115295Y-98459142D01*
X145115295Y-98459142D02*
X145162914Y-98459142D01*
X145162914Y-98459142D02*
X145258152Y-98506761D01*
X145258152Y-98506761D02*
X145305771Y-98554380D01*
X145305771Y-98554380D02*
X145353390Y-98649618D01*
X145353390Y-98649618D02*
X145353390Y-98840094D01*
X145353390Y-98840094D02*
X145401009Y-98935332D01*
X145401009Y-98935332D02*
X145448628Y-98982951D01*
X145448628Y-98982951D02*
X145543866Y-99030570D01*
X145543866Y-99030570D02*
X145734342Y-99030570D01*
X145734342Y-99030570D02*
X145829580Y-98982951D01*
X145829580Y-98982951D02*
X145877200Y-98935332D01*
X145877200Y-98935332D02*
X145924819Y-98840094D01*
X145924819Y-98840094D02*
X145924819Y-98649618D01*
X145924819Y-98649618D02*
X145877200Y-98554380D01*
X145877200Y-98554380D02*
X145829580Y-98506761D01*
X145829580Y-98506761D02*
X145734342Y-98459142D01*
X145734342Y-98459142D02*
X145543866Y-98459142D01*
X145543866Y-98459142D02*
X145448628Y-98506761D01*
X145448628Y-98506761D02*
X145401009Y-98554380D01*
X145401009Y-98554380D02*
X145353390Y-98649618D01*
X144924819Y-97601999D02*
X144924819Y-97792475D01*
X144924819Y-97792475D02*
X144972438Y-97887713D01*
X144972438Y-97887713D02*
X145020057Y-97935332D01*
X145020057Y-97935332D02*
X145162914Y-98030570D01*
X145162914Y-98030570D02*
X145353390Y-98078189D01*
X145353390Y-98078189D02*
X145734342Y-98078189D01*
X145734342Y-98078189D02*
X145829580Y-98030570D01*
X145829580Y-98030570D02*
X145877200Y-97982951D01*
X145877200Y-97982951D02*
X145924819Y-97887713D01*
X145924819Y-97887713D02*
X145924819Y-97697237D01*
X145924819Y-97697237D02*
X145877200Y-97601999D01*
X145877200Y-97601999D02*
X145829580Y-97554380D01*
X145829580Y-97554380D02*
X145734342Y-97506761D01*
X145734342Y-97506761D02*
X145496247Y-97506761D01*
X145496247Y-97506761D02*
X145401009Y-97554380D01*
X145401009Y-97554380D02*
X145353390Y-97601999D01*
X145353390Y-97601999D02*
X145305771Y-97697237D01*
X145305771Y-97697237D02*
X145305771Y-97887713D01*
X145305771Y-97887713D02*
X145353390Y-97982951D01*
X145353390Y-97982951D02*
X145401009Y-98030570D01*
X145401009Y-98030570D02*
X145496247Y-98078189D01*
X54671428Y-99381009D02*
X54338095Y-99381009D01*
X54338095Y-99904819D02*
X54338095Y-98904819D01*
X54338095Y-98904819D02*
X54814285Y-98904819D01*
X55338095Y-99904819D02*
X55242857Y-99857200D01*
X55242857Y-99857200D02*
X55195238Y-99761961D01*
X55195238Y-99761961D02*
X55195238Y-98904819D01*
X56147619Y-99904819D02*
X56147619Y-99381009D01*
X56147619Y-99381009D02*
X56100000Y-99285771D01*
X56100000Y-99285771D02*
X56004762Y-99238152D01*
X56004762Y-99238152D02*
X55814286Y-99238152D01*
X55814286Y-99238152D02*
X55719048Y-99285771D01*
X56147619Y-99857200D02*
X56052381Y-99904819D01*
X56052381Y-99904819D02*
X55814286Y-99904819D01*
X55814286Y-99904819D02*
X55719048Y-99857200D01*
X55719048Y-99857200D02*
X55671429Y-99761961D01*
X55671429Y-99761961D02*
X55671429Y-99666723D01*
X55671429Y-99666723D02*
X55719048Y-99571485D01*
X55719048Y-99571485D02*
X55814286Y-99523866D01*
X55814286Y-99523866D02*
X56052381Y-99523866D01*
X56052381Y-99523866D02*
X56147619Y-99476247D01*
X57052381Y-99238152D02*
X57052381Y-100047676D01*
X57052381Y-100047676D02*
X57004762Y-100142914D01*
X57004762Y-100142914D02*
X56957143Y-100190533D01*
X56957143Y-100190533D02*
X56861905Y-100238152D01*
X56861905Y-100238152D02*
X56719048Y-100238152D01*
X56719048Y-100238152D02*
X56623810Y-100190533D01*
X57052381Y-99857200D02*
X56957143Y-99904819D01*
X56957143Y-99904819D02*
X56766667Y-99904819D01*
X56766667Y-99904819D02*
X56671429Y-99857200D01*
X56671429Y-99857200D02*
X56623810Y-99809580D01*
X56623810Y-99809580D02*
X56576191Y-99714342D01*
X56576191Y-99714342D02*
X56576191Y-99428628D01*
X56576191Y-99428628D02*
X56623810Y-99333390D01*
X56623810Y-99333390D02*
X56671429Y-99285771D01*
X56671429Y-99285771D02*
X56766667Y-99238152D01*
X56766667Y-99238152D02*
X56957143Y-99238152D01*
X56957143Y-99238152D02*
X57052381Y-99285771D01*
X57480953Y-99857200D02*
X57576191Y-99904819D01*
X57576191Y-99904819D02*
X57766667Y-99904819D01*
X57766667Y-99904819D02*
X57861905Y-99857200D01*
X57861905Y-99857200D02*
X57909524Y-99761961D01*
X57909524Y-99761961D02*
X57909524Y-99714342D01*
X57909524Y-99714342D02*
X57861905Y-99619104D01*
X57861905Y-99619104D02*
X57766667Y-99571485D01*
X57766667Y-99571485D02*
X57623810Y-99571485D01*
X57623810Y-99571485D02*
X57528572Y-99523866D01*
X57528572Y-99523866D02*
X57480953Y-99428628D01*
X57480953Y-99428628D02*
X57480953Y-99381009D01*
X57480953Y-99381009D02*
X57528572Y-99285771D01*
X57528572Y-99285771D02*
X57623810Y-99238152D01*
X57623810Y-99238152D02*
X57766667Y-99238152D01*
X57766667Y-99238152D02*
X57861905Y-99285771D01*
D13*
X59525093Y-119086119D02*
X60191759Y-119086119D01*
X60191759Y-119086119D02*
X59525093Y-120086119D01*
X59525093Y-120086119D02*
X60191759Y-120086119D01*
X60572712Y-119562309D02*
X60906045Y-119562309D01*
X61048902Y-120086119D02*
X60572712Y-120086119D01*
X60572712Y-120086119D02*
X60572712Y-119086119D01*
X60572712Y-119086119D02*
X61048902Y-119086119D01*
X62048902Y-120086119D02*
X61715569Y-119609928D01*
X61477474Y-120086119D02*
X61477474Y-119086119D01*
X61477474Y-119086119D02*
X61858426Y-119086119D01*
X61858426Y-119086119D02*
X61953664Y-119133738D01*
X61953664Y-119133738D02*
X62001283Y-119181357D01*
X62001283Y-119181357D02*
X62048902Y-119276595D01*
X62048902Y-119276595D02*
X62048902Y-119419452D01*
X62048902Y-119419452D02*
X62001283Y-119514690D01*
X62001283Y-119514690D02*
X61953664Y-119562309D01*
X61953664Y-119562309D02*
X61858426Y-119609928D01*
X61858426Y-119609928D02*
X61477474Y-119609928D01*
X62667950Y-119086119D02*
X62858426Y-119086119D01*
X62858426Y-119086119D02*
X62953664Y-119133738D01*
X62953664Y-119133738D02*
X63048902Y-119228976D01*
X63048902Y-119228976D02*
X63096521Y-119419452D01*
X63096521Y-119419452D02*
X63096521Y-119752785D01*
X63096521Y-119752785D02*
X63048902Y-119943261D01*
X63048902Y-119943261D02*
X62953664Y-120038500D01*
X62953664Y-120038500D02*
X62858426Y-120086119D01*
X62858426Y-120086119D02*
X62667950Y-120086119D01*
X62667950Y-120086119D02*
X62572712Y-120038500D01*
X62572712Y-120038500D02*
X62477474Y-119943261D01*
X62477474Y-119943261D02*
X62429855Y-119752785D01*
X62429855Y-119752785D02*
X62429855Y-119419452D01*
X62429855Y-119419452D02*
X62477474Y-119228976D01*
X62477474Y-119228976D02*
X62572712Y-119133738D01*
X62572712Y-119133738D02*
X62667950Y-119086119D01*
X60191759Y-114792344D02*
X60144140Y-114839964D01*
X60144140Y-114839964D02*
X60001283Y-114887583D01*
X60001283Y-114887583D02*
X59906045Y-114887583D01*
X59906045Y-114887583D02*
X59763188Y-114839964D01*
X59763188Y-114839964D02*
X59667950Y-114744725D01*
X59667950Y-114744725D02*
X59620331Y-114649487D01*
X59620331Y-114649487D02*
X59572712Y-114459011D01*
X59572712Y-114459011D02*
X59572712Y-114316154D01*
X59572712Y-114316154D02*
X59620331Y-114125678D01*
X59620331Y-114125678D02*
X59667950Y-114030440D01*
X59667950Y-114030440D02*
X59763188Y-113935202D01*
X59763188Y-113935202D02*
X59906045Y-113887583D01*
X59906045Y-113887583D02*
X60001283Y-113887583D01*
X60001283Y-113887583D02*
X60144140Y-113935202D01*
X60144140Y-113935202D02*
X60191759Y-113982821D01*
X60572712Y-114601868D02*
X61048902Y-114601868D01*
X60477474Y-114887583D02*
X60810807Y-113887583D01*
X60810807Y-113887583D02*
X61144140Y-114887583D01*
X62048902Y-114887583D02*
X61715569Y-114411392D01*
X61477474Y-114887583D02*
X61477474Y-113887583D01*
X61477474Y-113887583D02*
X61858426Y-113887583D01*
X61858426Y-113887583D02*
X61953664Y-113935202D01*
X61953664Y-113935202D02*
X62001283Y-113982821D01*
X62001283Y-113982821D02*
X62048902Y-114078059D01*
X62048902Y-114078059D02*
X62048902Y-114220916D01*
X62048902Y-114220916D02*
X62001283Y-114316154D01*
X62001283Y-114316154D02*
X61953664Y-114363773D01*
X61953664Y-114363773D02*
X61858426Y-114411392D01*
X61858426Y-114411392D02*
X61477474Y-114411392D01*
X63048902Y-114887583D02*
X62715569Y-114411392D01*
X62477474Y-114887583D02*
X62477474Y-113887583D01*
X62477474Y-113887583D02*
X62858426Y-113887583D01*
X62858426Y-113887583D02*
X62953664Y-113935202D01*
X62953664Y-113935202D02*
X63001283Y-113982821D01*
X63001283Y-113982821D02*
X63048902Y-114078059D01*
X63048902Y-114078059D02*
X63048902Y-114220916D01*
X63048902Y-114220916D02*
X63001283Y-114316154D01*
X63001283Y-114316154D02*
X62953664Y-114363773D01*
X62953664Y-114363773D02*
X62858426Y-114411392D01*
X62858426Y-114411392D02*
X62477474Y-114411392D01*
X63667950Y-114411392D02*
X63667950Y-114887583D01*
X63334617Y-113887583D02*
X63667950Y-114411392D01*
X63667950Y-114411392D02*
X64001283Y-113887583D01*
D14*
X59794360Y-111333490D02*
X59984836Y-111333490D01*
X59984836Y-111333490D02*
X60080074Y-111381109D01*
X60080074Y-111381109D02*
X60175312Y-111476347D01*
X60175312Y-111476347D02*
X60222931Y-111666823D01*
X60222931Y-111666823D02*
X60222931Y-112000156D01*
X60222931Y-112000156D02*
X60175312Y-112190632D01*
X60175312Y-112190632D02*
X60080074Y-112285871D01*
X60080074Y-112285871D02*
X59984836Y-112333490D01*
X59984836Y-112333490D02*
X59794360Y-112333490D01*
X59794360Y-112333490D02*
X59699122Y-112285871D01*
X59699122Y-112285871D02*
X59603884Y-112190632D01*
X59603884Y-112190632D02*
X59556265Y-112000156D01*
X59556265Y-112000156D02*
X59556265Y-111666823D01*
X59556265Y-111666823D02*
X59603884Y-111476347D01*
X59603884Y-111476347D02*
X59699122Y-111381109D01*
X59699122Y-111381109D02*
X59794360Y-111333490D01*
X60508646Y-111333490D02*
X60841979Y-112333490D01*
X60841979Y-112333490D02*
X61175312Y-111333490D01*
X61508646Y-111809680D02*
X61841979Y-111809680D01*
X61984836Y-112333490D02*
X61508646Y-112333490D01*
X61508646Y-112333490D02*
X61508646Y-111333490D01*
X61508646Y-111333490D02*
X61984836Y-111333490D01*
X62984836Y-112333490D02*
X62651503Y-111857299D01*
X62413408Y-112333490D02*
X62413408Y-111333490D01*
X62413408Y-111333490D02*
X62794360Y-111333490D01*
X62794360Y-111333490D02*
X62889598Y-111381109D01*
X62889598Y-111381109D02*
X62937217Y-111428728D01*
X62937217Y-111428728D02*
X62984836Y-111523966D01*
X62984836Y-111523966D02*
X62984836Y-111666823D01*
X62984836Y-111666823D02*
X62937217Y-111762061D01*
X62937217Y-111762061D02*
X62889598Y-111809680D01*
X62889598Y-111809680D02*
X62794360Y-111857299D01*
X62794360Y-111857299D02*
X62413408Y-111857299D01*
D13*
X59572712Y-117439232D02*
X59715569Y-117486851D01*
X59715569Y-117486851D02*
X59953664Y-117486851D01*
X59953664Y-117486851D02*
X60048902Y-117439232D01*
X60048902Y-117439232D02*
X60096521Y-117391612D01*
X60096521Y-117391612D02*
X60144140Y-117296374D01*
X60144140Y-117296374D02*
X60144140Y-117201136D01*
X60144140Y-117201136D02*
X60096521Y-117105898D01*
X60096521Y-117105898D02*
X60048902Y-117058279D01*
X60048902Y-117058279D02*
X59953664Y-117010660D01*
X59953664Y-117010660D02*
X59763188Y-116963041D01*
X59763188Y-116963041D02*
X59667950Y-116915422D01*
X59667950Y-116915422D02*
X59620331Y-116867803D01*
X59620331Y-116867803D02*
X59572712Y-116772565D01*
X59572712Y-116772565D02*
X59572712Y-116677327D01*
X59572712Y-116677327D02*
X59620331Y-116582089D01*
X59620331Y-116582089D02*
X59667950Y-116534470D01*
X59667950Y-116534470D02*
X59763188Y-116486851D01*
X59763188Y-116486851D02*
X60001283Y-116486851D01*
X60001283Y-116486851D02*
X60144140Y-116534470D01*
X60572712Y-117486851D02*
X60572712Y-116486851D01*
X61572711Y-116534470D02*
X61477473Y-116486851D01*
X61477473Y-116486851D02*
X61334616Y-116486851D01*
X61334616Y-116486851D02*
X61191759Y-116534470D01*
X61191759Y-116534470D02*
X61096521Y-116629708D01*
X61096521Y-116629708D02*
X61048902Y-116724946D01*
X61048902Y-116724946D02*
X61001283Y-116915422D01*
X61001283Y-116915422D02*
X61001283Y-117058279D01*
X61001283Y-117058279D02*
X61048902Y-117248755D01*
X61048902Y-117248755D02*
X61096521Y-117343993D01*
X61096521Y-117343993D02*
X61191759Y-117439232D01*
X61191759Y-117439232D02*
X61334616Y-117486851D01*
X61334616Y-117486851D02*
X61429854Y-117486851D01*
X61429854Y-117486851D02*
X61572711Y-117439232D01*
X61572711Y-117439232D02*
X61620330Y-117391612D01*
X61620330Y-117391612D02*
X61620330Y-117058279D01*
X61620330Y-117058279D02*
X61429854Y-117058279D01*
X62048902Y-117486851D02*
X62048902Y-116486851D01*
X62048902Y-116486851D02*
X62620330Y-117486851D01*
X62620330Y-117486851D02*
X62620330Y-116486851D01*
D12*
X100129104Y-59888095D02*
X100129104Y-59411905D01*
X100414819Y-59983333D02*
X99414819Y-59650000D01*
X99414819Y-59650000D02*
X100414819Y-59316667D01*
X100414819Y-58840476D02*
X100367200Y-58935714D01*
X100367200Y-58935714D02*
X100271961Y-58983333D01*
X100271961Y-58983333D02*
X99414819Y-58983333D01*
X99748152Y-58030952D02*
X100414819Y-58030952D01*
X99748152Y-58459523D02*
X100271961Y-58459523D01*
X100271961Y-58459523D02*
X100367200Y-58411904D01*
X100367200Y-58411904D02*
X100414819Y-58316666D01*
X100414819Y-58316666D02*
X100414819Y-58173809D01*
X100414819Y-58173809D02*
X100367200Y-58078571D01*
X100367200Y-58078571D02*
X100319580Y-58030952D01*
X100033866Y-57554761D02*
X100033866Y-56792857D01*
X99938628Y-56126190D02*
X100414819Y-56126190D01*
X99414819Y-56459523D02*
X99938628Y-56126190D01*
X99938628Y-56126190D02*
X99414819Y-55792857D01*
X99891009Y-54364285D02*
X99938628Y-54221428D01*
X99938628Y-54221428D02*
X99986247Y-54173809D01*
X99986247Y-54173809D02*
X100081485Y-54126190D01*
X100081485Y-54126190D02*
X100224342Y-54126190D01*
X100224342Y-54126190D02*
X100319580Y-54173809D01*
X100319580Y-54173809D02*
X100367200Y-54221428D01*
X100367200Y-54221428D02*
X100414819Y-54316666D01*
X100414819Y-54316666D02*
X100414819Y-54697618D01*
X100414819Y-54697618D02*
X99414819Y-54697618D01*
X99414819Y-54697618D02*
X99414819Y-54364285D01*
X99414819Y-54364285D02*
X99462438Y-54269047D01*
X99462438Y-54269047D02*
X99510057Y-54221428D01*
X99510057Y-54221428D02*
X99605295Y-54173809D01*
X99605295Y-54173809D02*
X99700533Y-54173809D01*
X99700533Y-54173809D02*
X99795771Y-54221428D01*
X99795771Y-54221428D02*
X99843390Y-54269047D01*
X99843390Y-54269047D02*
X99891009Y-54364285D01*
X99891009Y-54364285D02*
X99891009Y-54697618D01*
X99748152Y-53269047D02*
X100414819Y-53269047D01*
X99748152Y-53697618D02*
X100271961Y-53697618D01*
X100271961Y-53697618D02*
X100367200Y-53649999D01*
X100367200Y-53649999D02*
X100414819Y-53554761D01*
X100414819Y-53554761D02*
X100414819Y-53411904D01*
X100414819Y-53411904D02*
X100367200Y-53316666D01*
X100367200Y-53316666D02*
X100319580Y-53269047D01*
X100367200Y-52840475D02*
X100414819Y-52745237D01*
X100414819Y-52745237D02*
X100414819Y-52554761D01*
X100414819Y-52554761D02*
X100367200Y-52459523D01*
X100367200Y-52459523D02*
X100271961Y-52411904D01*
X100271961Y-52411904D02*
X100224342Y-52411904D01*
X100224342Y-52411904D02*
X100129104Y-52459523D01*
X100129104Y-52459523D02*
X100081485Y-52554761D01*
X100081485Y-52554761D02*
X100081485Y-52697618D01*
X100081485Y-52697618D02*
X100033866Y-52792856D01*
X100033866Y-52792856D02*
X99938628Y-52840475D01*
X99938628Y-52840475D02*
X99891009Y-52840475D01*
X99891009Y-52840475D02*
X99795771Y-52792856D01*
X99795771Y-52792856D02*
X99748152Y-52697618D01*
X99748152Y-52697618D02*
X99748152Y-52554761D01*
X99748152Y-52554761D02*
X99795771Y-52459523D01*
D14*
X97691228Y-60731741D02*
X98167419Y-60731741D01*
X97167419Y-61065074D02*
X97691228Y-60731741D01*
X97691228Y-60731741D02*
X97167419Y-60398408D01*
X97167419Y-60160312D02*
X97167419Y-59493646D01*
X97167419Y-59493646D02*
X98167419Y-59922217D01*
D13*
X79889928Y-60748188D02*
X80366119Y-60748188D01*
X79366119Y-61081521D02*
X79889928Y-60748188D01*
X79889928Y-60748188D02*
X79366119Y-60414855D01*
X79366119Y-59891045D02*
X79366119Y-59795807D01*
X79366119Y-59795807D02*
X79413738Y-59700569D01*
X79413738Y-59700569D02*
X79461357Y-59652950D01*
X79461357Y-59652950D02*
X79556595Y-59605331D01*
X79556595Y-59605331D02*
X79747071Y-59557712D01*
X79747071Y-59557712D02*
X79985166Y-59557712D01*
X79985166Y-59557712D02*
X80175642Y-59605331D01*
X80175642Y-59605331D02*
X80270880Y-59652950D01*
X80270880Y-59652950D02*
X80318500Y-59700569D01*
X80318500Y-59700569D02*
X80366119Y-59795807D01*
X80366119Y-59795807D02*
X80366119Y-59891045D01*
X80366119Y-59891045D02*
X80318500Y-59986283D01*
X80318500Y-59986283D02*
X80270880Y-60033902D01*
X80270880Y-60033902D02*
X80175642Y-60081521D01*
X80175642Y-60081521D02*
X79985166Y-60129140D01*
X79985166Y-60129140D02*
X79747071Y-60129140D01*
X79747071Y-60129140D02*
X79556595Y-60081521D01*
X79556595Y-60081521D02*
X79461357Y-60033902D01*
X79461357Y-60033902D02*
X79413738Y-59986283D01*
X79413738Y-59986283D02*
X79366119Y-59891045D01*
X85088464Y-60748188D02*
X85564655Y-60748188D01*
X84564655Y-61081521D02*
X85088464Y-60748188D01*
X85088464Y-60748188D02*
X84564655Y-60414855D01*
X84659893Y-60129140D02*
X84612274Y-60081521D01*
X84612274Y-60081521D02*
X84564655Y-59986283D01*
X84564655Y-59986283D02*
X84564655Y-59748188D01*
X84564655Y-59748188D02*
X84612274Y-59652950D01*
X84612274Y-59652950D02*
X84659893Y-59605331D01*
X84659893Y-59605331D02*
X84755131Y-59557712D01*
X84755131Y-59557712D02*
X84850369Y-59557712D01*
X84850369Y-59557712D02*
X84993226Y-59605331D01*
X84993226Y-59605331D02*
X85564655Y-60176759D01*
X85564655Y-60176759D02*
X85564655Y-59557712D01*
D14*
X95179710Y-60731741D02*
X95655901Y-60731741D01*
X94655901Y-61065074D02*
X95179710Y-60731741D01*
X95179710Y-60731741D02*
X94655901Y-60398408D01*
X94655901Y-59636503D02*
X94655901Y-59826979D01*
X94655901Y-59826979D02*
X94703520Y-59922217D01*
X94703520Y-59922217D02*
X94751139Y-59969836D01*
X94751139Y-59969836D02*
X94893996Y-60065074D01*
X94893996Y-60065074D02*
X95084472Y-60112693D01*
X95084472Y-60112693D02*
X95465424Y-60112693D01*
X95465424Y-60112693D02*
X95560662Y-60065074D01*
X95560662Y-60065074D02*
X95608282Y-60017455D01*
X95608282Y-60017455D02*
X95655901Y-59922217D01*
X95655901Y-59922217D02*
X95655901Y-59731741D01*
X95655901Y-59731741D02*
X95608282Y-59636503D01*
X95608282Y-59636503D02*
X95560662Y-59588884D01*
X95560662Y-59588884D02*
X95465424Y-59541265D01*
X95465424Y-59541265D02*
X95227329Y-59541265D01*
X95227329Y-59541265D02*
X95132091Y-59588884D01*
X95132091Y-59588884D02*
X95084472Y-59636503D01*
X95084472Y-59636503D02*
X95036853Y-59731741D01*
X95036853Y-59731741D02*
X95036853Y-59922217D01*
X95036853Y-59922217D02*
X95084472Y-60017455D01*
X95084472Y-60017455D02*
X95132091Y-60065074D01*
X95132091Y-60065074D02*
X95227329Y-60112693D01*
X92668192Y-60731741D02*
X93144383Y-60731741D01*
X92144383Y-61065074D02*
X92668192Y-60731741D01*
X92668192Y-60731741D02*
X92144383Y-60398408D01*
X92144383Y-59588884D02*
X92144383Y-60065074D01*
X92144383Y-60065074D02*
X92620573Y-60112693D01*
X92620573Y-60112693D02*
X92572954Y-60065074D01*
X92572954Y-60065074D02*
X92525335Y-59969836D01*
X92525335Y-59969836D02*
X92525335Y-59731741D01*
X92525335Y-59731741D02*
X92572954Y-59636503D01*
X92572954Y-59636503D02*
X92620573Y-59588884D01*
X92620573Y-59588884D02*
X92715811Y-59541265D01*
X92715811Y-59541265D02*
X92953906Y-59541265D01*
X92953906Y-59541265D02*
X93049144Y-59588884D01*
X93049144Y-59588884D02*
X93096764Y-59636503D01*
X93096764Y-59636503D02*
X93144383Y-59731741D01*
X93144383Y-59731741D02*
X93144383Y-59969836D01*
X93144383Y-59969836D02*
X93096764Y-60065074D01*
X93096764Y-60065074D02*
X93049144Y-60112693D01*
X90156674Y-60731741D02*
X90632865Y-60731741D01*
X89632865Y-61065074D02*
X90156674Y-60731741D01*
X90156674Y-60731741D02*
X89632865Y-60398408D01*
X89966198Y-59636503D02*
X90632865Y-59636503D01*
X89585246Y-59874598D02*
X90299531Y-60112693D01*
X90299531Y-60112693D02*
X90299531Y-59493646D01*
X87645157Y-60731741D02*
X88121348Y-60731741D01*
X87121348Y-61065074D02*
X87645157Y-60731741D01*
X87645157Y-60731741D02*
X87121348Y-60398408D01*
X87121348Y-60160312D02*
X87121348Y-59541265D01*
X87121348Y-59541265D02*
X87502300Y-59874598D01*
X87502300Y-59874598D02*
X87502300Y-59731741D01*
X87502300Y-59731741D02*
X87549919Y-59636503D01*
X87549919Y-59636503D02*
X87597538Y-59588884D01*
X87597538Y-59588884D02*
X87692776Y-59541265D01*
X87692776Y-59541265D02*
X87930871Y-59541265D01*
X87930871Y-59541265D02*
X88026109Y-59588884D01*
X88026109Y-59588884D02*
X88073729Y-59636503D01*
X88073729Y-59636503D02*
X88121348Y-59731741D01*
X88121348Y-59731741D02*
X88121348Y-60017455D01*
X88121348Y-60017455D02*
X88073729Y-60112693D01*
X88073729Y-60112693D02*
X88026109Y-60160312D01*
D13*
X82489196Y-60748188D02*
X82965387Y-60748188D01*
X81965387Y-61081521D02*
X82489196Y-60748188D01*
X82489196Y-60748188D02*
X81965387Y-60414855D01*
X82965387Y-59557712D02*
X82965387Y-60129140D01*
X82965387Y-59843426D02*
X81965387Y-59843426D01*
X81965387Y-59843426D02*
X82108244Y-59938664D01*
X82108244Y-59938664D02*
X82203482Y-60033902D01*
X82203482Y-60033902D02*
X82251101Y-60129140D01*
D12*
X117414819Y-114186094D02*
X118224342Y-114186094D01*
X118224342Y-114186094D02*
X118319580Y-114138475D01*
X118319580Y-114138475D02*
X118367200Y-114090856D01*
X118367200Y-114090856D02*
X118414819Y-113995618D01*
X118414819Y-113995618D02*
X118414819Y-113805142D01*
X118414819Y-113805142D02*
X118367200Y-113709904D01*
X118367200Y-113709904D02*
X118319580Y-113662285D01*
X118319580Y-113662285D02*
X118224342Y-113614666D01*
X118224342Y-113614666D02*
X117414819Y-113614666D01*
X118414819Y-112614666D02*
X118414819Y-113186094D01*
X118414819Y-112900380D02*
X117414819Y-112900380D01*
X117414819Y-112900380D02*
X117557676Y-112995618D01*
X117557676Y-112995618D02*
X117652914Y-113090856D01*
X117652914Y-113090856D02*
X117700533Y-113186094D01*
X117510057Y-112233713D02*
X117462438Y-112186094D01*
X117462438Y-112186094D02*
X117414819Y-112090856D01*
X117414819Y-112090856D02*
X117414819Y-111852761D01*
X117414819Y-111852761D02*
X117462438Y-111757523D01*
X117462438Y-111757523D02*
X117510057Y-111709904D01*
X117510057Y-111709904D02*
X117605295Y-111662285D01*
X117605295Y-111662285D02*
X117700533Y-111662285D01*
X117700533Y-111662285D02*
X117843390Y-111709904D01*
X117843390Y-111709904D02*
X118414819Y-112281332D01*
X118414819Y-112281332D02*
X118414819Y-111662285D01*
X144934819Y-116067047D02*
X144934819Y-115400381D01*
X144934819Y-115400381D02*
X145934819Y-115828952D01*
X145268152Y-114590857D02*
X145934819Y-114590857D01*
X144887200Y-114828952D02*
X145601485Y-115067047D01*
X145601485Y-115067047D02*
X145601485Y-114448000D01*
X145934819Y-113590857D02*
X145934819Y-114067047D01*
X145934819Y-114067047D02*
X144934819Y-114067047D01*
X145887200Y-113305142D02*
X145934819Y-113162285D01*
X145934819Y-113162285D02*
X145934819Y-112924190D01*
X145934819Y-112924190D02*
X145887200Y-112828952D01*
X145887200Y-112828952D02*
X145839580Y-112781333D01*
X145839580Y-112781333D02*
X145744342Y-112733714D01*
X145744342Y-112733714D02*
X145649104Y-112733714D01*
X145649104Y-112733714D02*
X145553866Y-112781333D01*
X145553866Y-112781333D02*
X145506247Y-112828952D01*
X145506247Y-112828952D02*
X145458628Y-112924190D01*
X145458628Y-112924190D02*
X145411009Y-113114666D01*
X145411009Y-113114666D02*
X145363390Y-113209904D01*
X145363390Y-113209904D02*
X145315771Y-113257523D01*
X145315771Y-113257523D02*
X145220533Y-113305142D01*
X145220533Y-113305142D02*
X145125295Y-113305142D01*
X145125295Y-113305142D02*
X145030057Y-113257523D01*
X145030057Y-113257523D02*
X144982438Y-113209904D01*
X144982438Y-113209904D02*
X144934819Y-113114666D01*
X144934819Y-113114666D02*
X144934819Y-112876571D01*
X144934819Y-112876571D02*
X144982438Y-112733714D01*
X145030057Y-112352761D02*
X144982438Y-112305142D01*
X144982438Y-112305142D02*
X144934819Y-112209904D01*
X144934819Y-112209904D02*
X144934819Y-111971809D01*
X144934819Y-111971809D02*
X144982438Y-111876571D01*
X144982438Y-111876571D02*
X145030057Y-111828952D01*
X145030057Y-111828952D02*
X145125295Y-111781333D01*
X145125295Y-111781333D02*
X145220533Y-111781333D01*
X145220533Y-111781333D02*
X145363390Y-111828952D01*
X145363390Y-111828952D02*
X145934819Y-112400380D01*
X145934819Y-112400380D02*
X145934819Y-111781333D01*
X145268152Y-110924190D02*
X145934819Y-110924190D01*
X144887200Y-111162285D02*
X145601485Y-111400380D01*
X145601485Y-111400380D02*
X145601485Y-110781333D01*
X144934819Y-109924190D02*
X144934819Y-110400380D01*
X144934819Y-110400380D02*
X145411009Y-110447999D01*
X145411009Y-110447999D02*
X145363390Y-110400380D01*
X145363390Y-110400380D02*
X145315771Y-110305142D01*
X145315771Y-110305142D02*
X145315771Y-110067047D01*
X145315771Y-110067047D02*
X145363390Y-109971809D01*
X145363390Y-109971809D02*
X145411009Y-109924190D01*
X145411009Y-109924190D02*
X145506247Y-109876571D01*
X145506247Y-109876571D02*
X145744342Y-109876571D01*
X145744342Y-109876571D02*
X145839580Y-109924190D01*
X145839580Y-109924190D02*
X145887200Y-109971809D01*
X145887200Y-109971809D02*
X145934819Y-110067047D01*
X145934819Y-110067047D02*
X145934819Y-110305142D01*
X145934819Y-110305142D02*
X145887200Y-110400380D01*
X145887200Y-110400380D02*
X145839580Y-110447999D01*
X59004819Y-88017904D02*
X59814342Y-88017904D01*
X59814342Y-88017904D02*
X59909580Y-87970285D01*
X59909580Y-87970285D02*
X59957200Y-87922666D01*
X59957200Y-87922666D02*
X60004819Y-87827428D01*
X60004819Y-87827428D02*
X60004819Y-87636952D01*
X60004819Y-87636952D02*
X59957200Y-87541714D01*
X59957200Y-87541714D02*
X59909580Y-87494095D01*
X59909580Y-87494095D02*
X59814342Y-87446476D01*
X59814342Y-87446476D02*
X59004819Y-87446476D01*
X59100057Y-87017904D02*
X59052438Y-86970285D01*
X59052438Y-86970285D02*
X59004819Y-86875047D01*
X59004819Y-86875047D02*
X59004819Y-86636952D01*
X59004819Y-86636952D02*
X59052438Y-86541714D01*
X59052438Y-86541714D02*
X59100057Y-86494095D01*
X59100057Y-86494095D02*
X59195295Y-86446476D01*
X59195295Y-86446476D02*
X59290533Y-86446476D01*
X59290533Y-86446476D02*
X59433390Y-86494095D01*
X59433390Y-86494095D02*
X60004819Y-87065523D01*
X60004819Y-87065523D02*
X60004819Y-86446476D01*
X78904819Y-89898856D02*
X78904819Y-89232190D01*
X78904819Y-89232190D02*
X79904819Y-89660761D01*
X79238152Y-88422666D02*
X79904819Y-88422666D01*
X78857200Y-88660761D02*
X79571485Y-88898856D01*
X79571485Y-88898856D02*
X79571485Y-88279809D01*
X79904819Y-87422666D02*
X79904819Y-87898856D01*
X79904819Y-87898856D02*
X78904819Y-87898856D01*
X79857200Y-87136951D02*
X79904819Y-86994094D01*
X79904819Y-86994094D02*
X79904819Y-86755999D01*
X79904819Y-86755999D02*
X79857200Y-86660761D01*
X79857200Y-86660761D02*
X79809580Y-86613142D01*
X79809580Y-86613142D02*
X79714342Y-86565523D01*
X79714342Y-86565523D02*
X79619104Y-86565523D01*
X79619104Y-86565523D02*
X79523866Y-86613142D01*
X79523866Y-86613142D02*
X79476247Y-86660761D01*
X79476247Y-86660761D02*
X79428628Y-86755999D01*
X79428628Y-86755999D02*
X79381009Y-86946475D01*
X79381009Y-86946475D02*
X79333390Y-87041713D01*
X79333390Y-87041713D02*
X79285771Y-87089332D01*
X79285771Y-87089332D02*
X79190533Y-87136951D01*
X79190533Y-87136951D02*
X79095295Y-87136951D01*
X79095295Y-87136951D02*
X79000057Y-87089332D01*
X79000057Y-87089332D02*
X78952438Y-87041713D01*
X78952438Y-87041713D02*
X78904819Y-86946475D01*
X78904819Y-86946475D02*
X78904819Y-86708380D01*
X78904819Y-86708380D02*
X78952438Y-86565523D01*
X78904819Y-86232189D02*
X78904819Y-85613142D01*
X78904819Y-85613142D02*
X79285771Y-85946475D01*
X79285771Y-85946475D02*
X79285771Y-85803618D01*
X79285771Y-85803618D02*
X79333390Y-85708380D01*
X79333390Y-85708380D02*
X79381009Y-85660761D01*
X79381009Y-85660761D02*
X79476247Y-85613142D01*
X79476247Y-85613142D02*
X79714342Y-85613142D01*
X79714342Y-85613142D02*
X79809580Y-85660761D01*
X79809580Y-85660761D02*
X79857200Y-85708380D01*
X79857200Y-85708380D02*
X79904819Y-85803618D01*
X79904819Y-85803618D02*
X79904819Y-86089332D01*
X79904819Y-86089332D02*
X79857200Y-86184570D01*
X79857200Y-86184570D02*
X79809580Y-86232189D01*
X79000057Y-85232189D02*
X78952438Y-85184570D01*
X78952438Y-85184570D02*
X78904819Y-85089332D01*
X78904819Y-85089332D02*
X78904819Y-84851237D01*
X78904819Y-84851237D02*
X78952438Y-84755999D01*
X78952438Y-84755999D02*
X79000057Y-84708380D01*
X79000057Y-84708380D02*
X79095295Y-84660761D01*
X79095295Y-84660761D02*
X79190533Y-84660761D01*
X79190533Y-84660761D02*
X79333390Y-84708380D01*
X79333390Y-84708380D02*
X79904819Y-85279808D01*
X79904819Y-85279808D02*
X79904819Y-84660761D01*
X77729104Y-59935714D02*
X77729104Y-59459524D01*
X78014819Y-60030952D02*
X77014819Y-59697619D01*
X77014819Y-59697619D02*
X78014819Y-59364286D01*
X78014819Y-58888095D02*
X77967200Y-58983333D01*
X77967200Y-58983333D02*
X77871961Y-59030952D01*
X77871961Y-59030952D02*
X77014819Y-59030952D01*
X77348152Y-58078571D02*
X78014819Y-58078571D01*
X77348152Y-58507142D02*
X77871961Y-58507142D01*
X77871961Y-58507142D02*
X77967200Y-58459523D01*
X77967200Y-58459523D02*
X78014819Y-58364285D01*
X78014819Y-58364285D02*
X78014819Y-58221428D01*
X78014819Y-58221428D02*
X77967200Y-58126190D01*
X77967200Y-58126190D02*
X77919580Y-58078571D01*
X77633866Y-57602380D02*
X77633866Y-56840476D01*
X77014819Y-56459523D02*
X78014819Y-55792857D01*
X77014819Y-55792857D02*
X78014819Y-56459523D01*
X77491009Y-54316666D02*
X77538628Y-54173809D01*
X77538628Y-54173809D02*
X77586247Y-54126190D01*
X77586247Y-54126190D02*
X77681485Y-54078571D01*
X77681485Y-54078571D02*
X77824342Y-54078571D01*
X77824342Y-54078571D02*
X77919580Y-54126190D01*
X77919580Y-54126190D02*
X77967200Y-54173809D01*
X77967200Y-54173809D02*
X78014819Y-54269047D01*
X78014819Y-54269047D02*
X78014819Y-54649999D01*
X78014819Y-54649999D02*
X77014819Y-54649999D01*
X77014819Y-54649999D02*
X77014819Y-54316666D01*
X77014819Y-54316666D02*
X77062438Y-54221428D01*
X77062438Y-54221428D02*
X77110057Y-54173809D01*
X77110057Y-54173809D02*
X77205295Y-54126190D01*
X77205295Y-54126190D02*
X77300533Y-54126190D01*
X77300533Y-54126190D02*
X77395771Y-54173809D01*
X77395771Y-54173809D02*
X77443390Y-54221428D01*
X77443390Y-54221428D02*
X77491009Y-54316666D01*
X77491009Y-54316666D02*
X77491009Y-54649999D01*
X77348152Y-53221428D02*
X78014819Y-53221428D01*
X77348152Y-53649999D02*
X77871961Y-53649999D01*
X77871961Y-53649999D02*
X77967200Y-53602380D01*
X77967200Y-53602380D02*
X78014819Y-53507142D01*
X78014819Y-53507142D02*
X78014819Y-53364285D01*
X78014819Y-53364285D02*
X77967200Y-53269047D01*
X77967200Y-53269047D02*
X77919580Y-53221428D01*
X77967200Y-52792856D02*
X78014819Y-52697618D01*
X78014819Y-52697618D02*
X78014819Y-52507142D01*
X78014819Y-52507142D02*
X77967200Y-52411904D01*
X77967200Y-52411904D02*
X77871961Y-52364285D01*
X77871961Y-52364285D02*
X77824342Y-52364285D01*
X77824342Y-52364285D02*
X77729104Y-52411904D01*
X77729104Y-52411904D02*
X77681485Y-52507142D01*
X77681485Y-52507142D02*
X77681485Y-52649999D01*
X77681485Y-52649999D02*
X77633866Y-52745237D01*
X77633866Y-52745237D02*
X77538628Y-52792856D01*
X77538628Y-52792856D02*
X77491009Y-52792856D01*
X77491009Y-52792856D02*
X77395771Y-52745237D01*
X77395771Y-52745237D02*
X77348152Y-52649999D01*
X77348152Y-52649999D02*
X77348152Y-52507142D01*
X77348152Y-52507142D02*
X77395771Y-52411904D01*
D14*
X74767419Y-61112693D02*
X75767419Y-60446027D01*
X74767419Y-60446027D02*
X75767419Y-61112693D01*
X74767419Y-60160312D02*
X74767419Y-59493646D01*
X74767419Y-59493646D02*
X75767419Y-59922217D01*
D13*
X56966119Y-61129140D02*
X57966119Y-60462474D01*
X56966119Y-60462474D02*
X57966119Y-61129140D01*
X56966119Y-59891045D02*
X56966119Y-59795807D01*
X56966119Y-59795807D02*
X57013738Y-59700569D01*
X57013738Y-59700569D02*
X57061357Y-59652950D01*
X57061357Y-59652950D02*
X57156595Y-59605331D01*
X57156595Y-59605331D02*
X57347071Y-59557712D01*
X57347071Y-59557712D02*
X57585166Y-59557712D01*
X57585166Y-59557712D02*
X57775642Y-59605331D01*
X57775642Y-59605331D02*
X57870880Y-59652950D01*
X57870880Y-59652950D02*
X57918500Y-59700569D01*
X57918500Y-59700569D02*
X57966119Y-59795807D01*
X57966119Y-59795807D02*
X57966119Y-59891045D01*
X57966119Y-59891045D02*
X57918500Y-59986283D01*
X57918500Y-59986283D02*
X57870880Y-60033902D01*
X57870880Y-60033902D02*
X57775642Y-60081521D01*
X57775642Y-60081521D02*
X57585166Y-60129140D01*
X57585166Y-60129140D02*
X57347071Y-60129140D01*
X57347071Y-60129140D02*
X57156595Y-60081521D01*
X57156595Y-60081521D02*
X57061357Y-60033902D01*
X57061357Y-60033902D02*
X57013738Y-59986283D01*
X57013738Y-59986283D02*
X56966119Y-59891045D01*
X62164655Y-61129140D02*
X63164655Y-60462474D01*
X62164655Y-60462474D02*
X63164655Y-61129140D01*
X62259893Y-60129140D02*
X62212274Y-60081521D01*
X62212274Y-60081521D02*
X62164655Y-59986283D01*
X62164655Y-59986283D02*
X62164655Y-59748188D01*
X62164655Y-59748188D02*
X62212274Y-59652950D01*
X62212274Y-59652950D02*
X62259893Y-59605331D01*
X62259893Y-59605331D02*
X62355131Y-59557712D01*
X62355131Y-59557712D02*
X62450369Y-59557712D01*
X62450369Y-59557712D02*
X62593226Y-59605331D01*
X62593226Y-59605331D02*
X63164655Y-60176759D01*
X63164655Y-60176759D02*
X63164655Y-59557712D01*
D14*
X72255901Y-61112693D02*
X73255901Y-60446027D01*
X72255901Y-60446027D02*
X73255901Y-61112693D01*
X72255901Y-59636503D02*
X72255901Y-59826979D01*
X72255901Y-59826979D02*
X72303520Y-59922217D01*
X72303520Y-59922217D02*
X72351139Y-59969836D01*
X72351139Y-59969836D02*
X72493996Y-60065074D01*
X72493996Y-60065074D02*
X72684472Y-60112693D01*
X72684472Y-60112693D02*
X73065424Y-60112693D01*
X73065424Y-60112693D02*
X73160662Y-60065074D01*
X73160662Y-60065074D02*
X73208282Y-60017455D01*
X73208282Y-60017455D02*
X73255901Y-59922217D01*
X73255901Y-59922217D02*
X73255901Y-59731741D01*
X73255901Y-59731741D02*
X73208282Y-59636503D01*
X73208282Y-59636503D02*
X73160662Y-59588884D01*
X73160662Y-59588884D02*
X73065424Y-59541265D01*
X73065424Y-59541265D02*
X72827329Y-59541265D01*
X72827329Y-59541265D02*
X72732091Y-59588884D01*
X72732091Y-59588884D02*
X72684472Y-59636503D01*
X72684472Y-59636503D02*
X72636853Y-59731741D01*
X72636853Y-59731741D02*
X72636853Y-59922217D01*
X72636853Y-59922217D02*
X72684472Y-60017455D01*
X72684472Y-60017455D02*
X72732091Y-60065074D01*
X72732091Y-60065074D02*
X72827329Y-60112693D01*
X69744383Y-61112693D02*
X70744383Y-60446027D01*
X69744383Y-60446027D02*
X70744383Y-61112693D01*
X69744383Y-59588884D02*
X69744383Y-60065074D01*
X69744383Y-60065074D02*
X70220573Y-60112693D01*
X70220573Y-60112693D02*
X70172954Y-60065074D01*
X70172954Y-60065074D02*
X70125335Y-59969836D01*
X70125335Y-59969836D02*
X70125335Y-59731741D01*
X70125335Y-59731741D02*
X70172954Y-59636503D01*
X70172954Y-59636503D02*
X70220573Y-59588884D01*
X70220573Y-59588884D02*
X70315811Y-59541265D01*
X70315811Y-59541265D02*
X70553906Y-59541265D01*
X70553906Y-59541265D02*
X70649144Y-59588884D01*
X70649144Y-59588884D02*
X70696764Y-59636503D01*
X70696764Y-59636503D02*
X70744383Y-59731741D01*
X70744383Y-59731741D02*
X70744383Y-59969836D01*
X70744383Y-59969836D02*
X70696764Y-60065074D01*
X70696764Y-60065074D02*
X70649144Y-60112693D01*
X67232865Y-61112693D02*
X68232865Y-60446027D01*
X67232865Y-60446027D02*
X68232865Y-61112693D01*
X67566198Y-59636503D02*
X68232865Y-59636503D01*
X67185246Y-59874598D02*
X67899531Y-60112693D01*
X67899531Y-60112693D02*
X67899531Y-59493646D01*
X64721348Y-61112693D02*
X65721348Y-60446027D01*
X64721348Y-60446027D02*
X65721348Y-61112693D01*
X64721348Y-60160312D02*
X64721348Y-59541265D01*
X64721348Y-59541265D02*
X65102300Y-59874598D01*
X65102300Y-59874598D02*
X65102300Y-59731741D01*
X65102300Y-59731741D02*
X65149919Y-59636503D01*
X65149919Y-59636503D02*
X65197538Y-59588884D01*
X65197538Y-59588884D02*
X65292776Y-59541265D01*
X65292776Y-59541265D02*
X65530871Y-59541265D01*
X65530871Y-59541265D02*
X65626109Y-59588884D01*
X65626109Y-59588884D02*
X65673729Y-59636503D01*
X65673729Y-59636503D02*
X65721348Y-59731741D01*
X65721348Y-59731741D02*
X65721348Y-60017455D01*
X65721348Y-60017455D02*
X65673729Y-60112693D01*
X65673729Y-60112693D02*
X65626109Y-60160312D01*
D13*
X59565387Y-61129140D02*
X60565387Y-60462474D01*
X59565387Y-60462474D02*
X60565387Y-61129140D01*
X60565387Y-59557712D02*
X60565387Y-60129140D01*
X60565387Y-59843426D02*
X59565387Y-59843426D01*
X59565387Y-59843426D02*
X59708244Y-59938664D01*
X59708244Y-59938664D02*
X59803482Y-60033902D01*
X59803482Y-60033902D02*
X59851101Y-60129140D01*
D12*
X122864819Y-58649999D02*
X121864819Y-58649999D01*
X122198152Y-58173809D02*
X122864819Y-58173809D01*
X122293390Y-58173809D02*
X122245771Y-58126190D01*
X122245771Y-58126190D02*
X122198152Y-58030952D01*
X122198152Y-58030952D02*
X122198152Y-57888095D01*
X122198152Y-57888095D02*
X122245771Y-57792857D01*
X122245771Y-57792857D02*
X122341009Y-57745238D01*
X122341009Y-57745238D02*
X122864819Y-57745238D01*
X122198152Y-57269047D02*
X123198152Y-57269047D01*
X122245771Y-57269047D02*
X122198152Y-57173809D01*
X122198152Y-57173809D02*
X122198152Y-56983333D01*
X122198152Y-56983333D02*
X122245771Y-56888095D01*
X122245771Y-56888095D02*
X122293390Y-56840476D01*
X122293390Y-56840476D02*
X122388628Y-56792857D01*
X122388628Y-56792857D02*
X122674342Y-56792857D01*
X122674342Y-56792857D02*
X122769580Y-56840476D01*
X122769580Y-56840476D02*
X122817200Y-56888095D01*
X122817200Y-56888095D02*
X122864819Y-56983333D01*
X122864819Y-56983333D02*
X122864819Y-57173809D01*
X122864819Y-57173809D02*
X122817200Y-57269047D01*
X122198152Y-55935714D02*
X122864819Y-55935714D01*
X122198152Y-56364285D02*
X122721961Y-56364285D01*
X122721961Y-56364285D02*
X122817200Y-56316666D01*
X122817200Y-56316666D02*
X122864819Y-56221428D01*
X122864819Y-56221428D02*
X122864819Y-56078571D01*
X122864819Y-56078571D02*
X122817200Y-55983333D01*
X122817200Y-55983333D02*
X122769580Y-55935714D01*
X122198152Y-55602380D02*
X122198152Y-55221428D01*
X121864819Y-55459523D02*
X122721961Y-55459523D01*
X122721961Y-55459523D02*
X122817200Y-55411904D01*
X122817200Y-55411904D02*
X122864819Y-55316666D01*
X122864819Y-55316666D02*
X122864819Y-55221428D01*
X122864819Y-53602380D02*
X122864819Y-54173808D01*
X122864819Y-53888094D02*
X121864819Y-53888094D01*
X121864819Y-53888094D02*
X122007676Y-53983332D01*
X122007676Y-53983332D02*
X122102914Y-54078570D01*
X122102914Y-54078570D02*
X122150533Y-54173808D01*
D14*
X119665038Y-61636503D02*
X119617419Y-61731741D01*
X119617419Y-61731741D02*
X119617419Y-61874598D01*
X119617419Y-61874598D02*
X119665038Y-62017455D01*
X119665038Y-62017455D02*
X119760276Y-62112693D01*
X119760276Y-62112693D02*
X119855514Y-62160312D01*
X119855514Y-62160312D02*
X120045990Y-62207931D01*
X120045990Y-62207931D02*
X120188847Y-62207931D01*
X120188847Y-62207931D02*
X120379323Y-62160312D01*
X120379323Y-62160312D02*
X120474561Y-62112693D01*
X120474561Y-62112693D02*
X120569800Y-62017455D01*
X120569800Y-62017455D02*
X120617419Y-61874598D01*
X120617419Y-61874598D02*
X120617419Y-61779360D01*
X120617419Y-61779360D02*
X120569800Y-61636503D01*
X120569800Y-61636503D02*
X120522180Y-61588884D01*
X120522180Y-61588884D02*
X120188847Y-61588884D01*
X120188847Y-61588884D02*
X120188847Y-61779360D01*
X120617419Y-61160312D02*
X119617419Y-61160312D01*
X119617419Y-61160312D02*
X120617419Y-60588884D01*
X120617419Y-60588884D02*
X119617419Y-60588884D01*
X120617419Y-60112693D02*
X119617419Y-60112693D01*
X119617419Y-60112693D02*
X119617419Y-59874598D01*
X119617419Y-59874598D02*
X119665038Y-59731741D01*
X119665038Y-59731741D02*
X119760276Y-59636503D01*
X119760276Y-59636503D02*
X119855514Y-59588884D01*
X119855514Y-59588884D02*
X120045990Y-59541265D01*
X120045990Y-59541265D02*
X120188847Y-59541265D01*
X120188847Y-59541265D02*
X120379323Y-59588884D01*
X120379323Y-59588884D02*
X120474561Y-59636503D01*
X120474561Y-59636503D02*
X120569800Y-59731741D01*
X120569800Y-59731741D02*
X120617419Y-59874598D01*
X120617419Y-59874598D02*
X120617419Y-60112693D01*
D13*
X101816119Y-62129140D02*
X102816119Y-61795807D01*
X102816119Y-61795807D02*
X101816119Y-61462474D01*
X102720880Y-60557712D02*
X102768500Y-60605331D01*
X102768500Y-60605331D02*
X102816119Y-60748188D01*
X102816119Y-60748188D02*
X102816119Y-60843426D01*
X102816119Y-60843426D02*
X102768500Y-60986283D01*
X102768500Y-60986283D02*
X102673261Y-61081521D01*
X102673261Y-61081521D02*
X102578023Y-61129140D01*
X102578023Y-61129140D02*
X102387547Y-61176759D01*
X102387547Y-61176759D02*
X102244690Y-61176759D01*
X102244690Y-61176759D02*
X102054214Y-61129140D01*
X102054214Y-61129140D02*
X101958976Y-61081521D01*
X101958976Y-61081521D02*
X101863738Y-60986283D01*
X101863738Y-60986283D02*
X101816119Y-60843426D01*
X101816119Y-60843426D02*
X101816119Y-60748188D01*
X101816119Y-60748188D02*
X101863738Y-60605331D01*
X101863738Y-60605331D02*
X101911357Y-60557712D01*
X102720880Y-59557712D02*
X102768500Y-59605331D01*
X102768500Y-59605331D02*
X102816119Y-59748188D01*
X102816119Y-59748188D02*
X102816119Y-59843426D01*
X102816119Y-59843426D02*
X102768500Y-59986283D01*
X102768500Y-59986283D02*
X102673261Y-60081521D01*
X102673261Y-60081521D02*
X102578023Y-60129140D01*
X102578023Y-60129140D02*
X102387547Y-60176759D01*
X102387547Y-60176759D02*
X102244690Y-60176759D01*
X102244690Y-60176759D02*
X102054214Y-60129140D01*
X102054214Y-60129140D02*
X101958976Y-60081521D01*
X101958976Y-60081521D02*
X101863738Y-59986283D01*
X101863738Y-59986283D02*
X101816119Y-59843426D01*
X101816119Y-59843426D02*
X101816119Y-59748188D01*
X101816119Y-59748188D02*
X101863738Y-59605331D01*
X101863738Y-59605331D02*
X101911357Y-59557712D01*
X107728940Y-62033902D02*
X107728940Y-61557712D01*
X108014655Y-62129140D02*
X107014655Y-61795807D01*
X107014655Y-61795807D02*
X108014655Y-61462474D01*
X108014655Y-61129140D02*
X107014655Y-61129140D01*
X107014655Y-61129140D02*
X107014655Y-60891045D01*
X107014655Y-60891045D02*
X107062274Y-60748188D01*
X107062274Y-60748188D02*
X107157512Y-60652950D01*
X107157512Y-60652950D02*
X107252750Y-60605331D01*
X107252750Y-60605331D02*
X107443226Y-60557712D01*
X107443226Y-60557712D02*
X107586083Y-60557712D01*
X107586083Y-60557712D02*
X107776559Y-60605331D01*
X107776559Y-60605331D02*
X107871797Y-60652950D01*
X107871797Y-60652950D02*
X107967036Y-60748188D01*
X107967036Y-60748188D02*
X108014655Y-60891045D01*
X108014655Y-60891045D02*
X108014655Y-61129140D01*
X108014655Y-60129140D02*
X107014655Y-60129140D01*
X107014655Y-60129140D02*
X107014655Y-59891045D01*
X107014655Y-59891045D02*
X107062274Y-59748188D01*
X107062274Y-59748188D02*
X107157512Y-59652950D01*
X107157512Y-59652950D02*
X107252750Y-59605331D01*
X107252750Y-59605331D02*
X107443226Y-59557712D01*
X107443226Y-59557712D02*
X107586083Y-59557712D01*
X107586083Y-59557712D02*
X107776559Y-59605331D01*
X107776559Y-59605331D02*
X107871797Y-59652950D01*
X107871797Y-59652950D02*
X107967036Y-59748188D01*
X107967036Y-59748188D02*
X108014655Y-59891045D01*
X108014655Y-59891045D02*
X108014655Y-60129140D01*
X106737036Y-62124379D02*
X106737036Y-59467236D01*
D14*
X117105901Y-62207931D02*
X118105901Y-61541265D01*
X117105901Y-61541265D02*
X118105901Y-62207931D01*
X117105901Y-60969836D02*
X117105901Y-60779360D01*
X117105901Y-60779360D02*
X117153520Y-60684122D01*
X117153520Y-60684122D02*
X117248758Y-60588884D01*
X117248758Y-60588884D02*
X117439234Y-60541265D01*
X117439234Y-60541265D02*
X117772567Y-60541265D01*
X117772567Y-60541265D02*
X117963043Y-60588884D01*
X117963043Y-60588884D02*
X118058282Y-60684122D01*
X118058282Y-60684122D02*
X118105901Y-60779360D01*
X118105901Y-60779360D02*
X118105901Y-60969836D01*
X118105901Y-60969836D02*
X118058282Y-61065074D01*
X118058282Y-61065074D02*
X117963043Y-61160312D01*
X117963043Y-61160312D02*
X117772567Y-61207931D01*
X117772567Y-61207931D02*
X117439234Y-61207931D01*
X117439234Y-61207931D02*
X117248758Y-61160312D01*
X117248758Y-61160312D02*
X117153520Y-61065074D01*
X117153520Y-61065074D02*
X117105901Y-60969836D01*
X118105901Y-59541265D02*
X117629710Y-59874598D01*
X118105901Y-60112693D02*
X117105901Y-60112693D01*
X117105901Y-60112693D02*
X117105901Y-59731741D01*
X117105901Y-59731741D02*
X117153520Y-59636503D01*
X117153520Y-59636503D02*
X117201139Y-59588884D01*
X117201139Y-59588884D02*
X117296377Y-59541265D01*
X117296377Y-59541265D02*
X117439234Y-59541265D01*
X117439234Y-59541265D02*
X117534472Y-59588884D01*
X117534472Y-59588884D02*
X117582091Y-59636503D01*
X117582091Y-59636503D02*
X117629710Y-59731741D01*
X117629710Y-59731741D02*
X117629710Y-60112693D01*
X116828282Y-62250789D02*
X116828282Y-59450789D01*
X114594383Y-60969836D02*
X114594383Y-60779360D01*
X114594383Y-60779360D02*
X114642002Y-60684122D01*
X114642002Y-60684122D02*
X114737240Y-60588884D01*
X114737240Y-60588884D02*
X114927716Y-60541265D01*
X114927716Y-60541265D02*
X115261049Y-60541265D01*
X115261049Y-60541265D02*
X115451525Y-60588884D01*
X115451525Y-60588884D02*
X115546764Y-60684122D01*
X115546764Y-60684122D02*
X115594383Y-60779360D01*
X115594383Y-60779360D02*
X115594383Y-60969836D01*
X115594383Y-60969836D02*
X115546764Y-61065074D01*
X115546764Y-61065074D02*
X115451525Y-61160312D01*
X115451525Y-61160312D02*
X115261049Y-61207931D01*
X115261049Y-61207931D02*
X114927716Y-61207931D01*
X114927716Y-61207931D02*
X114737240Y-61160312D01*
X114737240Y-61160312D02*
X114642002Y-61065074D01*
X114642002Y-61065074D02*
X114594383Y-60969836D01*
X115594383Y-59541265D02*
X115118192Y-59874598D01*
X115594383Y-60112693D02*
X114594383Y-60112693D01*
X114594383Y-60112693D02*
X114594383Y-59731741D01*
X114594383Y-59731741D02*
X114642002Y-59636503D01*
X114642002Y-59636503D02*
X114689621Y-59588884D01*
X114689621Y-59588884D02*
X114784859Y-59541265D01*
X114784859Y-59541265D02*
X114927716Y-59541265D01*
X114927716Y-59541265D02*
X115022954Y-59588884D01*
X115022954Y-59588884D02*
X115070573Y-59636503D01*
X115070573Y-59636503D02*
X115118192Y-59731741D01*
X115118192Y-59731741D02*
X115118192Y-60112693D01*
X114316764Y-61298408D02*
X114316764Y-59450789D01*
X112797150Y-62065074D02*
X112797150Y-61588884D01*
X113082865Y-62160312D02*
X112082865Y-61826979D01*
X112082865Y-61826979D02*
X113082865Y-61493646D01*
X113082865Y-61160312D02*
X112082865Y-61160312D01*
X112082865Y-61160312D02*
X113082865Y-60588884D01*
X113082865Y-60588884D02*
X112082865Y-60588884D01*
X113082865Y-60112693D02*
X112082865Y-60112693D01*
X112082865Y-60112693D02*
X112082865Y-59874598D01*
X112082865Y-59874598D02*
X112130484Y-59731741D01*
X112130484Y-59731741D02*
X112225722Y-59636503D01*
X112225722Y-59636503D02*
X112320960Y-59588884D01*
X112320960Y-59588884D02*
X112511436Y-59541265D01*
X112511436Y-59541265D02*
X112654293Y-59541265D01*
X112654293Y-59541265D02*
X112844769Y-59588884D01*
X112844769Y-59588884D02*
X112940007Y-59636503D01*
X112940007Y-59636503D02*
X113035246Y-59731741D01*
X113035246Y-59731741D02*
X113082865Y-59874598D01*
X113082865Y-59874598D02*
X113082865Y-60112693D01*
X111805246Y-62155551D02*
X111805246Y-59450789D01*
X110523729Y-62160312D02*
X110571348Y-62017455D01*
X110571348Y-62017455D02*
X110571348Y-61779360D01*
X110571348Y-61779360D02*
X110523729Y-61684122D01*
X110523729Y-61684122D02*
X110476109Y-61636503D01*
X110476109Y-61636503D02*
X110380871Y-61588884D01*
X110380871Y-61588884D02*
X110285633Y-61588884D01*
X110285633Y-61588884D02*
X110190395Y-61636503D01*
X110190395Y-61636503D02*
X110142776Y-61684122D01*
X110142776Y-61684122D02*
X110095157Y-61779360D01*
X110095157Y-61779360D02*
X110047538Y-61969836D01*
X110047538Y-61969836D02*
X109999919Y-62065074D01*
X109999919Y-62065074D02*
X109952300Y-62112693D01*
X109952300Y-62112693D02*
X109857062Y-62160312D01*
X109857062Y-62160312D02*
X109761824Y-62160312D01*
X109761824Y-62160312D02*
X109666586Y-62112693D01*
X109666586Y-62112693D02*
X109618967Y-62065074D01*
X109618967Y-62065074D02*
X109571348Y-61969836D01*
X109571348Y-61969836D02*
X109571348Y-61731741D01*
X109571348Y-61731741D02*
X109618967Y-61588884D01*
X109571348Y-61160312D02*
X110380871Y-61160312D01*
X110380871Y-61160312D02*
X110476109Y-61112693D01*
X110476109Y-61112693D02*
X110523729Y-61065074D01*
X110523729Y-61065074D02*
X110571348Y-60969836D01*
X110571348Y-60969836D02*
X110571348Y-60779360D01*
X110571348Y-60779360D02*
X110523729Y-60684122D01*
X110523729Y-60684122D02*
X110476109Y-60636503D01*
X110476109Y-60636503D02*
X110380871Y-60588884D01*
X110380871Y-60588884D02*
X109571348Y-60588884D01*
X110047538Y-59779360D02*
X110095157Y-59636503D01*
X110095157Y-59636503D02*
X110142776Y-59588884D01*
X110142776Y-59588884D02*
X110238014Y-59541265D01*
X110238014Y-59541265D02*
X110380871Y-59541265D01*
X110380871Y-59541265D02*
X110476109Y-59588884D01*
X110476109Y-59588884D02*
X110523729Y-59636503D01*
X110523729Y-59636503D02*
X110571348Y-59731741D01*
X110571348Y-59731741D02*
X110571348Y-60112693D01*
X110571348Y-60112693D02*
X109571348Y-60112693D01*
X109571348Y-60112693D02*
X109571348Y-59779360D01*
X109571348Y-59779360D02*
X109618967Y-59684122D01*
X109618967Y-59684122D02*
X109666586Y-59636503D01*
X109666586Y-59636503D02*
X109761824Y-59588884D01*
X109761824Y-59588884D02*
X109857062Y-59588884D01*
X109857062Y-59588884D02*
X109952300Y-59636503D01*
X109952300Y-59636503D02*
X109999919Y-59684122D01*
X109999919Y-59684122D02*
X110047538Y-59779360D01*
X110047538Y-59779360D02*
X110047538Y-60112693D01*
X109293729Y-62250789D02*
X109293729Y-59450789D01*
D13*
X105320148Y-61367236D02*
X105367768Y-61414855D01*
X105367768Y-61414855D02*
X105415387Y-61557712D01*
X105415387Y-61557712D02*
X105415387Y-61652950D01*
X105415387Y-61652950D02*
X105367768Y-61795807D01*
X105367768Y-61795807D02*
X105272529Y-61891045D01*
X105272529Y-61891045D02*
X105177291Y-61938664D01*
X105177291Y-61938664D02*
X104986815Y-61986283D01*
X104986815Y-61986283D02*
X104843958Y-61986283D01*
X104843958Y-61986283D02*
X104653482Y-61938664D01*
X104653482Y-61938664D02*
X104558244Y-61891045D01*
X104558244Y-61891045D02*
X104463006Y-61795807D01*
X104463006Y-61795807D02*
X104415387Y-61652950D01*
X104415387Y-61652950D02*
X104415387Y-61557712D01*
X104415387Y-61557712D02*
X104463006Y-61414855D01*
X104463006Y-61414855D02*
X104510625Y-61367236D01*
X105415387Y-60462474D02*
X105415387Y-60938664D01*
X105415387Y-60938664D02*
X104415387Y-60938664D01*
X105415387Y-60129140D02*
X104415387Y-60129140D01*
X105415387Y-59557712D02*
X104843958Y-59986283D01*
X104415387Y-59557712D02*
X104986815Y-60129140D01*
D12*
X87004819Y-75171904D02*
X87814342Y-75171904D01*
X87814342Y-75171904D02*
X87909580Y-75124285D01*
X87909580Y-75124285D02*
X87957200Y-75076666D01*
X87957200Y-75076666D02*
X88004819Y-74981428D01*
X88004819Y-74981428D02*
X88004819Y-74790952D01*
X88004819Y-74790952D02*
X87957200Y-74695714D01*
X87957200Y-74695714D02*
X87909580Y-74648095D01*
X87909580Y-74648095D02*
X87814342Y-74600476D01*
X87814342Y-74600476D02*
X87004819Y-74600476D01*
X88004819Y-74076666D02*
X88004819Y-73886190D01*
X88004819Y-73886190D02*
X87957200Y-73790952D01*
X87957200Y-73790952D02*
X87909580Y-73743333D01*
X87909580Y-73743333D02*
X87766723Y-73648095D01*
X87766723Y-73648095D02*
X87576247Y-73600476D01*
X87576247Y-73600476D02*
X87195295Y-73600476D01*
X87195295Y-73600476D02*
X87100057Y-73648095D01*
X87100057Y-73648095D02*
X87052438Y-73695714D01*
X87052438Y-73695714D02*
X87004819Y-73790952D01*
X87004819Y-73790952D02*
X87004819Y-73981428D01*
X87004819Y-73981428D02*
X87052438Y-74076666D01*
X87052438Y-74076666D02*
X87100057Y-74124285D01*
X87100057Y-74124285D02*
X87195295Y-74171904D01*
X87195295Y-74171904D02*
X87433390Y-74171904D01*
X87433390Y-74171904D02*
X87528628Y-74124285D01*
X87528628Y-74124285D02*
X87576247Y-74076666D01*
X87576247Y-74076666D02*
X87623866Y-73981428D01*
X87623866Y-73981428D02*
X87623866Y-73790952D01*
X87623866Y-73790952D02*
X87576247Y-73695714D01*
X87576247Y-73695714D02*
X87528628Y-73648095D01*
X87528628Y-73648095D02*
X87433390Y-73600476D01*
X109444819Y-77529047D02*
X109444819Y-76862381D01*
X109444819Y-76862381D02*
X110444819Y-77290952D01*
X109778152Y-76052857D02*
X110444819Y-76052857D01*
X109397200Y-76290952D02*
X110111485Y-76529047D01*
X110111485Y-76529047D02*
X110111485Y-75910000D01*
X110444819Y-75052857D02*
X110444819Y-75529047D01*
X110444819Y-75529047D02*
X109444819Y-75529047D01*
X110397200Y-74767142D02*
X110444819Y-74624285D01*
X110444819Y-74624285D02*
X110444819Y-74386190D01*
X110444819Y-74386190D02*
X110397200Y-74290952D01*
X110397200Y-74290952D02*
X110349580Y-74243333D01*
X110349580Y-74243333D02*
X110254342Y-74195714D01*
X110254342Y-74195714D02*
X110159104Y-74195714D01*
X110159104Y-74195714D02*
X110063866Y-74243333D01*
X110063866Y-74243333D02*
X110016247Y-74290952D01*
X110016247Y-74290952D02*
X109968628Y-74386190D01*
X109968628Y-74386190D02*
X109921009Y-74576666D01*
X109921009Y-74576666D02*
X109873390Y-74671904D01*
X109873390Y-74671904D02*
X109825771Y-74719523D01*
X109825771Y-74719523D02*
X109730533Y-74767142D01*
X109730533Y-74767142D02*
X109635295Y-74767142D01*
X109635295Y-74767142D02*
X109540057Y-74719523D01*
X109540057Y-74719523D02*
X109492438Y-74671904D01*
X109492438Y-74671904D02*
X109444819Y-74576666D01*
X109444819Y-74576666D02*
X109444819Y-74338571D01*
X109444819Y-74338571D02*
X109492438Y-74195714D01*
X109540057Y-73814761D02*
X109492438Y-73767142D01*
X109492438Y-73767142D02*
X109444819Y-73671904D01*
X109444819Y-73671904D02*
X109444819Y-73433809D01*
X109444819Y-73433809D02*
X109492438Y-73338571D01*
X109492438Y-73338571D02*
X109540057Y-73290952D01*
X109540057Y-73290952D02*
X109635295Y-73243333D01*
X109635295Y-73243333D02*
X109730533Y-73243333D01*
X109730533Y-73243333D02*
X109873390Y-73290952D01*
X109873390Y-73290952D02*
X110444819Y-73862380D01*
X110444819Y-73862380D02*
X110444819Y-73243333D01*
X109873390Y-72671904D02*
X109825771Y-72767142D01*
X109825771Y-72767142D02*
X109778152Y-72814761D01*
X109778152Y-72814761D02*
X109682914Y-72862380D01*
X109682914Y-72862380D02*
X109635295Y-72862380D01*
X109635295Y-72862380D02*
X109540057Y-72814761D01*
X109540057Y-72814761D02*
X109492438Y-72767142D01*
X109492438Y-72767142D02*
X109444819Y-72671904D01*
X109444819Y-72671904D02*
X109444819Y-72481428D01*
X109444819Y-72481428D02*
X109492438Y-72386190D01*
X109492438Y-72386190D02*
X109540057Y-72338571D01*
X109540057Y-72338571D02*
X109635295Y-72290952D01*
X109635295Y-72290952D02*
X109682914Y-72290952D01*
X109682914Y-72290952D02*
X109778152Y-72338571D01*
X109778152Y-72338571D02*
X109825771Y-72386190D01*
X109825771Y-72386190D02*
X109873390Y-72481428D01*
X109873390Y-72481428D02*
X109873390Y-72671904D01*
X109873390Y-72671904D02*
X109921009Y-72767142D01*
X109921009Y-72767142D02*
X109968628Y-72814761D01*
X109968628Y-72814761D02*
X110063866Y-72862380D01*
X110063866Y-72862380D02*
X110254342Y-72862380D01*
X110254342Y-72862380D02*
X110349580Y-72814761D01*
X110349580Y-72814761D02*
X110397200Y-72767142D01*
X110397200Y-72767142D02*
X110444819Y-72671904D01*
X110444819Y-72671904D02*
X110444819Y-72481428D01*
X110444819Y-72481428D02*
X110397200Y-72386190D01*
X110397200Y-72386190D02*
X110349580Y-72338571D01*
X110349580Y-72338571D02*
X110254342Y-72290952D01*
X110254342Y-72290952D02*
X110063866Y-72290952D01*
X110063866Y-72290952D02*
X109968628Y-72338571D01*
X109968628Y-72338571D02*
X109921009Y-72386190D01*
X109921009Y-72386190D02*
X109873390Y-72481428D01*
X109444819Y-71957618D02*
X109444819Y-71338571D01*
X109444819Y-71338571D02*
X109825771Y-71671904D01*
X109825771Y-71671904D02*
X109825771Y-71529047D01*
X109825771Y-71529047D02*
X109873390Y-71433809D01*
X109873390Y-71433809D02*
X109921009Y-71386190D01*
X109921009Y-71386190D02*
X110016247Y-71338571D01*
X110016247Y-71338571D02*
X110254342Y-71338571D01*
X110254342Y-71338571D02*
X110349580Y-71386190D01*
X110349580Y-71386190D02*
X110397200Y-71433809D01*
X110397200Y-71433809D02*
X110444819Y-71529047D01*
X110444819Y-71529047D02*
X110444819Y-71814761D01*
X110444819Y-71814761D02*
X110397200Y-71909999D01*
X110397200Y-71909999D02*
X110349580Y-71957618D01*
X117414819Y-140133094D02*
X118224342Y-140133094D01*
X118224342Y-140133094D02*
X118319580Y-140085475D01*
X118319580Y-140085475D02*
X118367200Y-140037856D01*
X118367200Y-140037856D02*
X118414819Y-139942618D01*
X118414819Y-139942618D02*
X118414819Y-139752142D01*
X118414819Y-139752142D02*
X118367200Y-139656904D01*
X118367200Y-139656904D02*
X118319580Y-139609285D01*
X118319580Y-139609285D02*
X118224342Y-139561666D01*
X118224342Y-139561666D02*
X117414819Y-139561666D01*
X118414819Y-138561666D02*
X118414819Y-139133094D01*
X118414819Y-138847380D02*
X117414819Y-138847380D01*
X117414819Y-138847380D02*
X117557676Y-138942618D01*
X117557676Y-138942618D02*
X117652914Y-139037856D01*
X117652914Y-139037856D02*
X117700533Y-139133094D01*
X117843390Y-137990237D02*
X117795771Y-138085475D01*
X117795771Y-138085475D02*
X117748152Y-138133094D01*
X117748152Y-138133094D02*
X117652914Y-138180713D01*
X117652914Y-138180713D02*
X117605295Y-138180713D01*
X117605295Y-138180713D02*
X117510057Y-138133094D01*
X117510057Y-138133094D02*
X117462438Y-138085475D01*
X117462438Y-138085475D02*
X117414819Y-137990237D01*
X117414819Y-137990237D02*
X117414819Y-137799761D01*
X117414819Y-137799761D02*
X117462438Y-137704523D01*
X117462438Y-137704523D02*
X117510057Y-137656904D01*
X117510057Y-137656904D02*
X117605295Y-137609285D01*
X117605295Y-137609285D02*
X117652914Y-137609285D01*
X117652914Y-137609285D02*
X117748152Y-137656904D01*
X117748152Y-137656904D02*
X117795771Y-137704523D01*
X117795771Y-137704523D02*
X117843390Y-137799761D01*
X117843390Y-137799761D02*
X117843390Y-137990237D01*
X117843390Y-137990237D02*
X117891009Y-138085475D01*
X117891009Y-138085475D02*
X117938628Y-138133094D01*
X117938628Y-138133094D02*
X118033866Y-138180713D01*
X118033866Y-138180713D02*
X118224342Y-138180713D01*
X118224342Y-138180713D02*
X118319580Y-138133094D01*
X118319580Y-138133094D02*
X118367200Y-138085475D01*
X118367200Y-138085475D02*
X118414819Y-137990237D01*
X118414819Y-137990237D02*
X118414819Y-137799761D01*
X118414819Y-137799761D02*
X118367200Y-137704523D01*
X118367200Y-137704523D02*
X118319580Y-137656904D01*
X118319580Y-137656904D02*
X118224342Y-137609285D01*
X118224342Y-137609285D02*
X118033866Y-137609285D01*
X118033866Y-137609285D02*
X117938628Y-137656904D01*
X117938628Y-137656904D02*
X117891009Y-137704523D01*
X117891009Y-137704523D02*
X117843390Y-137799761D01*
X144934819Y-142014047D02*
X144934819Y-141347381D01*
X144934819Y-141347381D02*
X145934819Y-141775952D01*
X145268152Y-140537857D02*
X145934819Y-140537857D01*
X144887200Y-140775952D02*
X145601485Y-141014047D01*
X145601485Y-141014047D02*
X145601485Y-140395000D01*
X145934819Y-139537857D02*
X145934819Y-140014047D01*
X145934819Y-140014047D02*
X144934819Y-140014047D01*
X145887200Y-139252142D02*
X145934819Y-139109285D01*
X145934819Y-139109285D02*
X145934819Y-138871190D01*
X145934819Y-138871190D02*
X145887200Y-138775952D01*
X145887200Y-138775952D02*
X145839580Y-138728333D01*
X145839580Y-138728333D02*
X145744342Y-138680714D01*
X145744342Y-138680714D02*
X145649104Y-138680714D01*
X145649104Y-138680714D02*
X145553866Y-138728333D01*
X145553866Y-138728333D02*
X145506247Y-138775952D01*
X145506247Y-138775952D02*
X145458628Y-138871190D01*
X145458628Y-138871190D02*
X145411009Y-139061666D01*
X145411009Y-139061666D02*
X145363390Y-139156904D01*
X145363390Y-139156904D02*
X145315771Y-139204523D01*
X145315771Y-139204523D02*
X145220533Y-139252142D01*
X145220533Y-139252142D02*
X145125295Y-139252142D01*
X145125295Y-139252142D02*
X145030057Y-139204523D01*
X145030057Y-139204523D02*
X144982438Y-139156904D01*
X144982438Y-139156904D02*
X144934819Y-139061666D01*
X144934819Y-139061666D02*
X144934819Y-138823571D01*
X144934819Y-138823571D02*
X144982438Y-138680714D01*
X145030057Y-138299761D02*
X144982438Y-138252142D01*
X144982438Y-138252142D02*
X144934819Y-138156904D01*
X144934819Y-138156904D02*
X144934819Y-137918809D01*
X144934819Y-137918809D02*
X144982438Y-137823571D01*
X144982438Y-137823571D02*
X145030057Y-137775952D01*
X145030057Y-137775952D02*
X145125295Y-137728333D01*
X145125295Y-137728333D02*
X145220533Y-137728333D01*
X145220533Y-137728333D02*
X145363390Y-137775952D01*
X145363390Y-137775952D02*
X145934819Y-138347380D01*
X145934819Y-138347380D02*
X145934819Y-137728333D01*
X145268152Y-136871190D02*
X145934819Y-136871190D01*
X144887200Y-137109285D02*
X145601485Y-137347380D01*
X145601485Y-137347380D02*
X145601485Y-136728333D01*
X144934819Y-135871190D02*
X144934819Y-136347380D01*
X144934819Y-136347380D02*
X145411009Y-136394999D01*
X145411009Y-136394999D02*
X145363390Y-136347380D01*
X145363390Y-136347380D02*
X145315771Y-136252142D01*
X145315771Y-136252142D02*
X145315771Y-136014047D01*
X145315771Y-136014047D02*
X145363390Y-135918809D01*
X145363390Y-135918809D02*
X145411009Y-135871190D01*
X145411009Y-135871190D02*
X145506247Y-135823571D01*
X145506247Y-135823571D02*
X145744342Y-135823571D01*
X145744342Y-135823571D02*
X145839580Y-135871190D01*
X145839580Y-135871190D02*
X145887200Y-135918809D01*
X145887200Y-135918809D02*
X145934819Y-136014047D01*
X145934819Y-136014047D02*
X145934819Y-136252142D01*
X145934819Y-136252142D02*
X145887200Y-136347380D01*
X145887200Y-136347380D02*
X145839580Y-136394999D01*
X117414819Y-127638094D02*
X118224342Y-127638094D01*
X118224342Y-127638094D02*
X118319580Y-127590475D01*
X118319580Y-127590475D02*
X118367200Y-127542856D01*
X118367200Y-127542856D02*
X118414819Y-127447618D01*
X118414819Y-127447618D02*
X118414819Y-127257142D01*
X118414819Y-127257142D02*
X118367200Y-127161904D01*
X118367200Y-127161904D02*
X118319580Y-127114285D01*
X118319580Y-127114285D02*
X118224342Y-127066666D01*
X118224342Y-127066666D02*
X117414819Y-127066666D01*
X118414819Y-126066666D02*
X118414819Y-126638094D01*
X118414819Y-126352380D02*
X117414819Y-126352380D01*
X117414819Y-126352380D02*
X117557676Y-126447618D01*
X117557676Y-126447618D02*
X117652914Y-126542856D01*
X117652914Y-126542856D02*
X117700533Y-126638094D01*
X117414819Y-125161904D02*
X117414819Y-125638094D01*
X117414819Y-125638094D02*
X117891009Y-125685713D01*
X117891009Y-125685713D02*
X117843390Y-125638094D01*
X117843390Y-125638094D02*
X117795771Y-125542856D01*
X117795771Y-125542856D02*
X117795771Y-125304761D01*
X117795771Y-125304761D02*
X117843390Y-125209523D01*
X117843390Y-125209523D02*
X117891009Y-125161904D01*
X117891009Y-125161904D02*
X117986247Y-125114285D01*
X117986247Y-125114285D02*
X118224342Y-125114285D01*
X118224342Y-125114285D02*
X118319580Y-125161904D01*
X118319580Y-125161904D02*
X118367200Y-125209523D01*
X118367200Y-125209523D02*
X118414819Y-125304761D01*
X118414819Y-125304761D02*
X118414819Y-125542856D01*
X118414819Y-125542856D02*
X118367200Y-125638094D01*
X118367200Y-125638094D02*
X118319580Y-125685713D01*
X144934819Y-129519047D02*
X144934819Y-128852381D01*
X144934819Y-128852381D02*
X145934819Y-129280952D01*
X145268152Y-128042857D02*
X145934819Y-128042857D01*
X144887200Y-128280952D02*
X145601485Y-128519047D01*
X145601485Y-128519047D02*
X145601485Y-127900000D01*
X145934819Y-127042857D02*
X145934819Y-127519047D01*
X145934819Y-127519047D02*
X144934819Y-127519047D01*
X145887200Y-126757142D02*
X145934819Y-126614285D01*
X145934819Y-126614285D02*
X145934819Y-126376190D01*
X145934819Y-126376190D02*
X145887200Y-126280952D01*
X145887200Y-126280952D02*
X145839580Y-126233333D01*
X145839580Y-126233333D02*
X145744342Y-126185714D01*
X145744342Y-126185714D02*
X145649104Y-126185714D01*
X145649104Y-126185714D02*
X145553866Y-126233333D01*
X145553866Y-126233333D02*
X145506247Y-126280952D01*
X145506247Y-126280952D02*
X145458628Y-126376190D01*
X145458628Y-126376190D02*
X145411009Y-126566666D01*
X145411009Y-126566666D02*
X145363390Y-126661904D01*
X145363390Y-126661904D02*
X145315771Y-126709523D01*
X145315771Y-126709523D02*
X145220533Y-126757142D01*
X145220533Y-126757142D02*
X145125295Y-126757142D01*
X145125295Y-126757142D02*
X145030057Y-126709523D01*
X145030057Y-126709523D02*
X144982438Y-126661904D01*
X144982438Y-126661904D02*
X144934819Y-126566666D01*
X144934819Y-126566666D02*
X144934819Y-126328571D01*
X144934819Y-126328571D02*
X144982438Y-126185714D01*
X145030057Y-125804761D02*
X144982438Y-125757142D01*
X144982438Y-125757142D02*
X144934819Y-125661904D01*
X144934819Y-125661904D02*
X144934819Y-125423809D01*
X144934819Y-125423809D02*
X144982438Y-125328571D01*
X144982438Y-125328571D02*
X145030057Y-125280952D01*
X145030057Y-125280952D02*
X145125295Y-125233333D01*
X145125295Y-125233333D02*
X145220533Y-125233333D01*
X145220533Y-125233333D02*
X145363390Y-125280952D01*
X145363390Y-125280952D02*
X145934819Y-125852380D01*
X145934819Y-125852380D02*
X145934819Y-125233333D01*
X145268152Y-124376190D02*
X145934819Y-124376190D01*
X144887200Y-124614285D02*
X145601485Y-124852380D01*
X145601485Y-124852380D02*
X145601485Y-124233333D01*
X144934819Y-123376190D02*
X144934819Y-123852380D01*
X144934819Y-123852380D02*
X145411009Y-123899999D01*
X145411009Y-123899999D02*
X145363390Y-123852380D01*
X145363390Y-123852380D02*
X145315771Y-123757142D01*
X145315771Y-123757142D02*
X145315771Y-123519047D01*
X145315771Y-123519047D02*
X145363390Y-123423809D01*
X145363390Y-123423809D02*
X145411009Y-123376190D01*
X145411009Y-123376190D02*
X145506247Y-123328571D01*
X145506247Y-123328571D02*
X145744342Y-123328571D01*
X145744342Y-123328571D02*
X145839580Y-123376190D01*
X145839580Y-123376190D02*
X145887200Y-123423809D01*
X145887200Y-123423809D02*
X145934819Y-123519047D01*
X145934819Y-123519047D02*
X145934819Y-123757142D01*
X145934819Y-123757142D02*
X145887200Y-123852380D01*
X145887200Y-123852380D02*
X145839580Y-123899999D01*
X67404819Y-100863904D02*
X68214342Y-100863904D01*
X68214342Y-100863904D02*
X68309580Y-100816285D01*
X68309580Y-100816285D02*
X68357200Y-100768666D01*
X68357200Y-100768666D02*
X68404819Y-100673428D01*
X68404819Y-100673428D02*
X68404819Y-100482952D01*
X68404819Y-100482952D02*
X68357200Y-100387714D01*
X68357200Y-100387714D02*
X68309580Y-100340095D01*
X68309580Y-100340095D02*
X68214342Y-100292476D01*
X68214342Y-100292476D02*
X67404819Y-100292476D01*
X67738152Y-99387714D02*
X68404819Y-99387714D01*
X67357200Y-99625809D02*
X68071485Y-99863904D01*
X68071485Y-99863904D02*
X68071485Y-99244857D01*
X87304819Y-102744856D02*
X87304819Y-102078190D01*
X87304819Y-102078190D02*
X88304819Y-102506761D01*
X87638152Y-101268666D02*
X88304819Y-101268666D01*
X87257200Y-101506761D02*
X87971485Y-101744856D01*
X87971485Y-101744856D02*
X87971485Y-101125809D01*
X88304819Y-100268666D02*
X88304819Y-100744856D01*
X88304819Y-100744856D02*
X87304819Y-100744856D01*
X88257200Y-99982951D02*
X88304819Y-99840094D01*
X88304819Y-99840094D02*
X88304819Y-99601999D01*
X88304819Y-99601999D02*
X88257200Y-99506761D01*
X88257200Y-99506761D02*
X88209580Y-99459142D01*
X88209580Y-99459142D02*
X88114342Y-99411523D01*
X88114342Y-99411523D02*
X88019104Y-99411523D01*
X88019104Y-99411523D02*
X87923866Y-99459142D01*
X87923866Y-99459142D02*
X87876247Y-99506761D01*
X87876247Y-99506761D02*
X87828628Y-99601999D01*
X87828628Y-99601999D02*
X87781009Y-99792475D01*
X87781009Y-99792475D02*
X87733390Y-99887713D01*
X87733390Y-99887713D02*
X87685771Y-99935332D01*
X87685771Y-99935332D02*
X87590533Y-99982951D01*
X87590533Y-99982951D02*
X87495295Y-99982951D01*
X87495295Y-99982951D02*
X87400057Y-99935332D01*
X87400057Y-99935332D02*
X87352438Y-99887713D01*
X87352438Y-99887713D02*
X87304819Y-99792475D01*
X87304819Y-99792475D02*
X87304819Y-99554380D01*
X87304819Y-99554380D02*
X87352438Y-99411523D01*
X87733390Y-98840094D02*
X87685771Y-98935332D01*
X87685771Y-98935332D02*
X87638152Y-98982951D01*
X87638152Y-98982951D02*
X87542914Y-99030570D01*
X87542914Y-99030570D02*
X87495295Y-99030570D01*
X87495295Y-99030570D02*
X87400057Y-98982951D01*
X87400057Y-98982951D02*
X87352438Y-98935332D01*
X87352438Y-98935332D02*
X87304819Y-98840094D01*
X87304819Y-98840094D02*
X87304819Y-98649618D01*
X87304819Y-98649618D02*
X87352438Y-98554380D01*
X87352438Y-98554380D02*
X87400057Y-98506761D01*
X87400057Y-98506761D02*
X87495295Y-98459142D01*
X87495295Y-98459142D02*
X87542914Y-98459142D01*
X87542914Y-98459142D02*
X87638152Y-98506761D01*
X87638152Y-98506761D02*
X87685771Y-98554380D01*
X87685771Y-98554380D02*
X87733390Y-98649618D01*
X87733390Y-98649618D02*
X87733390Y-98840094D01*
X87733390Y-98840094D02*
X87781009Y-98935332D01*
X87781009Y-98935332D02*
X87828628Y-98982951D01*
X87828628Y-98982951D02*
X87923866Y-99030570D01*
X87923866Y-99030570D02*
X88114342Y-99030570D01*
X88114342Y-99030570D02*
X88209580Y-98982951D01*
X88209580Y-98982951D02*
X88257200Y-98935332D01*
X88257200Y-98935332D02*
X88304819Y-98840094D01*
X88304819Y-98840094D02*
X88304819Y-98649618D01*
X88304819Y-98649618D02*
X88257200Y-98554380D01*
X88257200Y-98554380D02*
X88209580Y-98506761D01*
X88209580Y-98506761D02*
X88114342Y-98459142D01*
X88114342Y-98459142D02*
X87923866Y-98459142D01*
X87923866Y-98459142D02*
X87828628Y-98506761D01*
X87828628Y-98506761D02*
X87781009Y-98554380D01*
X87781009Y-98554380D02*
X87733390Y-98649618D01*
X87304819Y-97601999D02*
X87304819Y-97792475D01*
X87304819Y-97792475D02*
X87352438Y-97887713D01*
X87352438Y-97887713D02*
X87400057Y-97935332D01*
X87400057Y-97935332D02*
X87542914Y-98030570D01*
X87542914Y-98030570D02*
X87733390Y-98078189D01*
X87733390Y-98078189D02*
X88114342Y-98078189D01*
X88114342Y-98078189D02*
X88209580Y-98030570D01*
X88209580Y-98030570D02*
X88257200Y-97982951D01*
X88257200Y-97982951D02*
X88304819Y-97887713D01*
X88304819Y-97887713D02*
X88304819Y-97697237D01*
X88304819Y-97697237D02*
X88257200Y-97601999D01*
X88257200Y-97601999D02*
X88209580Y-97554380D01*
X88209580Y-97554380D02*
X88114342Y-97506761D01*
X88114342Y-97506761D02*
X87876247Y-97506761D01*
X87876247Y-97506761D02*
X87781009Y-97554380D01*
X87781009Y-97554380D02*
X87733390Y-97601999D01*
X87733390Y-97601999D02*
X87685771Y-97697237D01*
X87685771Y-97697237D02*
X87685771Y-97887713D01*
X87685771Y-97887713D02*
X87733390Y-97982951D01*
X87733390Y-97982951D02*
X87781009Y-98030570D01*
X87781009Y-98030570D02*
X87876247Y-98078189D01*
X117414819Y-75171904D02*
X118224342Y-75171904D01*
X118224342Y-75171904D02*
X118319580Y-75124285D01*
X118319580Y-75124285D02*
X118367200Y-75076666D01*
X118367200Y-75076666D02*
X118414819Y-74981428D01*
X118414819Y-74981428D02*
X118414819Y-74790952D01*
X118414819Y-74790952D02*
X118367200Y-74695714D01*
X118367200Y-74695714D02*
X118319580Y-74648095D01*
X118319580Y-74648095D02*
X118224342Y-74600476D01*
X118224342Y-74600476D02*
X117414819Y-74600476D01*
X117414819Y-73695714D02*
X117414819Y-73886190D01*
X117414819Y-73886190D02*
X117462438Y-73981428D01*
X117462438Y-73981428D02*
X117510057Y-74029047D01*
X117510057Y-74029047D02*
X117652914Y-74124285D01*
X117652914Y-74124285D02*
X117843390Y-74171904D01*
X117843390Y-74171904D02*
X118224342Y-74171904D01*
X118224342Y-74171904D02*
X118319580Y-74124285D01*
X118319580Y-74124285D02*
X118367200Y-74076666D01*
X118367200Y-74076666D02*
X118414819Y-73981428D01*
X118414819Y-73981428D02*
X118414819Y-73790952D01*
X118414819Y-73790952D02*
X118367200Y-73695714D01*
X118367200Y-73695714D02*
X118319580Y-73648095D01*
X118319580Y-73648095D02*
X118224342Y-73600476D01*
X118224342Y-73600476D02*
X117986247Y-73600476D01*
X117986247Y-73600476D02*
X117891009Y-73648095D01*
X117891009Y-73648095D02*
X117843390Y-73695714D01*
X117843390Y-73695714D02*
X117795771Y-73790952D01*
X117795771Y-73790952D02*
X117795771Y-73981428D01*
X117795771Y-73981428D02*
X117843390Y-74076666D01*
X117843390Y-74076666D02*
X117891009Y-74124285D01*
X117891009Y-74124285D02*
X117986247Y-74171904D01*
X144934819Y-77529047D02*
X144934819Y-76862381D01*
X144934819Y-76862381D02*
X145934819Y-77290952D01*
X145268152Y-76052857D02*
X145934819Y-76052857D01*
X144887200Y-76290952D02*
X145601485Y-76529047D01*
X145601485Y-76529047D02*
X145601485Y-75910000D01*
X145934819Y-75052857D02*
X145934819Y-75529047D01*
X145934819Y-75529047D02*
X144934819Y-75529047D01*
X145887200Y-74767142D02*
X145934819Y-74624285D01*
X145934819Y-74624285D02*
X145934819Y-74386190D01*
X145934819Y-74386190D02*
X145887200Y-74290952D01*
X145887200Y-74290952D02*
X145839580Y-74243333D01*
X145839580Y-74243333D02*
X145744342Y-74195714D01*
X145744342Y-74195714D02*
X145649104Y-74195714D01*
X145649104Y-74195714D02*
X145553866Y-74243333D01*
X145553866Y-74243333D02*
X145506247Y-74290952D01*
X145506247Y-74290952D02*
X145458628Y-74386190D01*
X145458628Y-74386190D02*
X145411009Y-74576666D01*
X145411009Y-74576666D02*
X145363390Y-74671904D01*
X145363390Y-74671904D02*
X145315771Y-74719523D01*
X145315771Y-74719523D02*
X145220533Y-74767142D01*
X145220533Y-74767142D02*
X145125295Y-74767142D01*
X145125295Y-74767142D02*
X145030057Y-74719523D01*
X145030057Y-74719523D02*
X144982438Y-74671904D01*
X144982438Y-74671904D02*
X144934819Y-74576666D01*
X144934819Y-74576666D02*
X144934819Y-74338571D01*
X144934819Y-74338571D02*
X144982438Y-74195714D01*
X145030057Y-73814761D02*
X144982438Y-73767142D01*
X144982438Y-73767142D02*
X144934819Y-73671904D01*
X144934819Y-73671904D02*
X144934819Y-73433809D01*
X144934819Y-73433809D02*
X144982438Y-73338571D01*
X144982438Y-73338571D02*
X145030057Y-73290952D01*
X145030057Y-73290952D02*
X145125295Y-73243333D01*
X145125295Y-73243333D02*
X145220533Y-73243333D01*
X145220533Y-73243333D02*
X145363390Y-73290952D01*
X145363390Y-73290952D02*
X145934819Y-73862380D01*
X145934819Y-73862380D02*
X145934819Y-73243333D01*
X145268152Y-72386190D02*
X145934819Y-72386190D01*
X144887200Y-72624285D02*
X145601485Y-72862380D01*
X145601485Y-72862380D02*
X145601485Y-72243333D01*
X144934819Y-71386190D02*
X144934819Y-71862380D01*
X144934819Y-71862380D02*
X145411009Y-71909999D01*
X145411009Y-71909999D02*
X145363390Y-71862380D01*
X145363390Y-71862380D02*
X145315771Y-71767142D01*
X145315771Y-71767142D02*
X145315771Y-71529047D01*
X145315771Y-71529047D02*
X145363390Y-71433809D01*
X145363390Y-71433809D02*
X145411009Y-71386190D01*
X145411009Y-71386190D02*
X145506247Y-71338571D01*
X145506247Y-71338571D02*
X145744342Y-71338571D01*
X145744342Y-71338571D02*
X145839580Y-71386190D01*
X145839580Y-71386190D02*
X145887200Y-71433809D01*
X145887200Y-71433809D02*
X145934819Y-71529047D01*
X145934819Y-71529047D02*
X145934819Y-71767142D01*
X145934819Y-71767142D02*
X145887200Y-71862380D01*
X145887200Y-71862380D02*
X145839580Y-71909999D01*
X145019104Y-60736428D02*
X145019104Y-60260238D01*
X145304819Y-60831666D02*
X144304819Y-60498333D01*
X144304819Y-60498333D02*
X145304819Y-60165000D01*
X145304819Y-59688809D02*
X145257200Y-59784047D01*
X145257200Y-59784047D02*
X145161961Y-59831666D01*
X145161961Y-59831666D02*
X144304819Y-59831666D01*
X144638152Y-58879285D02*
X145304819Y-58879285D01*
X144638152Y-59307856D02*
X145161961Y-59307856D01*
X145161961Y-59307856D02*
X145257200Y-59260237D01*
X145257200Y-59260237D02*
X145304819Y-59164999D01*
X145304819Y-59164999D02*
X145304819Y-59022142D01*
X145304819Y-59022142D02*
X145257200Y-58926904D01*
X145257200Y-58926904D02*
X145209580Y-58879285D01*
X144923866Y-58403094D02*
X144923866Y-57641190D01*
X144304819Y-56974523D02*
X144304819Y-56784047D01*
X144304819Y-56784047D02*
X144352438Y-56688809D01*
X144352438Y-56688809D02*
X144447676Y-56593571D01*
X144447676Y-56593571D02*
X144638152Y-56545952D01*
X144638152Y-56545952D02*
X144971485Y-56545952D01*
X144971485Y-56545952D02*
X145161961Y-56593571D01*
X145161961Y-56593571D02*
X145257200Y-56688809D01*
X145257200Y-56688809D02*
X145304819Y-56784047D01*
X145304819Y-56784047D02*
X145304819Y-56974523D01*
X145304819Y-56974523D02*
X145257200Y-57069761D01*
X145257200Y-57069761D02*
X145161961Y-57164999D01*
X145161961Y-57164999D02*
X144971485Y-57212618D01*
X144971485Y-57212618D02*
X144638152Y-57212618D01*
X144638152Y-57212618D02*
X144447676Y-57164999D01*
X144447676Y-57164999D02*
X144352438Y-57069761D01*
X144352438Y-57069761D02*
X144304819Y-56974523D01*
X144638152Y-55688809D02*
X145304819Y-55688809D01*
X144638152Y-56117380D02*
X145161961Y-56117380D01*
X145161961Y-56117380D02*
X145257200Y-56069761D01*
X145257200Y-56069761D02*
X145304819Y-55974523D01*
X145304819Y-55974523D02*
X145304819Y-55831666D01*
X145304819Y-55831666D02*
X145257200Y-55736428D01*
X145257200Y-55736428D02*
X145209580Y-55688809D01*
X144638152Y-55355475D02*
X144638152Y-54974523D01*
X144304819Y-55212618D02*
X145161961Y-55212618D01*
X145161961Y-55212618D02*
X145257200Y-55164999D01*
X145257200Y-55164999D02*
X145304819Y-55069761D01*
X145304819Y-55069761D02*
X145304819Y-54974523D01*
X144781009Y-53545951D02*
X144828628Y-53403094D01*
X144828628Y-53403094D02*
X144876247Y-53355475D01*
X144876247Y-53355475D02*
X144971485Y-53307856D01*
X144971485Y-53307856D02*
X145114342Y-53307856D01*
X145114342Y-53307856D02*
X145209580Y-53355475D01*
X145209580Y-53355475D02*
X145257200Y-53403094D01*
X145257200Y-53403094D02*
X145304819Y-53498332D01*
X145304819Y-53498332D02*
X145304819Y-53879284D01*
X145304819Y-53879284D02*
X144304819Y-53879284D01*
X144304819Y-53879284D02*
X144304819Y-53545951D01*
X144304819Y-53545951D02*
X144352438Y-53450713D01*
X144352438Y-53450713D02*
X144400057Y-53403094D01*
X144400057Y-53403094D02*
X144495295Y-53355475D01*
X144495295Y-53355475D02*
X144590533Y-53355475D01*
X144590533Y-53355475D02*
X144685771Y-53403094D01*
X144685771Y-53403094D02*
X144733390Y-53450713D01*
X144733390Y-53450713D02*
X144781009Y-53545951D01*
X144781009Y-53545951D02*
X144781009Y-53879284D01*
X144638152Y-52450713D02*
X145304819Y-52450713D01*
X144638152Y-52879284D02*
X145161961Y-52879284D01*
X145161961Y-52879284D02*
X145257200Y-52831665D01*
X145257200Y-52831665D02*
X145304819Y-52736427D01*
X145304819Y-52736427D02*
X145304819Y-52593570D01*
X145304819Y-52593570D02*
X145257200Y-52498332D01*
X145257200Y-52498332D02*
X145209580Y-52450713D01*
X145257200Y-52022141D02*
X145304819Y-51926903D01*
X145304819Y-51926903D02*
X145304819Y-51736427D01*
X145304819Y-51736427D02*
X145257200Y-51641189D01*
X145257200Y-51641189D02*
X145161961Y-51593570D01*
X145161961Y-51593570D02*
X145114342Y-51593570D01*
X145114342Y-51593570D02*
X145019104Y-51641189D01*
X145019104Y-51641189D02*
X144971485Y-51736427D01*
X144971485Y-51736427D02*
X144971485Y-51879284D01*
X144971485Y-51879284D02*
X144923866Y-51974522D01*
X144923866Y-51974522D02*
X144828628Y-52022141D01*
X144828628Y-52022141D02*
X144781009Y-52022141D01*
X144781009Y-52022141D02*
X144685771Y-51974522D01*
X144685771Y-51974522D02*
X144638152Y-51879284D01*
X144638152Y-51879284D02*
X144638152Y-51736427D01*
X144638152Y-51736427D02*
X144685771Y-51641189D01*
D14*
X142057419Y-60937217D02*
X142057419Y-60746741D01*
X142057419Y-60746741D02*
X142105038Y-60651503D01*
X142105038Y-60651503D02*
X142200276Y-60556265D01*
X142200276Y-60556265D02*
X142390752Y-60508646D01*
X142390752Y-60508646D02*
X142724085Y-60508646D01*
X142724085Y-60508646D02*
X142914561Y-60556265D01*
X142914561Y-60556265D02*
X143009800Y-60651503D01*
X143009800Y-60651503D02*
X143057419Y-60746741D01*
X143057419Y-60746741D02*
X143057419Y-60937217D01*
X143057419Y-60937217D02*
X143009800Y-61032455D01*
X143009800Y-61032455D02*
X142914561Y-61127693D01*
X142914561Y-61127693D02*
X142724085Y-61175312D01*
X142724085Y-61175312D02*
X142390752Y-61175312D01*
X142390752Y-61175312D02*
X142200276Y-61127693D01*
X142200276Y-61127693D02*
X142105038Y-61032455D01*
X142105038Y-61032455D02*
X142057419Y-60937217D01*
X142057419Y-60175312D02*
X142057419Y-59508646D01*
X142057419Y-59508646D02*
X143057419Y-59937217D01*
D13*
X124256119Y-60953664D02*
X124256119Y-60763188D01*
X124256119Y-60763188D02*
X124303738Y-60667950D01*
X124303738Y-60667950D02*
X124398976Y-60572712D01*
X124398976Y-60572712D02*
X124589452Y-60525093D01*
X124589452Y-60525093D02*
X124922785Y-60525093D01*
X124922785Y-60525093D02*
X125113261Y-60572712D01*
X125113261Y-60572712D02*
X125208500Y-60667950D01*
X125208500Y-60667950D02*
X125256119Y-60763188D01*
X125256119Y-60763188D02*
X125256119Y-60953664D01*
X125256119Y-60953664D02*
X125208500Y-61048902D01*
X125208500Y-61048902D02*
X125113261Y-61144140D01*
X125113261Y-61144140D02*
X124922785Y-61191759D01*
X124922785Y-61191759D02*
X124589452Y-61191759D01*
X124589452Y-61191759D02*
X124398976Y-61144140D01*
X124398976Y-61144140D02*
X124303738Y-61048902D01*
X124303738Y-61048902D02*
X124256119Y-60953664D01*
X124256119Y-59906045D02*
X124256119Y-59810807D01*
X124256119Y-59810807D02*
X124303738Y-59715569D01*
X124303738Y-59715569D02*
X124351357Y-59667950D01*
X124351357Y-59667950D02*
X124446595Y-59620331D01*
X124446595Y-59620331D02*
X124637071Y-59572712D01*
X124637071Y-59572712D02*
X124875166Y-59572712D01*
X124875166Y-59572712D02*
X125065642Y-59620331D01*
X125065642Y-59620331D02*
X125160880Y-59667950D01*
X125160880Y-59667950D02*
X125208500Y-59715569D01*
X125208500Y-59715569D02*
X125256119Y-59810807D01*
X125256119Y-59810807D02*
X125256119Y-59906045D01*
X125256119Y-59906045D02*
X125208500Y-60001283D01*
X125208500Y-60001283D02*
X125160880Y-60048902D01*
X125160880Y-60048902D02*
X125065642Y-60096521D01*
X125065642Y-60096521D02*
X124875166Y-60144140D01*
X124875166Y-60144140D02*
X124637071Y-60144140D01*
X124637071Y-60144140D02*
X124446595Y-60096521D01*
X124446595Y-60096521D02*
X124351357Y-60048902D01*
X124351357Y-60048902D02*
X124303738Y-60001283D01*
X124303738Y-60001283D02*
X124256119Y-59906045D01*
X129454655Y-60953664D02*
X129454655Y-60763188D01*
X129454655Y-60763188D02*
X129502274Y-60667950D01*
X129502274Y-60667950D02*
X129597512Y-60572712D01*
X129597512Y-60572712D02*
X129787988Y-60525093D01*
X129787988Y-60525093D02*
X130121321Y-60525093D01*
X130121321Y-60525093D02*
X130311797Y-60572712D01*
X130311797Y-60572712D02*
X130407036Y-60667950D01*
X130407036Y-60667950D02*
X130454655Y-60763188D01*
X130454655Y-60763188D02*
X130454655Y-60953664D01*
X130454655Y-60953664D02*
X130407036Y-61048902D01*
X130407036Y-61048902D02*
X130311797Y-61144140D01*
X130311797Y-61144140D02*
X130121321Y-61191759D01*
X130121321Y-61191759D02*
X129787988Y-61191759D01*
X129787988Y-61191759D02*
X129597512Y-61144140D01*
X129597512Y-61144140D02*
X129502274Y-61048902D01*
X129502274Y-61048902D02*
X129454655Y-60953664D01*
X129549893Y-60144140D02*
X129502274Y-60096521D01*
X129502274Y-60096521D02*
X129454655Y-60001283D01*
X129454655Y-60001283D02*
X129454655Y-59763188D01*
X129454655Y-59763188D02*
X129502274Y-59667950D01*
X129502274Y-59667950D02*
X129549893Y-59620331D01*
X129549893Y-59620331D02*
X129645131Y-59572712D01*
X129645131Y-59572712D02*
X129740369Y-59572712D01*
X129740369Y-59572712D02*
X129883226Y-59620331D01*
X129883226Y-59620331D02*
X130454655Y-60191759D01*
X130454655Y-60191759D02*
X130454655Y-59572712D01*
D14*
X139545901Y-60937217D02*
X139545901Y-60746741D01*
X139545901Y-60746741D02*
X139593520Y-60651503D01*
X139593520Y-60651503D02*
X139688758Y-60556265D01*
X139688758Y-60556265D02*
X139879234Y-60508646D01*
X139879234Y-60508646D02*
X140212567Y-60508646D01*
X140212567Y-60508646D02*
X140403043Y-60556265D01*
X140403043Y-60556265D02*
X140498282Y-60651503D01*
X140498282Y-60651503D02*
X140545901Y-60746741D01*
X140545901Y-60746741D02*
X140545901Y-60937217D01*
X140545901Y-60937217D02*
X140498282Y-61032455D01*
X140498282Y-61032455D02*
X140403043Y-61127693D01*
X140403043Y-61127693D02*
X140212567Y-61175312D01*
X140212567Y-61175312D02*
X139879234Y-61175312D01*
X139879234Y-61175312D02*
X139688758Y-61127693D01*
X139688758Y-61127693D02*
X139593520Y-61032455D01*
X139593520Y-61032455D02*
X139545901Y-60937217D01*
X139545901Y-59651503D02*
X139545901Y-59841979D01*
X139545901Y-59841979D02*
X139593520Y-59937217D01*
X139593520Y-59937217D02*
X139641139Y-59984836D01*
X139641139Y-59984836D02*
X139783996Y-60080074D01*
X139783996Y-60080074D02*
X139974472Y-60127693D01*
X139974472Y-60127693D02*
X140355424Y-60127693D01*
X140355424Y-60127693D02*
X140450662Y-60080074D01*
X140450662Y-60080074D02*
X140498282Y-60032455D01*
X140498282Y-60032455D02*
X140545901Y-59937217D01*
X140545901Y-59937217D02*
X140545901Y-59746741D01*
X140545901Y-59746741D02*
X140498282Y-59651503D01*
X140498282Y-59651503D02*
X140450662Y-59603884D01*
X140450662Y-59603884D02*
X140355424Y-59556265D01*
X140355424Y-59556265D02*
X140117329Y-59556265D01*
X140117329Y-59556265D02*
X140022091Y-59603884D01*
X140022091Y-59603884D02*
X139974472Y-59651503D01*
X139974472Y-59651503D02*
X139926853Y-59746741D01*
X139926853Y-59746741D02*
X139926853Y-59937217D01*
X139926853Y-59937217D02*
X139974472Y-60032455D01*
X139974472Y-60032455D02*
X140022091Y-60080074D01*
X140022091Y-60080074D02*
X140117329Y-60127693D01*
X137034383Y-60937217D02*
X137034383Y-60746741D01*
X137034383Y-60746741D02*
X137082002Y-60651503D01*
X137082002Y-60651503D02*
X137177240Y-60556265D01*
X137177240Y-60556265D02*
X137367716Y-60508646D01*
X137367716Y-60508646D02*
X137701049Y-60508646D01*
X137701049Y-60508646D02*
X137891525Y-60556265D01*
X137891525Y-60556265D02*
X137986764Y-60651503D01*
X137986764Y-60651503D02*
X138034383Y-60746741D01*
X138034383Y-60746741D02*
X138034383Y-60937217D01*
X138034383Y-60937217D02*
X137986764Y-61032455D01*
X137986764Y-61032455D02*
X137891525Y-61127693D01*
X137891525Y-61127693D02*
X137701049Y-61175312D01*
X137701049Y-61175312D02*
X137367716Y-61175312D01*
X137367716Y-61175312D02*
X137177240Y-61127693D01*
X137177240Y-61127693D02*
X137082002Y-61032455D01*
X137082002Y-61032455D02*
X137034383Y-60937217D01*
X137034383Y-59603884D02*
X137034383Y-60080074D01*
X137034383Y-60080074D02*
X137510573Y-60127693D01*
X137510573Y-60127693D02*
X137462954Y-60080074D01*
X137462954Y-60080074D02*
X137415335Y-59984836D01*
X137415335Y-59984836D02*
X137415335Y-59746741D01*
X137415335Y-59746741D02*
X137462954Y-59651503D01*
X137462954Y-59651503D02*
X137510573Y-59603884D01*
X137510573Y-59603884D02*
X137605811Y-59556265D01*
X137605811Y-59556265D02*
X137843906Y-59556265D01*
X137843906Y-59556265D02*
X137939144Y-59603884D01*
X137939144Y-59603884D02*
X137986764Y-59651503D01*
X137986764Y-59651503D02*
X138034383Y-59746741D01*
X138034383Y-59746741D02*
X138034383Y-59984836D01*
X138034383Y-59984836D02*
X137986764Y-60080074D01*
X137986764Y-60080074D02*
X137939144Y-60127693D01*
X134522865Y-60937217D02*
X134522865Y-60746741D01*
X134522865Y-60746741D02*
X134570484Y-60651503D01*
X134570484Y-60651503D02*
X134665722Y-60556265D01*
X134665722Y-60556265D02*
X134856198Y-60508646D01*
X134856198Y-60508646D02*
X135189531Y-60508646D01*
X135189531Y-60508646D02*
X135380007Y-60556265D01*
X135380007Y-60556265D02*
X135475246Y-60651503D01*
X135475246Y-60651503D02*
X135522865Y-60746741D01*
X135522865Y-60746741D02*
X135522865Y-60937217D01*
X135522865Y-60937217D02*
X135475246Y-61032455D01*
X135475246Y-61032455D02*
X135380007Y-61127693D01*
X135380007Y-61127693D02*
X135189531Y-61175312D01*
X135189531Y-61175312D02*
X134856198Y-61175312D01*
X134856198Y-61175312D02*
X134665722Y-61127693D01*
X134665722Y-61127693D02*
X134570484Y-61032455D01*
X134570484Y-61032455D02*
X134522865Y-60937217D01*
X134856198Y-59651503D02*
X135522865Y-59651503D01*
X134475246Y-59889598D02*
X135189531Y-60127693D01*
X135189531Y-60127693D02*
X135189531Y-59508646D01*
X132011348Y-60937217D02*
X132011348Y-60746741D01*
X132011348Y-60746741D02*
X132058967Y-60651503D01*
X132058967Y-60651503D02*
X132154205Y-60556265D01*
X132154205Y-60556265D02*
X132344681Y-60508646D01*
X132344681Y-60508646D02*
X132678014Y-60508646D01*
X132678014Y-60508646D02*
X132868490Y-60556265D01*
X132868490Y-60556265D02*
X132963729Y-60651503D01*
X132963729Y-60651503D02*
X133011348Y-60746741D01*
X133011348Y-60746741D02*
X133011348Y-60937217D01*
X133011348Y-60937217D02*
X132963729Y-61032455D01*
X132963729Y-61032455D02*
X132868490Y-61127693D01*
X132868490Y-61127693D02*
X132678014Y-61175312D01*
X132678014Y-61175312D02*
X132344681Y-61175312D01*
X132344681Y-61175312D02*
X132154205Y-61127693D01*
X132154205Y-61127693D02*
X132058967Y-61032455D01*
X132058967Y-61032455D02*
X132011348Y-60937217D01*
X132011348Y-60175312D02*
X132011348Y-59556265D01*
X132011348Y-59556265D02*
X132392300Y-59889598D01*
X132392300Y-59889598D02*
X132392300Y-59746741D01*
X132392300Y-59746741D02*
X132439919Y-59651503D01*
X132439919Y-59651503D02*
X132487538Y-59603884D01*
X132487538Y-59603884D02*
X132582776Y-59556265D01*
X132582776Y-59556265D02*
X132820871Y-59556265D01*
X132820871Y-59556265D02*
X132916109Y-59603884D01*
X132916109Y-59603884D02*
X132963729Y-59651503D01*
X132963729Y-59651503D02*
X133011348Y-59746741D01*
X133011348Y-59746741D02*
X133011348Y-60032455D01*
X133011348Y-60032455D02*
X132963729Y-60127693D01*
X132963729Y-60127693D02*
X132916109Y-60175312D01*
D13*
X126855387Y-60953664D02*
X126855387Y-60763188D01*
X126855387Y-60763188D02*
X126903006Y-60667950D01*
X126903006Y-60667950D02*
X126998244Y-60572712D01*
X126998244Y-60572712D02*
X127188720Y-60525093D01*
X127188720Y-60525093D02*
X127522053Y-60525093D01*
X127522053Y-60525093D02*
X127712529Y-60572712D01*
X127712529Y-60572712D02*
X127807768Y-60667950D01*
X127807768Y-60667950D02*
X127855387Y-60763188D01*
X127855387Y-60763188D02*
X127855387Y-60953664D01*
X127855387Y-60953664D02*
X127807768Y-61048902D01*
X127807768Y-61048902D02*
X127712529Y-61144140D01*
X127712529Y-61144140D02*
X127522053Y-61191759D01*
X127522053Y-61191759D02*
X127188720Y-61191759D01*
X127188720Y-61191759D02*
X126998244Y-61144140D01*
X126998244Y-61144140D02*
X126903006Y-61048902D01*
X126903006Y-61048902D02*
X126855387Y-60953664D01*
X127855387Y-59572712D02*
X127855387Y-60144140D01*
X127855387Y-59858426D02*
X126855387Y-59858426D01*
X126855387Y-59858426D02*
X126998244Y-59953664D01*
X126998244Y-59953664D02*
X127093482Y-60048902D01*
X127093482Y-60048902D02*
X127141101Y-60144140D01*
D12*
X58994819Y-75171904D02*
X59804342Y-75171904D01*
X59804342Y-75171904D02*
X59899580Y-75124285D01*
X59899580Y-75124285D02*
X59947200Y-75076666D01*
X59947200Y-75076666D02*
X59994819Y-74981428D01*
X59994819Y-74981428D02*
X59994819Y-74790952D01*
X59994819Y-74790952D02*
X59947200Y-74695714D01*
X59947200Y-74695714D02*
X59899580Y-74648095D01*
X59899580Y-74648095D02*
X59804342Y-74600476D01*
X59804342Y-74600476D02*
X58994819Y-74600476D01*
X58994819Y-73648095D02*
X58994819Y-74124285D01*
X58994819Y-74124285D02*
X59471009Y-74171904D01*
X59471009Y-74171904D02*
X59423390Y-74124285D01*
X59423390Y-74124285D02*
X59375771Y-74029047D01*
X59375771Y-74029047D02*
X59375771Y-73790952D01*
X59375771Y-73790952D02*
X59423390Y-73695714D01*
X59423390Y-73695714D02*
X59471009Y-73648095D01*
X59471009Y-73648095D02*
X59566247Y-73600476D01*
X59566247Y-73600476D02*
X59804342Y-73600476D01*
X59804342Y-73600476D02*
X59899580Y-73648095D01*
X59899580Y-73648095D02*
X59947200Y-73695714D01*
X59947200Y-73695714D02*
X59994819Y-73790952D01*
X59994819Y-73790952D02*
X59994819Y-74029047D01*
X59994819Y-74029047D02*
X59947200Y-74124285D01*
X59947200Y-74124285D02*
X59899580Y-74171904D01*
X81434819Y-77529047D02*
X81434819Y-76862381D01*
X81434819Y-76862381D02*
X82434819Y-77290952D01*
X81768152Y-76052857D02*
X82434819Y-76052857D01*
X81387200Y-76290952D02*
X82101485Y-76529047D01*
X82101485Y-76529047D02*
X82101485Y-75910000D01*
X82434819Y-75052857D02*
X82434819Y-75529047D01*
X82434819Y-75529047D02*
X81434819Y-75529047D01*
X82387200Y-74767142D02*
X82434819Y-74624285D01*
X82434819Y-74624285D02*
X82434819Y-74386190D01*
X82434819Y-74386190D02*
X82387200Y-74290952D01*
X82387200Y-74290952D02*
X82339580Y-74243333D01*
X82339580Y-74243333D02*
X82244342Y-74195714D01*
X82244342Y-74195714D02*
X82149104Y-74195714D01*
X82149104Y-74195714D02*
X82053866Y-74243333D01*
X82053866Y-74243333D02*
X82006247Y-74290952D01*
X82006247Y-74290952D02*
X81958628Y-74386190D01*
X81958628Y-74386190D02*
X81911009Y-74576666D01*
X81911009Y-74576666D02*
X81863390Y-74671904D01*
X81863390Y-74671904D02*
X81815771Y-74719523D01*
X81815771Y-74719523D02*
X81720533Y-74767142D01*
X81720533Y-74767142D02*
X81625295Y-74767142D01*
X81625295Y-74767142D02*
X81530057Y-74719523D01*
X81530057Y-74719523D02*
X81482438Y-74671904D01*
X81482438Y-74671904D02*
X81434819Y-74576666D01*
X81434819Y-74576666D02*
X81434819Y-74338571D01*
X81434819Y-74338571D02*
X81482438Y-74195714D01*
X81530057Y-73814761D02*
X81482438Y-73767142D01*
X81482438Y-73767142D02*
X81434819Y-73671904D01*
X81434819Y-73671904D02*
X81434819Y-73433809D01*
X81434819Y-73433809D02*
X81482438Y-73338571D01*
X81482438Y-73338571D02*
X81530057Y-73290952D01*
X81530057Y-73290952D02*
X81625295Y-73243333D01*
X81625295Y-73243333D02*
X81720533Y-73243333D01*
X81720533Y-73243333D02*
X81863390Y-73290952D01*
X81863390Y-73290952D02*
X82434819Y-73862380D01*
X82434819Y-73862380D02*
X82434819Y-73243333D01*
X81863390Y-72671904D02*
X81815771Y-72767142D01*
X81815771Y-72767142D02*
X81768152Y-72814761D01*
X81768152Y-72814761D02*
X81672914Y-72862380D01*
X81672914Y-72862380D02*
X81625295Y-72862380D01*
X81625295Y-72862380D02*
X81530057Y-72814761D01*
X81530057Y-72814761D02*
X81482438Y-72767142D01*
X81482438Y-72767142D02*
X81434819Y-72671904D01*
X81434819Y-72671904D02*
X81434819Y-72481428D01*
X81434819Y-72481428D02*
X81482438Y-72386190D01*
X81482438Y-72386190D02*
X81530057Y-72338571D01*
X81530057Y-72338571D02*
X81625295Y-72290952D01*
X81625295Y-72290952D02*
X81672914Y-72290952D01*
X81672914Y-72290952D02*
X81768152Y-72338571D01*
X81768152Y-72338571D02*
X81815771Y-72386190D01*
X81815771Y-72386190D02*
X81863390Y-72481428D01*
X81863390Y-72481428D02*
X81863390Y-72671904D01*
X81863390Y-72671904D02*
X81911009Y-72767142D01*
X81911009Y-72767142D02*
X81958628Y-72814761D01*
X81958628Y-72814761D02*
X82053866Y-72862380D01*
X82053866Y-72862380D02*
X82244342Y-72862380D01*
X82244342Y-72862380D02*
X82339580Y-72814761D01*
X82339580Y-72814761D02*
X82387200Y-72767142D01*
X82387200Y-72767142D02*
X82434819Y-72671904D01*
X82434819Y-72671904D02*
X82434819Y-72481428D01*
X82434819Y-72481428D02*
X82387200Y-72386190D01*
X82387200Y-72386190D02*
X82339580Y-72338571D01*
X82339580Y-72338571D02*
X82244342Y-72290952D01*
X82244342Y-72290952D02*
X82053866Y-72290952D01*
X82053866Y-72290952D02*
X81958628Y-72338571D01*
X81958628Y-72338571D02*
X81911009Y-72386190D01*
X81911009Y-72386190D02*
X81863390Y-72481428D01*
X81434819Y-71957618D02*
X81434819Y-71338571D01*
X81434819Y-71338571D02*
X81815771Y-71671904D01*
X81815771Y-71671904D02*
X81815771Y-71529047D01*
X81815771Y-71529047D02*
X81863390Y-71433809D01*
X81863390Y-71433809D02*
X81911009Y-71386190D01*
X81911009Y-71386190D02*
X82006247Y-71338571D01*
X82006247Y-71338571D02*
X82244342Y-71338571D01*
X82244342Y-71338571D02*
X82339580Y-71386190D01*
X82339580Y-71386190D02*
X82387200Y-71433809D01*
X82387200Y-71433809D02*
X82434819Y-71529047D01*
X82434819Y-71529047D02*
X82434819Y-71814761D01*
X82434819Y-71814761D02*
X82387200Y-71909999D01*
X82387200Y-71909999D02*
X82339580Y-71957618D01*
D15*
%TO.C,U17*%
X68670000Y-136245000D02*
X68670000Y-137895000D01*
X68670000Y-139895000D02*
X68670000Y-141545000D01*
X68670000Y-141545000D02*
X86570000Y-141545000D01*
X86570000Y-136245000D02*
X68670000Y-136245000D01*
X86570000Y-141545000D02*
X86570000Y-136245000D01*
X68670000Y-137895000D02*
G75*
G02*
X68670000Y-139895000I0J-1000000D01*
G01*
%TO.C,U3*%
X88560000Y-84606000D02*
X88560000Y-86256000D01*
X88560000Y-88256000D02*
X88560000Y-89906000D01*
X88560000Y-89906000D02*
X106460000Y-89906000D01*
X106460000Y-84606000D02*
X88560000Y-84606000D01*
X106460000Y-89906000D02*
X106460000Y-84606000D01*
X88560000Y-86256000D02*
G75*
G02*
X88560000Y-88256000I0J-1000000D01*
G01*
%TO.C,U16*%
X92370000Y-136245000D02*
X92370000Y-137895000D01*
X92370000Y-139895000D02*
X92370000Y-141545000D01*
X92370000Y-141545000D02*
X110270000Y-141545000D01*
X110270000Y-136245000D02*
X92370000Y-136245000D01*
X110270000Y-141545000D02*
X110270000Y-136245000D01*
X92370000Y-137895000D02*
G75*
G02*
X92370000Y-139895000I0J-1000000D01*
G01*
%TO.C,U14*%
X68670000Y-123750000D02*
X68670000Y-125400000D01*
X68670000Y-127400000D02*
X68670000Y-129050000D01*
X68670000Y-129050000D02*
X86570000Y-129050000D01*
X86570000Y-123750000D02*
X68670000Y-123750000D01*
X86570000Y-129050000D02*
X86570000Y-123750000D01*
X68670000Y-125400000D02*
G75*
G02*
X68670000Y-127400000I0J-1000000D01*
G01*
%TO.C,U7*%
X92330000Y-97452000D02*
X92330000Y-99102000D01*
X92330000Y-101102000D02*
X92330000Y-102752000D01*
X92330000Y-102752000D02*
X110230000Y-102752000D01*
X110230000Y-97452000D02*
X92330000Y-97452000D01*
X110230000Y-102752000D02*
X110230000Y-97452000D01*
X92330000Y-99102000D02*
G75*
G02*
X92330000Y-101102000I0J-1000000D01*
G01*
%TO.C,U11*%
X92420000Y-110298000D02*
X92420000Y-111948000D01*
X92420000Y-113948000D02*
X92420000Y-115598000D01*
X92420000Y-115598000D02*
X110320000Y-115598000D01*
X110320000Y-110298000D02*
X92420000Y-110298000D01*
X110320000Y-115598000D02*
X110320000Y-110298000D01*
X92420000Y-111948000D02*
G75*
G02*
X92420000Y-113948000I0J-1000000D01*
G01*
%TO.C,U13*%
X92370000Y-123750000D02*
X92370000Y-125400000D01*
X92370000Y-127400000D02*
X92370000Y-129050000D01*
X92370000Y-129050000D02*
X110270000Y-129050000D01*
X110270000Y-123750000D02*
X92370000Y-123750000D01*
X110270000Y-129050000D02*
X110270000Y-123750000D01*
X92370000Y-125400000D02*
G75*
G02*
X92370000Y-127400000I0J-1000000D01*
G01*
%TO.C,U10*%
X68440000Y-110298000D02*
X68440000Y-111948000D01*
X68440000Y-113948000D02*
X68440000Y-115598000D01*
X68440000Y-115598000D02*
X86340000Y-115598000D01*
X86340000Y-110298000D02*
X68440000Y-110298000D01*
X86340000Y-115598000D02*
X86340000Y-110298000D01*
X68440000Y-111948000D02*
G75*
G02*
X68440000Y-113948000I0J-1000000D01*
G01*
%TO.C,U1*%
X126570000Y-84606000D02*
X126570000Y-86256000D01*
X126570000Y-88256000D02*
X126570000Y-89906000D01*
X126570000Y-89906000D02*
X144470000Y-89906000D01*
X144470000Y-84606000D02*
X126570000Y-84606000D01*
X144470000Y-89906000D02*
X144470000Y-84606000D01*
X126570000Y-86256000D02*
G75*
G02*
X126570000Y-88256000I0J-1000000D01*
G01*
%TO.C,U8*%
X126570000Y-97452000D02*
X126570000Y-99102000D01*
X126570000Y-101102000D02*
X126570000Y-102752000D01*
X126570000Y-102752000D02*
X144470000Y-102752000D01*
X144470000Y-97452000D02*
X126570000Y-97452000D01*
X144470000Y-102752000D02*
X144470000Y-97452000D01*
X126570000Y-99102000D02*
G75*
G02*
X126570000Y-101102000I0J-1000000D01*
G01*
%TO.C,J1*%
X50400000Y-101420000D02*
X56400000Y-101420000D01*
X50400000Y-102280000D02*
X50400000Y-101420000D01*
X50400000Y-103960000D02*
X56400000Y-103960000D01*
X50400000Y-104820000D02*
X50400000Y-103960000D01*
X50400000Y-106500000D02*
X56400000Y-106500000D01*
X50400000Y-107360000D02*
X50400000Y-106500000D01*
X50400000Y-109040000D02*
X56400000Y-109040000D01*
X50400000Y-109900000D02*
X50400000Y-109040000D01*
X50400000Y-111580000D02*
X56400000Y-111580000D01*
X50400000Y-112440000D02*
X50400000Y-111580000D01*
X50400000Y-114120000D02*
X56400000Y-114120000D01*
X50400000Y-114980000D02*
X50400000Y-114120000D01*
X50400000Y-116660000D02*
X56400000Y-116660000D01*
X50400000Y-117520000D02*
X50400000Y-116660000D01*
X56400000Y-100470000D02*
X56400000Y-121010000D01*
X56400000Y-102280000D02*
X50400000Y-102280000D01*
X56400000Y-104820000D02*
X50400000Y-104820000D01*
X56400000Y-107360000D02*
X50400000Y-107360000D01*
X56400000Y-109900000D02*
X50400000Y-109900000D01*
X56400000Y-112440000D02*
X50400000Y-112440000D01*
X56400000Y-114980000D02*
X50400000Y-114980000D01*
X56400000Y-117520000D02*
X50400000Y-117520000D01*
X56400000Y-121010000D02*
X59160000Y-121010000D01*
X59160000Y-100470000D02*
X56400000Y-100470000D01*
X59160000Y-103120000D02*
X56400000Y-103120000D01*
X59160000Y-105660000D02*
X56400000Y-105660000D01*
X59160000Y-108200000D02*
X56400000Y-108200000D01*
X59160000Y-110740000D02*
X56400000Y-110740000D01*
X59160000Y-113280000D02*
X56400000Y-113280000D01*
X59160000Y-115820000D02*
X56400000Y-115820000D01*
X59160000Y-118360000D02*
X56400000Y-118360000D01*
X59160000Y-121010000D02*
X59160000Y-100470000D01*
X56400000Y-120060000D02*
X50400000Y-120060000D01*
X50400000Y-119200000D01*
X56400000Y-119200000D01*
X56400000Y-120060000D01*
G36*
X56400000Y-120060000D02*
G01*
X50400000Y-120060000D01*
X50400000Y-119200000D01*
X56400000Y-119200000D01*
X56400000Y-120060000D01*
G37*
%TO.C,J3*%
X78530000Y-56385000D02*
X78530000Y-59145000D01*
X78530000Y-59145000D02*
X99070000Y-59145000D01*
X81180000Y-59145000D02*
X81180000Y-56385000D01*
X82020000Y-50385000D02*
X82880000Y-50385000D01*
X82020000Y-56385000D02*
X82020000Y-50385000D01*
X82880000Y-50385000D02*
X82880000Y-56385000D01*
X83720000Y-59145000D02*
X83720000Y-56385000D01*
X84560000Y-50385000D02*
X85420000Y-50385000D01*
X84560000Y-56385000D02*
X84560000Y-50385000D01*
X85420000Y-50385000D02*
X85420000Y-56385000D01*
X86260000Y-59145000D02*
X86260000Y-56385000D01*
X87100000Y-50385000D02*
X87960000Y-50385000D01*
X87100000Y-56385000D02*
X87100000Y-50385000D01*
X87960000Y-50385000D02*
X87960000Y-56385000D01*
X88800000Y-59145000D02*
X88800000Y-56385000D01*
X89640000Y-50385000D02*
X90500000Y-50385000D01*
X89640000Y-56385000D02*
X89640000Y-50385000D01*
X90500000Y-50385000D02*
X90500000Y-56385000D01*
X91340000Y-59145000D02*
X91340000Y-56385000D01*
X92180000Y-50385000D02*
X93040000Y-50385000D01*
X92180000Y-56385000D02*
X92180000Y-50385000D01*
X93040000Y-50385000D02*
X93040000Y-56385000D01*
X93880000Y-59145000D02*
X93880000Y-56385000D01*
X94720000Y-50385000D02*
X95580000Y-50385000D01*
X94720000Y-56385000D02*
X94720000Y-50385000D01*
X95580000Y-50385000D02*
X95580000Y-56385000D01*
X96420000Y-59145000D02*
X96420000Y-56385000D01*
X97260000Y-50385000D02*
X98120000Y-50385000D01*
X97260000Y-56385000D02*
X97260000Y-50385000D01*
X98120000Y-50385000D02*
X98120000Y-56385000D01*
X99070000Y-56385000D02*
X78530000Y-56385000D01*
X99070000Y-59145000D02*
X99070000Y-56385000D01*
X79480000Y-56385000D02*
X80340000Y-56385000D01*
X80340000Y-50385000D01*
X79480000Y-50385000D01*
X79480000Y-56385000D01*
G36*
X79480000Y-56385000D02*
G01*
X80340000Y-56385000D01*
X80340000Y-50385000D01*
X79480000Y-50385000D01*
X79480000Y-56385000D01*
G37*
%TO.C,U12*%
X118960000Y-110298000D02*
X118960000Y-111948000D01*
X118960000Y-113948000D02*
X118960000Y-115598000D01*
X118960000Y-115598000D02*
X144480000Y-115598000D01*
X144480000Y-110298000D02*
X118960000Y-110298000D01*
X144480000Y-115598000D02*
X144480000Y-110298000D01*
X118960000Y-111948000D02*
G75*
G02*
X118960000Y-113948000I0J-1000000D01*
G01*
%TO.C,U2*%
X60550000Y-84606000D02*
X60550000Y-86256000D01*
X60550000Y-88256000D02*
X60550000Y-89906000D01*
X60550000Y-89906000D02*
X78450000Y-89906000D01*
X78450000Y-84606000D02*
X60550000Y-84606000D01*
X78450000Y-89906000D02*
X78450000Y-84606000D01*
X60550000Y-86256000D02*
G75*
G02*
X60550000Y-88256000I0J-1000000D01*
G01*
%TO.C,J2*%
X56130000Y-56385000D02*
X56130000Y-59145000D01*
X56130000Y-59145000D02*
X76670000Y-59145000D01*
X58780000Y-59145000D02*
X58780000Y-56385000D01*
X59620000Y-50385000D02*
X60480000Y-50385000D01*
X59620000Y-56385000D02*
X59620000Y-50385000D01*
X60480000Y-50385000D02*
X60480000Y-56385000D01*
X61320000Y-59145000D02*
X61320000Y-56385000D01*
X62160000Y-50385000D02*
X63020000Y-50385000D01*
X62160000Y-56385000D02*
X62160000Y-50385000D01*
X63020000Y-50385000D02*
X63020000Y-56385000D01*
X63860000Y-59145000D02*
X63860000Y-56385000D01*
X64700000Y-50385000D02*
X65560000Y-50385000D01*
X64700000Y-56385000D02*
X64700000Y-50385000D01*
X65560000Y-50385000D02*
X65560000Y-56385000D01*
X66400000Y-59145000D02*
X66400000Y-56385000D01*
X67240000Y-50385000D02*
X68100000Y-50385000D01*
X67240000Y-56385000D02*
X67240000Y-50385000D01*
X68100000Y-50385000D02*
X68100000Y-56385000D01*
X68940000Y-59145000D02*
X68940000Y-56385000D01*
X69780000Y-50385000D02*
X70640000Y-50385000D01*
X69780000Y-56385000D02*
X69780000Y-50385000D01*
X70640000Y-50385000D02*
X70640000Y-56385000D01*
X71480000Y-59145000D02*
X71480000Y-56385000D01*
X72320000Y-50385000D02*
X73180000Y-50385000D01*
X72320000Y-56385000D02*
X72320000Y-50385000D01*
X73180000Y-50385000D02*
X73180000Y-56385000D01*
X74020000Y-59145000D02*
X74020000Y-56385000D01*
X74860000Y-50385000D02*
X75720000Y-50385000D01*
X74860000Y-56385000D02*
X74860000Y-50385000D01*
X75720000Y-50385000D02*
X75720000Y-56385000D01*
X76670000Y-56385000D02*
X56130000Y-56385000D01*
X76670000Y-59145000D02*
X76670000Y-56385000D01*
X57080000Y-56385000D02*
X57940000Y-56385000D01*
X57940000Y-50385000D01*
X57080000Y-50385000D01*
X57080000Y-56385000D01*
G36*
X57080000Y-56385000D02*
G01*
X57940000Y-56385000D01*
X57940000Y-50385000D01*
X57080000Y-50385000D01*
X57080000Y-56385000D01*
G37*
%TO.C,J5*%
X100980000Y-56385000D02*
X100980000Y-59145000D01*
X100980000Y-59145000D02*
X121520000Y-59145000D01*
X103630000Y-59145000D02*
X103630000Y-56385000D01*
X104470000Y-50385000D02*
X105330000Y-50385000D01*
X104470000Y-56385000D02*
X104470000Y-50385000D01*
X105330000Y-50385000D02*
X105330000Y-56385000D01*
X106170000Y-59145000D02*
X106170000Y-56385000D01*
X107010000Y-50385000D02*
X107870000Y-50385000D01*
X107010000Y-56385000D02*
X107010000Y-50385000D01*
X107870000Y-50385000D02*
X107870000Y-56385000D01*
X108710000Y-59145000D02*
X108710000Y-56385000D01*
X109550000Y-50385000D02*
X110410000Y-50385000D01*
X109550000Y-56385000D02*
X109550000Y-50385000D01*
X110410000Y-50385000D02*
X110410000Y-56385000D01*
X111250000Y-59145000D02*
X111250000Y-56385000D01*
X112090000Y-50385000D02*
X112950000Y-50385000D01*
X112090000Y-56385000D02*
X112090000Y-50385000D01*
X112950000Y-50385000D02*
X112950000Y-56385000D01*
X113790000Y-59145000D02*
X113790000Y-56385000D01*
X114630000Y-50385000D02*
X115490000Y-50385000D01*
X114630000Y-56385000D02*
X114630000Y-50385000D01*
X115490000Y-50385000D02*
X115490000Y-56385000D01*
X116330000Y-59145000D02*
X116330000Y-56385000D01*
X117170000Y-50385000D02*
X118030000Y-50385000D01*
X117170000Y-56385000D02*
X117170000Y-50385000D01*
X118030000Y-50385000D02*
X118030000Y-56385000D01*
X118870000Y-59145000D02*
X118870000Y-56385000D01*
X119710000Y-50385000D02*
X120570000Y-50385000D01*
X119710000Y-56385000D02*
X119710000Y-50385000D01*
X120570000Y-50385000D02*
X120570000Y-56385000D01*
X121520000Y-56385000D02*
X100980000Y-56385000D01*
X121520000Y-59145000D02*
X121520000Y-56385000D01*
X101930000Y-56385000D02*
X102790000Y-56385000D01*
X102790000Y-50385000D01*
X101930000Y-50385000D01*
X101930000Y-56385000D01*
G36*
X101930000Y-56385000D02*
G01*
X102790000Y-56385000D01*
X102790000Y-50385000D01*
X101930000Y-50385000D01*
X101930000Y-56385000D01*
G37*
%TO.C,U9*%
X88550000Y-71760000D02*
X88550000Y-73410000D01*
X88550000Y-75410000D02*
X88550000Y-77060000D01*
X88550000Y-77060000D02*
X108990000Y-77060000D01*
X108990000Y-71760000D02*
X88550000Y-71760000D01*
X108990000Y-77060000D02*
X108990000Y-71760000D01*
X88550000Y-73410000D02*
G75*
G02*
X88550000Y-75410000I0J-1000000D01*
G01*
%TO.C,U18*%
X118960000Y-136245000D02*
X118960000Y-137895000D01*
X118960000Y-139895000D02*
X118960000Y-141545000D01*
X118960000Y-141545000D02*
X144480000Y-141545000D01*
X144480000Y-136245000D02*
X118960000Y-136245000D01*
X144480000Y-141545000D02*
X144480000Y-136245000D01*
X118960000Y-137895000D02*
G75*
G02*
X118960000Y-139895000I0J-1000000D01*
G01*
%TO.C,U15*%
X118960000Y-123750000D02*
X118960000Y-125400000D01*
X118960000Y-127400000D02*
X118960000Y-129050000D01*
X118960000Y-129050000D02*
X144480000Y-129050000D01*
X144480000Y-123750000D02*
X118960000Y-123750000D01*
X144480000Y-129050000D02*
X144480000Y-123750000D01*
X118960000Y-125400000D02*
G75*
G02*
X118960000Y-127400000I0J-1000000D01*
G01*
%TO.C,U4*%
X68950000Y-97452000D02*
X68950000Y-99102000D01*
X68950000Y-101102000D02*
X68950000Y-102752000D01*
X68950000Y-102752000D02*
X86850000Y-102752000D01*
X86850000Y-97452000D02*
X68950000Y-97452000D01*
X86850000Y-102752000D02*
X86850000Y-97452000D01*
X68950000Y-99102000D02*
G75*
G02*
X68950000Y-101102000I0J-1000000D01*
G01*
%TO.C,U6*%
X118960000Y-71760000D02*
X118960000Y-73410000D01*
X118960000Y-75410000D02*
X118960000Y-77060000D01*
X118960000Y-77060000D02*
X144480000Y-77060000D01*
X144480000Y-71760000D02*
X118960000Y-71760000D01*
X144480000Y-77060000D02*
X144480000Y-71760000D01*
X118960000Y-73410000D02*
G75*
G02*
X118960000Y-75410000I0J-1000000D01*
G01*
%TO.C,J4*%
X123420000Y-56400000D02*
X123420000Y-59160000D01*
X123420000Y-59160000D02*
X143960000Y-59160000D01*
X126070000Y-59160000D02*
X126070000Y-56400000D01*
X126910000Y-50400000D02*
X127770000Y-50400000D01*
X126910000Y-56400000D02*
X126910000Y-50400000D01*
X127770000Y-50400000D02*
X127770000Y-56400000D01*
X128610000Y-59160000D02*
X128610000Y-56400000D01*
X129450000Y-50400000D02*
X130310000Y-50400000D01*
X129450000Y-56400000D02*
X129450000Y-50400000D01*
X130310000Y-50400000D02*
X130310000Y-56400000D01*
X131150000Y-59160000D02*
X131150000Y-56400000D01*
X131990000Y-50400000D02*
X132850000Y-50400000D01*
X131990000Y-56400000D02*
X131990000Y-50400000D01*
X132850000Y-50400000D02*
X132850000Y-56400000D01*
X133690000Y-59160000D02*
X133690000Y-56400000D01*
X134530000Y-50400000D02*
X135390000Y-50400000D01*
X134530000Y-56400000D02*
X134530000Y-50400000D01*
X135390000Y-50400000D02*
X135390000Y-56400000D01*
X136230000Y-59160000D02*
X136230000Y-56400000D01*
X137070000Y-50400000D02*
X137930000Y-50400000D01*
X137070000Y-56400000D02*
X137070000Y-50400000D01*
X137930000Y-50400000D02*
X137930000Y-56400000D01*
X138770000Y-59160000D02*
X138770000Y-56400000D01*
X139610000Y-50400000D02*
X140470000Y-50400000D01*
X139610000Y-56400000D02*
X139610000Y-50400000D01*
X140470000Y-50400000D02*
X140470000Y-56400000D01*
X141310000Y-59160000D02*
X141310000Y-56400000D01*
X142150000Y-50400000D02*
X143010000Y-50400000D01*
X142150000Y-56400000D02*
X142150000Y-50400000D01*
X143010000Y-50400000D02*
X143010000Y-56400000D01*
X143960000Y-56400000D02*
X123420000Y-56400000D01*
X143960000Y-59160000D02*
X143960000Y-56400000D01*
X124370000Y-56400000D02*
X125230000Y-56400000D01*
X125230000Y-50400000D01*
X124370000Y-50400000D01*
X124370000Y-56400000D01*
G36*
X124370000Y-56400000D02*
G01*
X125230000Y-56400000D01*
X125230000Y-50400000D01*
X124370000Y-50400000D01*
X124370000Y-56400000D01*
G37*
%TO.C,U5*%
X60540000Y-71760000D02*
X60540000Y-73410000D01*
X60540000Y-75410000D02*
X60540000Y-77060000D01*
X60540000Y-77060000D02*
X80980000Y-77060000D01*
X80980000Y-71760000D02*
X60540000Y-71760000D01*
X80980000Y-77060000D02*
X80980000Y-71760000D01*
X60540000Y-73410000D02*
G75*
G02*
X60540000Y-75410000I0J-1000000D01*
G01*
%TD*%
M02*
